<?xml version="1.0" encoding="UTF-8" standalone="no"?>
<!-- Created with Inkscape (http://www.inkscape.org/) -->

<svg
   xmlns:dc="http://purl.org/dc/elements/1.1/"
   xmlns:cc="http://creativecommons.org/ns#"
   xmlns:rdf="http://www.w3.org/1999/02/22-rdf-syntax-ns#"
   xmlns:svg="http://www.w3.org/2000/svg"
   xmlns="http://www.w3.org/2000/svg"
   version="1.1"
   width="47.137501"
   height="31.325001"
   id="svg3017"
   xml:space="preserve"><metadata
     id="metadata3023"><rdf:RDF><cc:Work
         rdf:about=""><dc:format>image/svg+xml</dc:format><dc:type
           rdf:resource="http://purl.org/dc/dcmitype/StillImage" /><dc:title></dc:title></cc:Work></rdf:RDF></metadata><defs
     id="defs3021" /><g
     transform="matrix(1.25,0,0,-1.25,0,31.325)"
     id="g3025"><g
       transform="scale(0.1,0.1)"
       id="g3027"><path
         d="m 5.11719,6.05078 303.73,0 0,171.836 -303.73,0 0,-171.836 z"
         id="path3029"
         style="fill:#339966;fill-opacity:1;fill-rule:nonzero;stroke:none" /><path
         d="m 5.11719,6.05078 303.73,0 0,171.836 -303.73,0 0,-171.836 z"
         id="path3031"
         style="fill:none;stroke:#ffffff;stroke-width:4;stroke-linecap:butt;stroke-linejoin:miter;stroke-miterlimit:4;stroke-opacity:1;stroke-dasharray:none" /><path
         d="m 309.082,5.19141 0,171.83559 62.703,68.418 0,-170.9762 -62.703,-69.27739"
         id="path3033"
         style="fill:#339966;fill-opacity:1;fill-rule:nonzero;stroke:none" /><path
         d="m 309.082,5.19141 0,171.83559 62.703,68.418 0,-170.9762 -62.703,-69.27739 z"
         id="path3035"
         style="fill:none;stroke:#ffffff;stroke-width:4;stroke-linecap:butt;stroke-linejoin:miter;stroke-miterlimit:4;stroke-opacity:1;stroke-dasharray:none" /><path
         d="m 309.094,178.023 -303.86744,0 75.12504,67.383 292.0894,0.254 -63.347,-67.637"
         id="path3037"
         style="fill:#339966;fill-opacity:1;fill-rule:nonzero;stroke:none" /><path
         d="m 309.094,178.023 -303.86744,0 75.12504,67.383 292.0894,0.254 -63.347,-67.637 z"
         id="path3039"
         style="fill:none;stroke:#ffffff;stroke-width:4;stroke-linecap:butt;stroke-linejoin:miter;stroke-miterlimit:4;stroke-opacity:1;stroke-dasharray:none" /><path
         d="m 68.9453,114.391 -54.3633,-0.039 0,10.156 54.3633,0.039 0.0195,15.848 L 100.41,119.457 68.9648,98.5117 68.9453,114.391"
         id="path3041"
         style="fill:#ffffff;fill-opacity:1;fill-rule:nonzero;stroke:none" /><path
         d="m 266.633,141.215 -46.164,-0.027 0,8.632 46.164,0.028 0.008,13.476 26.738,-17.801 -26.738,-17.804 -0.008,13.496"
         id="path3043"
         style="fill:#ffffff;fill-opacity:1;fill-rule:nonzero;stroke:none" /><path
         d="m 266.633,87.3867 -46.164,-0.039 0,8.6328 46.164,0.0312 0.008,13.4763 26.738,-17.8044 -26.738,-17.793 -0.008,13.4961"
         id="path3045"
         style="fill:#ffffff;fill-opacity:1;fill-rule:nonzero;stroke:none" /><path
         d="m 266.633,33.5586 -46.164,-0.0469 0,8.6328 46.164,0.0391 0.008,13.4648 26.738,-17.7929 -26.738,-17.8008 -0.008,13.5039"
         id="path3047"
         style="fill:#ffffff;fill-opacity:1;fill-rule:nonzero;stroke:none" /><path
         d="m 108.027,82.25 77.1484,0 0,65.3438 -77.1484,0 0,-65.3438 z"
         id="path3049"
         style="fill:#ffffff;fill-opacity:1;fill-rule:nonzero;stroke:none" /><path
         d="m 191.895,109.645 15.4414,0 0,29.4141 -15.4414,0 0,-29.4141 z"
         id="path3051"
         style="fill:#ffffff;fill-opacity:1;fill-rule:nonzero;stroke:none" /><path
         d="m 191.895,109.645 15.4414,0 0,29.4141 -15.4414,0 0,-29.4141 z"
         id="path3053"
         style="fill:none;stroke:#231f20;stroke-width:2.17799997;stroke-linecap:butt;stroke-linejoin:miter;stroke-miterlimit:4;stroke-opacity:1;stroke-dasharray:none" /><path
         d="m 118.059,40.3477 28.543,74.5783 29.519,-74.7658"
         id="path3055"
         style="fill:none;stroke:#ffffff;stroke-width:9.68000031;stroke-linecap:round;stroke-linejoin:miter;stroke-miterlimit:4;stroke-opacity:1;stroke-dasharray:none" /><path
         d="m 168.203,123.539 23.145,0"
         id="path3057"
         style="fill:none;stroke:#ffffff;stroke-width:15;stroke-linecap:round;stroke-linejoin:miter;stroke-miterlimit:4;stroke-opacity:1;stroke-dasharray:none" /></g></g></svg>