<?xml version="1.0" encoding="UTF-8" standalone="no"?>
<!-- Created with Inkscape (http://www.inkscape.org/) -->

<svg
   xmlns:dc="http://purl.org/dc/elements/1.1/"
   xmlns:cc="http://creativecommons.org/ns#"
   xmlns:rdf="http://www.w3.org/1999/02/22-rdf-syntax-ns#"
   xmlns:svg="http://www.w3.org/2000/svg"
   xmlns="http://www.w3.org/2000/svg"
   version="1.1"
   width="54.287498"
   height="37.299999"
   id="svg3059"
   xml:space="preserve"><metadata
     id="metadata3065"><rdf:RDF><cc:Work
         rdf:about=""><dc:format>image/svg+xml</dc:format><dc:type
           rdf:resource="http://purl.org/dc/dcmitype/StillImage" /><dc:title></dc:title></cc:Work></rdf:RDF></metadata><defs
     id="defs3063"><clipPath
       id="clipPath3075"><path
         d="M 0,0 430,0 430,298 0,298 0,0 z"
         id="path3077" /></clipPath></defs><g
     transform="matrix(1.25,0,0,-1.25,0,37.3)"
     id="g3067"><g
       transform="scale(0.1,0.1)"
       id="g3069"><g
         id="g3071"><g
           clip-path="url(#clipPath3075)"
           id="g3073"><path
             d="m 421.738,293.695 10.41,-13.476 -28.164,-154.352 -12.871,7.965 30.625,159.863"
             id="path3079"
             style="fill:#02709f;fill-opacity:1;fill-rule:nonzero;stroke:none" /><path
             d="m 421.738,293.695 10.41,-13.476 -28.164,-154.352 -12.871,7.965 30.625,159.863 z"
             id="path3081"
             style="fill:none;stroke:#ffffff;stroke-width:3.99993992;stroke-linecap:butt;stroke-linejoin:miter;stroke-miterlimit:4;stroke-opacity:1;stroke-dasharray:none" /><path
             d="m 120.395,133.832 11.64,-7.965 271.949,0 -12.871,7.965 -270.718,0"
             id="path3083"
             style="fill:#000000;fill-opacity:1;fill-rule:nonzero;stroke:none" /><path
             d="m 120.395,133.832 11.64,-7.965 271.949,0 -12.871,7.965 -270.718,0 z"
             id="path3085"
             style="fill:none;stroke:#ffffff;stroke-width:1.99996996;stroke-linecap:butt;stroke-linejoin:miter;stroke-miterlimit:4;stroke-opacity:1;stroke-dasharray:none" /><path
             d="m 393.574,121.273 0,-27.2496 -7.051,-6.1289 c 0,0 -16.543,-4.8984 -12.871,-14.6953 l -73.789,-68.60936 0,30.01956 93.711,86.6636"
             id="path3087"
             style="fill:#02709f;fill-opacity:1;fill-rule:nonzero;stroke:none" /><path
             d="m 393.574,121.273 0,-27.2496 -7.051,-6.1289 c 0,0 -16.543,-4.8984 -12.871,-14.6953 l -73.789,-68.60936 0,30.01956 93.711,86.6636 z"
             id="path3089"
             style="fill:none;stroke:#ffffff;stroke-width:3.99993992;stroke-linecap:butt;stroke-linejoin:miter;stroke-miterlimit:4;stroke-opacity:1;stroke-dasharray:none" /><path
             d="m 6.17578,4.58984 293.688,0 0,30.0195 -293.688,0 0,-30.0195 z"
             id="path3091"
             style="fill:#02709f;fill-opacity:1;fill-rule:nonzero;stroke:none" /><path
             d="m 6.17578,34.6094 0,-30.01956 293.68722,0 0,30.01956 -293.68722,0"
             id="path3093"
             style="fill:none;stroke:#ffffff;stroke-width:3.99993992;stroke-linecap:butt;stroke-linejoin:miter;stroke-miterlimit:4;stroke-opacity:1;stroke-dasharray:none" /><path
             d="m 123.461,119.438 270.113,1.835 -93.711,-86.6636 -293.68722,0 117.28522,84.8286"
             id="path3095"
             style="fill:#02709f;fill-opacity:1;fill-rule:nonzero;stroke:none" /><path
             d="m 123.461,119.438 270.113,1.835 -93.711,-86.6636 -293.68722,0 117.28522,84.8286 z"
             id="path3097"
             style="fill:none;stroke:#ffffff;stroke-width:3.99993992;stroke-linecap:butt;stroke-linejoin:miter;stroke-miterlimit:4;stroke-opacity:1;stroke-dasharray:none" /><path
             d="m 391.113,133.832 30.625,159.863 -266.422,0 -34.921,-159.863 270.718,0"
             id="path3099"
             style="fill:#02709f;fill-opacity:1;fill-rule:nonzero;stroke:none" /><path
             d="m 391.113,133.832 30.625,159.863 -266.422,0 -34.921,-159.863 270.718,0 z"
             id="path3101"
             style="fill:none;stroke:#ffffff;stroke-width:3.99993992;stroke-linecap:butt;stroke-linejoin:miter;stroke-miterlimit:4;stroke-opacity:1;stroke-dasharray:none" /><path
             d="m 368.516,151.719 23.574,120.051 -216.637,0 -23.574,-120.051 216.637,0"
             id="path3103"
             style="fill:#02709f;fill-opacity:1;fill-rule:nonzero;stroke:none" /><path
             d="m 368.516,151.719 23.574,120.051 -216.637,0 -23.574,-120.051 216.637,0 z"
             id="path3105"
             style="fill:none;stroke:#ffffff;stroke-width:3.99993992;stroke-linecap:butt;stroke-linejoin:miter;stroke-miterlimit:4;stroke-opacity:1;stroke-dasharray:none" /><path
             d="M 129.809,117.516 61.6836,62.5117"
             id="path3107"
             style="fill:none;stroke:#ffffff;stroke-width:1.00005996;stroke-linecap:butt;stroke-linejoin:round;stroke-miterlimit:4;stroke-opacity:1;stroke-dasharray:none" /><path
             d="M 151.684,117.516 83.5586,62.5117"
             id="path3109"
             style="fill:none;stroke:#ffffff;stroke-width:1.00005996;stroke-linecap:butt;stroke-linejoin:round;stroke-miterlimit:4;stroke-opacity:1;stroke-dasharray:none" /><path
             d="M 173.559,117.516 105.434,62.5117"
             id="path3111"
             style="fill:none;stroke:#ffffff;stroke-width:1.00005996;stroke-linecap:butt;stroke-linejoin:round;stroke-miterlimit:4;stroke-opacity:1;stroke-dasharray:none" /><path
             d="M 195.434,117.516 127.309,62.5117"
             id="path3113"
             style="fill:none;stroke:#ffffff;stroke-width:1.00005996;stroke-linecap:butt;stroke-linejoin:round;stroke-miterlimit:4;stroke-opacity:1;stroke-dasharray:none" /><path
             d="M 217.305,117.516 149.184,62.5117"
             id="path3115"
             style="fill:none;stroke:#ffffff;stroke-width:1.00005996;stroke-linecap:butt;stroke-linejoin:round;stroke-miterlimit:4;stroke-opacity:1;stroke-dasharray:none" /><path
             d="M 239.18,117.516 171.059,62.5117"
             id="path3117"
             style="fill:none;stroke:#ffffff;stroke-width:1.00005996;stroke-linecap:butt;stroke-linejoin:round;stroke-miterlimit:4;stroke-opacity:1;stroke-dasharray:none" /><path
             d="M 261.055,117.516 192.934,62.5117"
             id="path3119"
             style="fill:none;stroke:#ffffff;stroke-width:1.00005996;stroke-linecap:butt;stroke-linejoin:round;stroke-miterlimit:4;stroke-opacity:1;stroke-dasharray:none" /><path
             d="M 282.93,117.516 214.805,62.5117"
             id="path3121"
             style="fill:none;stroke:#ffffff;stroke-width:1.00005996;stroke-linecap:butt;stroke-linejoin:round;stroke-miterlimit:4;stroke-opacity:1;stroke-dasharray:none" /><path
             d="M 304.805,117.516 236.68,62.5117"
             id="path3123"
             style="fill:none;stroke:#ffffff;stroke-width:1.00005996;stroke-linecap:butt;stroke-linejoin:round;stroke-miterlimit:4;stroke-opacity:1;stroke-dasharray:none" /><path
             d="M 326.68,117.516 258.555,62.5117"
             id="path3125"
             style="fill:none;stroke:#ffffff;stroke-width:1.00005996;stroke-linecap:butt;stroke-linejoin:round;stroke-miterlimit:4;stroke-opacity:1;stroke-dasharray:none" /><path
             d="M 348.555,117.516 280.43,62.5117"
             id="path3127"
             style="fill:none;stroke:#ffffff;stroke-width:1.00005996;stroke-linecap:butt;stroke-linejoin:round;stroke-miterlimit:4;stroke-opacity:1;stroke-dasharray:none" /><path
             d="M 370.43,117.516 302.305,62.5117"
             id="path3129"
             style="fill:none;stroke:#ffffff;stroke-width:1.00005996;stroke-linecap:butt;stroke-linejoin:round;stroke-miterlimit:4;stroke-opacity:1;stroke-dasharray:none" /><path
             d="m 69.3008,68.3125 242.5152,0"
             id="path3131"
             style="fill:none;stroke:#ffffff;stroke-width:1.00005996;stroke-linecap:butt;stroke-linejoin:round;stroke-miterlimit:4;stroke-opacity:1;stroke-dasharray:none" /><path
             d="m 85.6094,80.918 238.7656,0"
             id="path3133"
             style="fill:none;stroke:#ffffff;stroke-width:1.00005996;stroke-linecap:butt;stroke-linejoin:round;stroke-miterlimit:4;stroke-opacity:1;stroke-dasharray:none" /><path
             d="m 102.523,93.5195 238.141,0"
             id="path3135"
             style="fill:none;stroke:#ffffff;stroke-width:1.00005996;stroke-linecap:butt;stroke-linejoin:round;stroke-miterlimit:4;stroke-opacity:1;stroke-dasharray:none" /><path
             d="m 117.582,106.129 240.016,0"
             id="path3137"
             style="fill:none;stroke:#ffffff;stroke-width:1.00005996;stroke-linecap:butt;stroke-linejoin:round;stroke-miterlimit:4;stroke-opacity:1;stroke-dasharray:none" /></g></g></g></g></svg>