<?xml version="1.0" encoding="UTF-8" standalone="no"?>
<!-- Created with Inkscape (http://www.inkscape.org/) -->

<svg
   xmlns:dc="http://purl.org/dc/elements/1.1/"
   xmlns:cc="http://creativecommons.org/ns#"
   xmlns:rdf="http://www.w3.org/1999/02/22-rdf-syntax-ns#"
   xmlns:svg="http://www.w3.org/2000/svg"
   xmlns="http://www.w3.org/2000/svg"
   xmlns:sodipodi="http://sodipodi.sourceforge.net/DTD/sodipodi-0.dtd"
   xmlns:inkscape="http://www.inkscape.org/namespaces/inkscape"
   id="svg2"
   version="1.1"
   inkscape:version="0.48.4 r9939"
   width="255.74631"
   height="275.51743"
   xml:space="preserve"
   sodipodi:docname="epl-mention.eps"><metadata
     id="metadata8"><rdf:RDF><cc:Work
         rdf:about=""><dc:format>image/svg+xml</dc:format><dc:type
           rdf:resource="http://purl.org/dc/dcmitype/StillImage" /><dc:title></dc:title></cc:Work></rdf:RDF></metadata><defs
     id="defs6" /><sodipodi:namedview
     pagecolor="#ffffff"
     bordercolor="#666666"
     borderopacity="1"
     objecttolerance="10"
     gridtolerance="10"
     guidetolerance="10"
     inkscape:pageopacity="0"
     inkscape:pageshadow="2"
     inkscape:window-width="956"
     inkscape:window-height="1168"
     id="namedview4"
     showgrid="false"
     inkscape:zoom="1.2685909"
     inkscape:cx="50.632438"
     inkscape:cy="-3.19974"
     inkscape:window-x="0"
     inkscape:window-y="28"
     inkscape:window-maximized="0"
     inkscape:current-layer="g12"
     fit-margin-top="0"
     fit-margin-left="0"
     fit-margin-right="0"
     fit-margin-bottom="0" /><g
     id="g10"
     inkscape:groupmode="layer"
     inkscape:label="ink_ext_XXXXXX"
     transform="matrix(1.25,0,0,-1.25,-35.164739,1016.93)"><g
       id="g12"
       transform="scale(0.1,0.1)"><path
         d="m 515.746,7561.13 298.692,0 0,49.28 c 0,82.14 -65.708,149.35 -149.348,149.35 -82.141,0 -149.344,-67.21 -149.344,-149.35 l 0,-49.28"
         style="fill:#5a8fd2;fill-opacity:1;fill-rule:nonzero;stroke:none"
         id="path20"
         inkscape:connector-curvature="0" /><path
         d="m 1304.87,7758.27 -155.32,0 0,-497.31 155.32,0 c 29.87,0 49.29,7.47 70.19,28.36 20.91,20.91 28.38,41.83 28.38,71.69 l 0,298.69 c 0,29.87 -7.47,50.78 -28.38,71.69 -20.9,20.9 -40.32,26.88 -70.19,26.88"
         style="fill:#1c4f9c;fill-opacity:1;fill-rule:nonzero;stroke:none"
         id="path22"
         inkscape:connector-curvature="0" /><path
         d="m 2324.41,6884.32 0,1091.91 c 0,88.04 -50.55,159.21 -149.93,159.21 l -457.47,0 c 17.18,-7.78 29.41,-25.08 29.41,-44.91 l 0,-746.72 c 0,-17.92 4.48,-38.83 20.91,-62.72 14.94,-20.92 35.84,-35.84 52.27,-41.82 29.87,-13.44 26.88,-41.82 26.88,-44.8 2.99,-50.78 -53.76,-52.27 -70.19,-44.8 -43.31,17.92 -67.2,41.81 -86.62,65.7 -34.35,41.82 -43.31,85.13 -43.31,128.44 l -1.49,694.44 -122.46,0 c -31.36,0 -53.77,13.45 -59.74,37.34 -6.85,28.54 8.14,50.86 26.91,59.85 l -423.74,0 0,-276.82 239.03,-0.29 c 59.74,0 101.56,-13.44 143.37,-55.26 43.31,-43.32 55.26,-83.63 55.26,-143.37 l 0,-298.69 c 0,-59.73 -13.44,-100.05 -56.75,-143.36 -43.31,-41.82 -82.14,-56.75 -141.88,-56.75 l -155.31,0 -0.45,-276.58 1175.3,0"
         style="fill:#5a8fd2;fill-opacity:1;fill-rule:nonzero;stroke:none"
         id="path24"
         inkscape:connector-curvature="0" /><path
         d="m 1045.59,8134.94 -761.981,0 c 0,0 -0.14,-1049.42 -0.14,-1093.2 0,-89.25 45.629,-158.75 147.429,-158.75 l 613.682,0 1.01,1251.95 z m -529.844,-673.87 0,-100.06 c 0,-29.87 7.473,-49.28 28.375,-70.19 20.906,-20.91 41.817,-28.38 71.692,-28.38 l 249.398,0 c 26.879,0 49.277,-23.89 49.277,-50.77 0,-26.89 -22.398,-49.29 -49.277,-49.29 l -249.398,0 c -59.743,0 -101.555,14.94 -143.372,58.25 -40.324,41.81 -55.261,82.14 -55.261,140.38 l 0,200.12 1.496,49.28 c 4.484,135.9 110.512,247.91 246.414,249.41 137.398,0 249.398,-112.01 249.398,-249.41 l 0,-100.06 c 0,-13.44 -2.98,-23.89 -11.937,-32.85 -10.461,-11.95 -22.399,-16.43 -37.34,-16.43 l -349.465,0"
         style="fill:#1c4f9c;fill-opacity:1;fill-rule:nonzero;stroke:none"
         id="path26"
         inkscape:connector-curvature="0" /><path
         d="m 382.27139,5977.3706 0,91.852 c 0,15.1625 -6.89324,28.6866 -16.001,36.1303 -7.71248,6.0676 -17.65229,9.9334 -29.78745,9.9334 l -46.05727,0 c -2.48976,0 -5.24832,-1.6578 -6.34919,-2.4897 -0.82566,-0.8194 -2.75857,-1.3761 -2.75857,-6.8933 l 0,-165.5015 c 0,-2.477 0.27521,-3.853 2.20813,-6.0612 1.65131,-2.2145 3.85944,-3.0401 6.89963,-3.0401 l 46.05727,0 c 14.34969,0 27.03527,5.7987 34.48534,14.6249 8.00049,8.8261 11.30311,18.1963 11.30311,31.4452 m -18.20275,0 c 0,-8.0006 -1.6513,-13.2489 -7.17483,-19.31 -4.6851,-4.9604 -11.85995,-8.2758 -20.41087,-8.2758 l -36.96231,0 0,147.0108 37.23753,0.2816 c 5.79875,0 12.69199,-2.2018 18.48434,-7.1684 6.34279,-6.0677 8.82614,-12.1353 8.82614,-20.6862 l 0,-91.852 z m 178.98075,-36.9688 c 0,4.9732 -4.40349,9.383 -9.37659,9.383 l -64.26639,0 0,73.3742 55.17143,0 c 5.24192,0 9.09496,4.1347 9.09496,9.3765 0,4.9667 -4.14106,9.1014 -9.37018,9.1014 l -54.89621,0 0,55.1587 64.26639,0 c 4.9731,0 9.37659,4.141 9.37659,9.1077 0,4.9667 -4.40349,9.383 -9.37659,9.383 l -73.36137,0 c -2.76497,0 -4.97311,-0.2755 -6.90602,-2.2082 -2.20814,-1.9328 -2.48336,-4.1474 -2.48336,-7.1748 l 0,-165.5015 c 0,-2.7522 0.56324,-4.685 2.75857,-6.6116 1.93292,-2.2145 3.86584,-2.4897 6.63081,-2.4897 l 74.46223,0 c 4.6979,0 8.27573,4.4163 8.27573,9.1013 m 289.7076,0 c 0,4.9732 -4.40986,9.383 -9.37657,9.383 l -64.26641,0 0,156.1185 c 0,4.9667 -4.12825,9.383 -9.10137,9.383 -4.9603,0 -9.37657,-4.4163 -9.37657,-9.383 l 0,-165.5015 c 0,-2.7522 1.10087,-4.4035 2.75857,-6.3364 2.20814,-1.9393 3.86583,-2.7649 6.618,-2.7649 l 73.36778,0 c 4.96671,0 9.37657,4.141 9.37657,9.1013 m 165.46953,36.9688 0,91.852 c 0,27.8546 -27.29773,46.0637 -55.16506,46.0637 -27.84813,0 -55.16504,-18.2091 -55.16504,-46.0637 l 0,-91.852 c 0,-28.1362 27.31691,-46.0701 55.16504,-46.0701 27.86733,0 55.16506,17.9339 55.16506,46.0701 m -18.4716,0 c 0,-18.2028 -18.76596,-27.5858 -36.69346,-27.5858 -17.92112,0 -36.68069,9.383 -36.68069,27.5858 l 0,91.852 c 0,17.9276 18.75957,27.573 36.68069,27.573 17.9275,0 36.69346,-9.6454 36.69346,-27.573 l 0,-91.852 z m 189.29178,9.1012 0,119.4315 c 0,4.9667 -4.4099,9.383 -9.3766,9.383 -4.9603,0 -9.1013,-4.4163 -9.1013,-9.383 l 0,-119.4315 c 0,-20.1355 -16.5515,-36.687 -36.6807,-36.687 -20.4174,0 -36.9688,16.5515 -36.9688,36.687 l 0,119.4315 c 0,4.9667 -4.1282,9.383 -9.1012,9.383 -4.9668,0 -9.0951,-4.4163 -9.0951,-9.383 l 0,-119.4315 c 0,-30.3442 24.8208,-55.1713 55.1651,-55.1713 30.3314,0 55.1586,24.8271 55.1586,55.1713 m 169.969,117.2298 c 1.6513,5.5108 -2.2081,11.8599 -8.8262,11.5847 -3.8659,-0.2755 -8.0004,-2.4897 -9.1013,-6.6308 l -36.9687,-133.2179 -37.2376,133.2179 c -1.3761,4.973 -7.1684,7.7252 -11.8535,6.0739 -4.4162,-1.6513 -6.8996,-6.3492 -5.7988,-11.0278 l 46.3389,-167.1528 c 1.1073,-3.5843 4.698,-5.2483 8.551,-5.2483 3.8658,0 7.1812,1.664 8.2756,5.2483 l 46.6206,167.1528 z m 163.127,-161.0852 -56.0035,167.1528 c -1.3761,3.5841 -4.1347,5.5171 -7.9878,5.5171 -4.4225,0 -7.7252,-2.2082 -9.1142,-6.0739 l -55.4402,-165.5016 c -1.6513,-5.5107 1.9393,-12.4103 8.8327,-12.4103 5.7858,0 7.4435,2.4897 8.826,6.6243 l 16.2762,48.547 60.4006,0 15.9946,-48.547 c 1.1072,-4.1346 4.6979,-6.6243 8.8262,-6.6243 5.517,0 11.0407,6.0739 9.3894,11.3159 m -40.2778,62.3398 -48.2719,0 24.5584,72.8173 23.7135,-72.8173 z m 137.0261,-64.5544 0,165.5015 c 0,4.9667 -4.1282,9.383 -9.1013,9.383 -4.954,0 -9.1014,-4.4163 -9.1014,-9.383 l 0,-165.5015 c 0,-4.9603 4.1474,-9.1013 9.1014,-9.1013 4.9731,0 9.1013,4.141 9.1013,9.1013 m 195.0714,165.5015 c 0,4.9667 -4.141,9.383 -9.1014,9.383 -4.973,0 -9.1013,-4.4163 -9.1013,-9.383 l 0,-130.4657 -73.9311,133.2179 c -1.3761,4.1411 -4.6787,6.6308 -8.8261,6.6308 -4.9539,0 -9.3766,-4.4163 -9.3766,-9.383 l 0,-165.5015 c 0,-4.9603 4.4227,-9.1013 9.3766,-9.1013 4.9731,0 9.1078,4.141 9.1078,9.1013 l 0,129.6465 74.7503,-133.2243 c 1.3824,-3.5843 4.1346,-5.5235 8.0004,-5.5235 8.8262,0 9.1014,6.8996 9.1014,12.9735 l 0,161.6293"
         style="fill:#1c4f9c;fill-opacity:1;fill-rule:nonzero;stroke:none"
         id="path14-6"
         inkscape:connector-curvature="0" /><path
         d="m 386.13723,6367.6668 c 0,30.3378 -24.82715,55.165 -55.16504,55.165 l -36.68708,0 c -2.76497,0 -4.68509,-0.8256 -6.61802,-2.7585 -1.93291,-1.9329 -2.48334,-4.4099 -2.48334,-7.1685 l 0,-164.9446 c 0,-4.9668 4.14105,-9.1079 9.10136,-9.1079 4.96031,0 9.10136,4.1411 9.10136,9.1079 l 0,64.5417 27.58572,0 c 30.33789,0 55.16504,24.827 55.16504,55.1649 m -18.20273,0 c 0,-20.4109 -16.55783,-36.9622 -36.96231,-36.9622 l -27.58572,0 0,73.6493 27.58572,0 c 20.40448,0 36.96231,-16.5515 36.96231,-36.6871 m 188.70932,-82.7571 0,91.8584 c 0,27.861 -27.2977,46.0637 -55.15862,46.0637 -27.85454,0 -55.17143,-18.2027 -55.17143,-46.0637 l 0,-91.8584 c 0,-28.1235 27.31689,-46.0574 55.17143,-46.0574 27.86092,0 55.15862,17.9339 55.15862,46.0574 m -18.47154,0 c 0,-18.1964 -18.75317,-27.573 -36.68708,-27.573 -17.92752,0 -36.68068,9.3766 -36.68068,27.573 l 0,91.8584 c 0,17.9276 18.75316,27.5858 36.68068,27.5858 17.93391,0 36.68708,-9.6582 36.68708,-27.5858 l 0,-91.8584 z m 180.024,-36.9495 c 0,4.9603 -4.40348,9.3765 -9.3702,9.3765 l -64.26639,0 0,156.1186 c 0,4.9667 -4.14105,9.3765 -9.10136,9.3765 -4.97311,0 -9.38299,-4.4098 -9.38299,-9.3765 l 0,-165.4951 c 0,-2.7651 1.10727,-4.4163 2.75858,-6.3493 2.20174,-1.9265 3.86584,-2.7586 6.62441,-2.7586 l 73.36775,0 c 4.96672,0 9.3702,4.1411 9.3702,9.1079 m 155.74088,160.7972 c 2.75216,4.1474 1.36968,9.6646 -2.75857,12.4168 -4.14747,3.0401 -10.49026,1.6576 -13.24243,-2.477 l -47.44616,-71.4413 -47.99658,71.4413 c -2.75216,4.1346 -8.27571,5.7924 -12.67918,3.0338 -4.14746,-2.7585 -5.24193,-8.551 -2.48976,-12.692 l 54.07056,-80.8179 0,-80.2609 c 0,-4.9668 4.13467,-9.1079 9.09496,-9.1079 4.96672,0 9.37659,4.1411 9.37659,9.1079 l 0,80.2609 54.07057,80.5363 z m 167.70324,4.6979 c 0,4.9667 -4.1411,9.3765 -9.1077,9.3765 l -92.1274,0 c -4.96032,0 -9.10777,-4.4098 -9.10777,-9.3765 0,-4.9667 4.14745,-9.1014 9.10777,-9.1014 l 36.96229,0 0,-156.3937 c 0,-4.9668 4.14105,-9.1079 9.10137,-9.1079 4.96671,0 9.10136,4.1411 9.10136,9.1079 l 0,156.3937 36.96238,0 c 4.9666,0 9.1077,4.1347 9.1077,9.1014 m 158.0195,-165.4951 c 0,4.9603 -4.4164,9.3765 -9.3895,9.3765 l -64.2664,0 0,73.3679 55.1651,0 c 5.2483,0 9.1013,4.141 9.1013,9.3764 0,4.9668 -4.1282,9.1078 -9.3765,9.1078 l -54.8899,0 0,55.1651 64.2664,0 c 4.9731,0 9.3895,4.1347 9.3895,9.1014 0,4.9667 -4.4164,9.3765 -9.3895,9.3765 l -73.3678,0 c -2.7521,0 -4.9603,-0.2752 -6.8931,-2.208 -2.2017,-1.9266 -2.4769,-4.1347 -2.4769,-7.1685 l 0,-165.4951 c 0,-2.7651 0.5504,-4.6915 2.7521,-6.6245 1.9392,-2.2017 3.8658,-2.4834 6.6179,-2.4834 l 74.4815,0 c 4.6851,0 8.2758,4.4164 8.2758,9.1079 m 155.0368,0 c 0,4.9603 -4.1411,9.3765 -9.1015,9.3765 l -36.687,0 c -8.8197,0 -16.001,3.3091 -20.6797,8.2758 -5.517,6.0675 -6.8995,11.3095 -6.8995,19.2972 l 0,91.8584 c 0,8.551 2.2081,14.6186 8.826,20.686 5.5172,4.9669 11.028,6.8998 18.7532,6.8998 l 36.687,0 c 4.9604,0 9.1015,4.1347 9.1015,9.1014 0,4.9667 -4.1411,9.3765 -9.1015,9.3765 l -36.687,0 c -12.1351,0 -22.0685,-3.8593 -29.7939,-9.927 -9.3765,-7.45 -16.2633,-20.9677 -16.2633,-36.1367 l 0,-91.8584 c 0,-13.2297 3.5842,-22.6062 11.3094,-31.4387 7.719,-8.8263 20.1293,-14.6187 34.7478,-14.6187 l 36.687,0 c 4.9604,0 9.1015,4.1411 9.1015,9.1079 m 168.3624,0 0,165.4951 c 0,4.9667 -4.1346,9.3765 -9.0951,9.3765 -4.973,0 -9.1076,-4.4098 -9.1076,-9.3765 l 0,-64.2665 -64.5416,0 0,64.2665 c 0,4.9667 -4.141,9.3765 -9.1014,9.3765 -4.9731,0 -9.1014,-4.4098 -9.1014,-9.3765 l 0,-165.4951 c 0,-4.9668 4.1283,-9.1079 9.1014,-9.1079 4.9604,0 9.1014,4.1411 9.1014,9.1079 l 0,82.7444 64.5416,0 0,-82.7444 c 0,-4.9668 4.1346,-9.1079 9.1076,-9.1079 4.9605,0 9.0951,4.1411 9.0951,9.1079 m 175.0702,165.4951 c 0,4.9667 -4.1347,9.3765 -9.1015,9.3765 -4.9666,0 -9.1077,-4.4098 -9.1077,-9.3765 l 0,-130.4658 -73.9246,133.2244 c -1.3698,4.1346 -4.6787,6.6179 -8.8198,6.6179 -4.9603,0 -9.3765,-4.4098 -9.3765,-9.3765 l 0,-165.4951 c 0,-4.9668 4.4162,-9.1079 9.3765,-9.1079 4.9668,0 9.095,4.1411 9.095,9.1079 l 0,129.6336 74.7567,-133.2244 c 1.3825,-3.5841 4.141,-5.5171 8.0004,-5.5171 8.8263,0 9.1015,6.8997 9.1015,12.9673 l 0,161.6357 z m 102.6623,-165.4951 0,165.4951 c 0,4.9667 -4.1346,9.3765 -9.1077,9.3765 -4.9604,0 -9.1015,-4.4098 -9.1015,-9.3765 l 0,-165.4951 c 0,-4.9668 4.1411,-9.1079 9.1015,-9.1079 4.9731,0 9.1077,4.1411 9.1077,9.1079 m 211.0658,-5.7924 c 3.3026,4.1347 2.1954,10.7527 -1.9328,13.7864 l -19.5915,15.1754 c 1.6639,2.2017 2.7648,4.4099 3.5904,7.1684 0.8321,2.2082 1.1073,3.8595 1.1073,6.6117 l 0,91.8584 c 0,27.861 -27.3104,46.0637 -55.165,46.0637 -27.8609,0 -55.1714,-18.2027 -55.1714,-46.0637 l 0,-91.8584 c 0,-28.1235 27.3105,-46.6078 55.4466,-46.0574 16.5451,0.2817 27.5794,5.2419 38.8888,17.3771 l 19.3036,-15.9945 c 4.1411,-3.3154 10.4903,-2.2082 13.524,1.9329 m -35.3109,42.7419 c 0,-0.5441 -0.2755,-0.8193 -0.5504,-1.0946 0,-0.5504 -0.5505,-0.8256 -0.5505,-0.8256 l -11.86,9.3766 c -4.1409,3.3091 -10.759,3.3091 -14.0744,-0.8257 -3.3026,-4.141 -3.0274,-10.4838 1.1074,-13.7928 l 13.2422,-9.9334 c -7.1747,-7.1684 -13.524,-9.9271 -23.7198,-10.2023 -17.9274,-0.5569 -36.9622,9.1014 -36.9622,27.2978 l 0,91.8584 c 0,17.9276 18.7595,27.5858 36.687,27.5858 17.9212,0 36.6807,-9.6582 36.6807,-27.5858 l 0,-91.8584 z m 191.2312,9.1142 0,119.4314 c 0,4.9667 -4.4164,9.3765 -9.3768,9.3765 -4.9665,0 -9.1077,-4.4098 -9.1077,-9.3765 l 0,-119.4314 c 0,-20.1357 -16.5513,-36.6872 -36.6806,-36.6872 -20.4173,0 -36.9687,16.5515 -36.9687,36.6872 l 0,119.4314 c 0,4.9667 -4.1282,9.3765 -9.095,9.3765 -4.9602,0 -9.1014,-4.4098 -9.1014,-9.3765 l 0,-119.4314 c 0,-30.3443 24.8272,-55.1716 55.1651,-55.1716 30.3442,0 55.1651,24.8273 55.1651,55.1716 m 159.5107,-46.0637 c 0,4.9603 -4.4164,9.3765 -9.3767,9.3765 l -64.2663,0 0,73.3679 55.165,0 c 5.2355,0 9.1013,4.141 9.1013,9.3764 0,4.9668 -4.141,9.1078 -9.3765,9.1078 l -54.8898,0 0,55.1651 64.2663,0 c 4.9603,0 9.3767,4.1347 9.3767,9.1014 0,4.9667 -4.4164,9.3765 -9.3767,9.3765 l -73.3677,0 c -2.7651,0 -4.9668,-0.2752 -6.8997,-2.208 -2.208,-1.9266 -2.4897,-4.1347 -2.4897,-7.1685 l 0,-165.4951 c 0,-2.7651 0.5569,-4.6915 2.765,-6.6245 1.9328,-2.2017 3.8593,-2.4834 6.6244,-2.4834 l 74.4686,0 c 4.6915,0 8.2758,4.4164 8.2758,9.1079"
         style="fill:#1c4f9c;fill-opacity:1;fill-rule:nonzero;stroke:none"
         id="path16-3"
         inkscape:connector-curvature="0" /><path
         d="m 363.24299,6767.3396 c -1.93291,4.4164 -7.45005,6.8934 -11.85993,4.9669 l -34.75416,-14.3434 c -4.96671,-2.2081 -6.89963,-7.4501 -4.96671,-12.4169 1.65769,-4.685 8.55094,-6.3427 12.13515,-4.685 l 34.75417,14.8938 c 4.41627,2.2081 7.17484,6.6179 4.69148,11.5846 m 15.71939,-211.8339 c 0,4.9603 -4.40988,9.3765 -9.37658,9.3765 l -64.2664,0 0,73.3678 55.16503,0 c 5.24192,0 9.10137,4.1411 9.10137,9.3829 0,4.9603 -4.13466,9.1015 -9.37659,9.1015 l -54.88981,0 0,55.165 64.2664,0 c 4.9667,0 9.37658,4.1346 9.37658,9.1013 0,4.9669 -4.40988,9.3766 -9.37658,9.3766 l -73.36778,0 c -2.75856,0 -4.9667,-0.2753 -6.89962,-2.208 -2.20174,-1.9265 -2.47695,-4.1347 -2.47695,-7.1686 l 0,-165.495 c 0,-2.7586 0.55043,-4.6915 2.75857,-6.6244 1.92652,-2.2018 3.85944,-2.477 6.618,-2.477 l 74.47505,0 c 4.68508,0 8.26931,4.4099 8.26931,9.1014 m 155.04324,0 c 0,4.9603 -4.13466,9.3765 -9.10136,9.3765 l -36.6871,0 c -8.82614,0 -15.99459,3.309 -20.68608,8.2758 -5.51714,6.0675 -6.89322,11.3095 -6.89322,19.31 l 0,91.8456 c 0,8.5511 2.20813,14.6185 8.82614,20.6862 5.51716,4.9667 11.03429,6.8996 18.75316,6.8996 l 36.6871,0 c 4.9667,0 9.10136,4.1346 9.10136,9.1013 0,4.9669 -4.13466,9.3766 -9.10136,9.3766 l -36.6871,0 c -12.13514,0 -22.06216,-3.8593 -29.78744,-9.927 -9.37658,-7.4501 -16.27622,-20.9677 -16.27622,-36.1367 l 0,-91.8456 c 0,-13.2425 3.59063,-22.619 11.3095,-31.4452 7.72529,-8.8262 20.13566,-14.6185 34.75416,-14.6185 l 36.6871,0 c 4.9667,0 9.10136,4.1347 9.10136,9.1014 m 169.82176,36.9623 0,91.8456 c 0,27.861 -27.3041,46.0637 -55.15863,46.0637 -27.86094,0 -55.16503,-18.2027 -55.16503,-46.0637 l 0,-91.8456 c 0,-28.1362 27.30409,-46.0637 55.16503,-46.0637 27.85453,0 55.15863,17.9275 55.15863,46.0637 m -18.47795,0 c 0,-18.2091 -18.75318,-27.5858 -36.68068,-27.5858 -17.93392,0 -36.68708,9.3767 -36.68708,27.5858 l 0,91.8456 c 0,17.9276 18.75316,27.5858 36.68708,27.5858 17.9275,0 36.68068,-9.6582 36.68068,-27.5858 l 0,-91.8456 z m 180.03679,-36.9623 c 0,4.9603 -4.41627,9.3765 -9.38298,9.3765 l -64.26639,0 0,156.1185 c 0,4.9669 -4.13466,9.3766 -9.10138,9.3766 -4.9667,0 -9.37658,-4.4097 -9.37658,-9.3766 l 0,-165.495 c 0,-2.7586 1.10087,-4.4163 2.75858,-6.3428 2.20174,-1.9329 3.85944,-2.7586 6.618,-2.7586 l 73.36777,0 c 4.96671,0 9.38298,4.1347 9.38298,9.1014 m 158.70438,0 c 0,4.9603 -4.4099,9.3765 -9.3767,9.3765 l -64.26639,0 0,73.3678 55.16509,0 c 5.2419,0 9.1013,4.1411 9.1013,9.3829 0,4.9603 -4.1346,9.1015 -9.3766,9.1015 l -54.88979,0 0,55.165 64.26639,0 c 4.9668,0 9.3767,4.1346 9.3767,9.1013 0,4.9669 -4.4099,9.3766 -9.3767,9.3766 l -73.36775,0 c -2.75858,0 -4.97311,-0.2753 -6.89323,-2.208 -2.20813,-1.9265 -2.48335,-4.1347 -2.48335,-7.1686 l 0,-165.495 c 0,-2.7586 0.55043,-4.6915 2.75857,-6.6244 1.92011,-2.2018 3.85943,-2.477 6.61801,-2.477 l 74.46855,0 c 4.6916,0 8.2759,4.4099 8.2759,9.1014"
         style="fill:#1c4f9c;fill-opacity:1;fill-rule:nonzero;stroke:none"
         id="path18-1"
         inkscape:connector-curvature="0" /></g></g></svg>