<?xml version="1.0" encoding="UTF-8" standalone="no"?>
<!-- Created with Inkscape (http://www.inkscape.org/) -->

<svg
   xmlns:dc="http://purl.org/dc/elements/1.1/"
   xmlns:cc="http://creativecommons.org/ns#"
   xmlns:rdf="http://www.w3.org/1999/02/22-rdf-syntax-ns#"
   xmlns:svg="http://www.w3.org/2000/svg"
   xmlns="http://www.w3.org/2000/svg"
   xmlns:sodipodi="http://sodipodi.sourceforge.net/DTD/sodipodi-0.dtd"
   xmlns:inkscape="http://www.inkscape.org/namespaces/inkscape"
   id="svg3004"
   version="1.1"
   inkscape:version="0.48.4 r9939"
   width="256"
   height="354.325"
   xml:space="preserve"
   sodipodi:docname="ucl_bw.eps"><metadata
     id="metadata3010"><rdf:RDF><cc:Work
         rdf:about=""><dc:format>image/svg+xml</dc:format><dc:type
           rdf:resource="http://purl.org/dc/dcmitype/StillImage" /><dc:title></dc:title></cc:Work></rdf:RDF></metadata><defs
     id="defs3008" /><sodipodi:namedview
     pagecolor="#ffffff"
     bordercolor="#666666"
     borderopacity="1"
     objecttolerance="10"
     gridtolerance="10"
     guidetolerance="10"
     inkscape:pageopacity="0"
     inkscape:pageshadow="2"
     inkscape:window-width="1920"
     inkscape:window-height="1019"
     id="namedview3006"
     showgrid="false"
     inkscape:zoom="1.6703545"
     inkscape:cx="268.64264"
     inkscape:cy="165.61861"
     inkscape:window-x="0"
     inkscape:window-y="33"
     inkscape:window-maximized="1"
     inkscape:current-layer="g3012" /><g
     id="g3012"
     inkscape:groupmode="layer"
     inkscape:label="ink_ext_XXXXXX"
     transform="matrix(1.25,0,0,-1.25,0,354.325)"><g
       id="g3014"
       transform="scale(0.1,0.1)"><path
         d="m 18.6133,1444.58 60.914,0 0,-175.31 c 0,-51.77 16.5235,-85.7 63.0777,-85.7 46.543,0 63.083,33.93 63.083,85.7 l 0,175.31 60.898,0 0,-194.03 c 0,-81.35 -46.113,-114.85 -123.981,-114.85 -77.8745,0 -123.9917,33.5 -123.9917,114.85 l 0,194.03"
         style="fill:#000000;fill-opacity:1;fill-rule:nonzero;stroke:none"
         id="path3016" /><path
         d="m 323.129,1364.97 55.254,0 0,-30.45 0.871,0 c 18.266,25.68 43.066,35.68 73.519,35.68 53.079,0 76.129,-37.43 76.129,-87.89 l 0,-141.39 -58.297,0 0,119.64 c 0,27.42 -0.433,64.39 -37.839,64.39 -42.203,0 -51.336,-45.68 -51.336,-74.4 l 0,-109.63 -58.301,0 0,224.05"
         style="fill:#000000;fill-opacity:1;fill-rule:nonzero;stroke:none"
         id="path3018" /><path
         d="m 593.715,1140.92 58.3008,0 0,224.047 -58.3008,0 0,-224.047 z"
         style="fill:#000000;fill-opacity:1;fill-rule:nonzero;stroke:none"
         id="path3020" /><path
         d="m 593.715,1405.87 58.3008,0 0,55.6797 -58.3008,0 0,-55.6797 z"
         style="fill:#000000;fill-opacity:1;fill-rule:nonzero;stroke:none"
         id="path3022" /><path
         d="m 691.645,1364.97 62.648,0 55.684,-163.14 0.875,0 53.937,163.14 58.297,0 -82.656,-224.05 -65.688,0 -83.097,224.05"
         style="fill:#000000;fill-opacity:1;fill-rule:nonzero;stroke:none"
         id="path3024" /><path
         d="m 1051.44,1327.56 c 32.62,0 45.67,-24.37 47.42,-52.64 l -99.196,0 c 2.616,30.02 19.146,52.64 51.776,52.64 z m -51.776,-92.66 154.876,0 c 0,78.31 -23.5,135.3 -106.59,135.3 -69.61,0 -103.97,-53.51 -103.97,-118.34 0,-73.52 43.071,-116.16 117.03,-116.16 31.31,0 55.68,6.1 76.99,17.85 l 0,47.41 c -21.74,-12.18 -46.11,-22.62 -74.39,-22.62 -36.11,0 -61.33,20.45 -63.946,56.56"
         style="fill:#000000;fill-opacity:1;fill-rule:nonzero;stroke:none"
         id="path3026" /><path
         d="m 1196.39,1364.97 51.77,0 0,-50.9 0.87,0 c 2.61,20.89 26.54,56.13 61.35,56.13 5.65,0 11.73,0 17.83,-1.74 l 0,-58.73 c -5.22,3.04 -15.67,4.78 -26.11,4.78 -47.42,0 -47.42,-59.17 -47.42,-91.36 l 0,-82.23 -58.29,0 0,224.05"
         style="fill:#000000;fill-opacity:1;fill-rule:nonzero;stroke:none"
         id="path3028" /><path
         d="m 1502.58,1317.99 c -17.83,6.09 -30.89,9.57 -52.2,9.57 -15.67,0 -34.36,-5.65 -34.36,-24.8 0,-35.67 101.35,-13.04 101.35,-93.96 0,-52.22 -46.54,-73.1 -93.97,-73.1 -22.18,0 -44.8,3.92 -66.12,9.58 l 3.48,47.85 c 18.27,-9.13 37.41,-14.79 57.42,-14.79 14.8,0 38.28,5.66 38.28,27.41 0,43.93 -101.36,13.91 -101.36,94.84 0,48.28 42.2,69.61 87.88,69.61 27.42,0 45.24,-4.35 63.52,-8.27 l -3.92,-43.94"
         style="fill:#000000;fill-opacity:1;fill-rule:nonzero;stroke:none"
         id="path3030" /><path
         d="m 1558.78,1140.92 58.2969,0 0,224.047 -58.2969,0 0,-224.047 z"
         style="fill:#000000;fill-opacity:1;fill-rule:nonzero;stroke:none"
         id="path3032" /><path
         d="m 1558.78,1405.87 58.2969,0 0,55.6797 -58.2969,0 0,-55.6797 z"
         style="fill:#000000;fill-opacity:1;fill-rule:nonzero;stroke:none"
         id="path3034" /><path
         d="m 1702.71,1322.34 -43.06,0 0,42.63 43.06,0 0,44.81 58.3,18.7 0,-63.51 51.76,0 0,-42.63 -51.76,0 0,-104.41 c 0,-19.14 5.22,-36.97 27.4,-36.97 10.44,0 20.45,2.16 26.54,6.08 l 1.73,-46.12 c -12.17,-3.47 -25.66,-5.22 -43.06,-5.22 -45.68,0 -70.91,28.29 -70.91,72.66 l 0,113.98"
         style="fill:#000000;fill-opacity:1;fill-rule:nonzero;stroke:none"
         id="path3036" /><path
         d="m 1940.75,1327.56 c 32.63,0 45.69,-24.37 47.43,-52.64 l -99.19,0 c 2.61,30.02 19.14,52.64 51.76,52.64 z m -51.76,-92.66 154.87,0 c 0,78.31 -23.48,135.3 -106.58,135.3 -69.61,0 -103.97,-53.51 -103.97,-118.34 0,-73.52 43.06,-116.16 117.02,-116.16 31.32,0 55.68,6.1 76.99,17.85 l 0,47.41 c -21.74,-12.18 -46.11,-22.62 -74.38,-22.62 -36.1,0 -61.34,20.45 -63.95,56.56"
         style="fill:#000000;fill-opacity:1;fill-rule:nonzero;stroke:none"
         id="path3038" /><path
         d="m 1942.49,1458.94 59.61,0 -59.61,-63.51 -36.1,0 36.1,63.51"
         style="fill:#000000;fill-opacity:1;fill-rule:nonzero;stroke:none"
         id="path3040" /><path
         d="m 154.871,868.211 c -10.129,4.789 -21.098,8.277 -38.394,8.277 -35.0317,0 -57.395,-28.718 -57.395,-70.918 0,-41.332 18.9883,-73.082 58.656,-73.082 16.035,0 33.754,6.094 43.461,10.434 l 2.535,-48.293 c -16.461,-5.207 -33.343,-7.391 -56.55,-7.391 C 35.8672,687.238 0,737.27 0,805.57 c 0,64.828 37.1328,116.16 105.078,116.16 22.777,0 39.242,-2.609 54.856,-7.402 l -5.063,-46.117"
         style="fill:#000000;fill-opacity:1;fill-rule:nonzero;stroke:none"
         id="path3042" /><path
         d="m 316.914,749.879 c -8.855,-12.18 -22.367,-20.008 -39.656,-20.008 -20.266,0 -35.879,8.27 -35.879,27.418 0,34.359 37.551,38.711 62.875,38.711 l 24.48,0 c 0,-17.398 -2.535,-33.5 -11.82,-46.121 z m 64.145,-7.391 c -0.418,16.532 -0.84,33.5 -0.84,56.121 l 0,28.719 c 0,66.121 -27.426,94.402 -93.688,94.402 -24.051,0 -53.593,-6.519 -75.535,-16.968 l 1.692,-50.032 c 18.984,14.801 43.035,24.36 67.093,24.36 33.344,0 48.953,-12.168 48.953,-48.281 l -31.222,0 c -23.641,0 -51.489,-2.18 -73.016,-13.047 -21.523,-10.883 -37.133,-30.461 -37.133,-63.961 0,-42.629 37.563,-66.563 75.961,-66.563 25.742,0 54.02,13.922 67.102,38.711 l 0.836,0 c 0.426,-6.949 0.426,-21.75 2.531,-33.488 l 49.801,0 c -1.27,17.398 -2.114,33.059 -2.535,50.027"
         style="fill:#000000;fill-opacity:1;fill-rule:nonzero;stroke:none"
         id="path3044" /><path
         d="m 439.641,873.871 -41.774,0 0,42.629 41.774,0 0,44.82 56.55,18.7 0,-63.52 50.215,0 0,-42.629 -50.215,0 0,-104.41 c 0,-19.141 5.071,-36.973 26.586,-36.973 10.129,0 19.836,2.16 25.743,6.094 l 1.683,-46.121 c -11.808,-3.473 -24.898,-5.223 -41.769,-5.223 -44.313,0 -68.793,28.282 -68.793,72.653 l 0,113.98"
         style="fill:#000000;fill-opacity:1;fill-rule:nonzero;stroke:none"
         id="path3046" /><path
         d="m 593.367,1018.74 56.555,0 0,-132.681 0.844,0 c 14.347,21.742 38.824,35.671 68.355,35.671 51.484,0 73.852,-37.421 73.852,-87.878 l 0,-141.391 -56.543,0 0,119.629 c 0,27.422 -0.43,64.398 -36.711,64.398 -40.942,0 -49.797,-45.679 -49.797,-74.398 l 0,-109.629 -56.555,0 0,326.279"
         style="fill:#000000;fill-opacity:1;fill-rule:nonzero;stroke:none"
         id="path3048" /><path
         d="m 944.195,732.488 c -43.043,0 -54.445,40.461 -54.445,77.43 0,33.492 17.73,66.57 54.445,66.57 37.129,0 54.86,-32.199 54.86,-66.57 0,-37.406 -11.399,-77.43 -54.86,-77.43 z m 0,189.242 c -64.14,0 -113.519,-44.808 -113.519,-118.761 0,-64.387 41.773,-115.731 113.519,-115.731 72.155,0 113.935,51.344 113.935,115.731 0,73.953 -49.37,118.761 -113.935,118.761"
         style="fill:#000000;fill-opacity:1;fill-rule:nonzero;stroke:none"
         id="path3050" /><path
         d="m 1108.82,692.461 56.5508,0 0,326.277 -56.5508,0 0,-326.277 z"
         style="fill:#000000;fill-opacity:1;fill-rule:nonzero;stroke:none"
         id="path3052" /><path
         d="m 1223.19,692.461 56.5586,0 0,224.039 -56.5586,0 0,-224.039 z"
         style="fill:#000000;fill-opacity:1;fill-rule:nonzero;stroke:none"
         id="path3054" /><path
         d="m 1223.19,957.398 56.5586,0 0,55.6914 -56.5586,0 0,-55.6914 z"
         style="fill:#000000;fill-opacity:1;fill-rule:nonzero;stroke:none"
         id="path3056" /><path
         d="m 1434.32,732.488 c -37.13,0 -47.68,41.762 -47.68,72.641 0,30.031 10.13,71.359 46.83,71.359 36.3,0 50.64,-40.019 50.64,-71.359 0,-31.75 -12.23,-72.641 -49.79,-72.641 z m 52.75,184.012 0,-31.75 -0.85,0 c -13.5,23.051 -34.17,36.98 -66.25,36.98 -67.94,0 -92.42,-54.808 -92.42,-116.601 0,-61.32 24.48,-117.891 92.42,-117.891 24.06,0 43.89,6.102 63.73,30.891 l 0.84,0 0,-117.02 56.54,0 0,315.391 -54.01,0"
         style="fill:#000000;fill-opacity:1;fill-rule:nonzero;stroke:none"
         id="path3058" /><path
         d="m 1801.1,692.461 -53.59,0 0,30.461 -0.85,0 c -17.31,-21.762 -41.77,-35.684 -71.31,-35.684 -51.49,0 -73.86,37.41 -73.86,87.883 l 0,141.379 56.55,0 0,-119.629 c 0,-27.41 0.43,-64.383 36.72,-64.383 40.93,0 49.8,45.684 49.8,74.391 l 0,109.621 56.54,0 0,-224.039"
         style="fill:#000000;fill-opacity:1;fill-rule:nonzero;stroke:none"
         id="path3060" /><path
         d="m 1943.78,879.09 c 31.65,0 44.31,-24.36 45.99,-52.629 l -96.21,0 c 2.53,30.019 18.57,52.629 50.22,52.629 z m -50.22,-92.66 150.24,0 c 0,78.308 -22.79,135.3 -103.39,135.3 -67.53,0 -100.85,-53.519 -100.85,-118.332 0,-73.527 41.76,-116.16 113.51,-116.16 30.39,0 54.01,6.102 74.68,17.832 l 0,47.43 c -21.09,-12.18 -44.72,-22.629 -72.15,-22.629 -35.03,0 -59.51,20.449 -62.04,56.559"
         style="fill:#000000;fill-opacity:1;fill-rule:nonzero;stroke:none"
         id="path3062" /><path
         d="m 107.148,284.051 c -37.1441,0 -47.691,41.769 -47.691,72.64 0,30.028 10.1289,71.36 46.844,71.36 36.289,0 50.633,-40.031 50.633,-71.36 0,-31.75 -12.231,-72.64 -49.786,-72.64 z m 50.215,286.25 0,-128.332 -0.847,0 c -16.883,21.32 -36.715,31.32 -64.9808,31.32 -66.6836,0 -91.156294,-54.809 -91.156294,-116.598 0,-61.332 24.472694,-117.89 91.156294,-117.89 26.5778,0 49.7808,8.699 66.6678,30.449 l 0.844,0 0,-25.219 54.859,0 0,326.27 -56.543,0"
         style="fill:#000000;fill-opacity:1;fill-rule:nonzero;stroke:none"
         id="path3064" /><path
         d="m 363.477,430.66 c 31.66,0 44.312,-24.359 46.003,-52.648 l -96.218,0 c 2.535,30.019 18.57,52.648 50.215,52.648 z m -50.215,-92.672 150.23,0 c 0,78.321 -22.777,135.301 -103.387,135.301 -67.515,0 -100.859,-53.508 -100.859,-118.328 0,-73.531 41.785,-116.16 113.524,-116.16 30.378,0 54.011,6.09 74.687,17.84 l 0,47.418 c -21.094,-12.18 -44.727,-22.629 -72.152,-22.629 -35.032,0 -59.508,20.449 -62.043,56.558"
         style="fill:#000000;fill-opacity:1;fill-rule:nonzero;stroke:none"
         id="path3066" /><path
         d="m 570.691,547.691 59.082,0 0,-255.812 114.364,0 0,-47.848 -173.446,0 0,303.66"
         style="fill:#000000;fill-opacity:1;fill-rule:nonzero;stroke:none"
         id="path3068" /><path
         d="m 866.57,284.051 c -43.039,0 -54.437,40.461 -54.437,77.437 0,33.492 17.73,66.563 54.437,66.563 37.137,0 54.868,-32.192 54.868,-66.563 0,-37.418 -11.395,-77.437 -54.868,-77.437 z m 0,189.238 c -64.132,0 -113.507,-44.809 -113.507,-118.769 0,-64.391 41.773,-115.719 113.507,-115.719 72.164,0 113.942,51.328 113.942,115.719 0,73.96 -49.367,118.769 -113.942,118.769"
         style="fill:#000000;fill-opacity:1;fill-rule:nonzero;stroke:none"
         id="path3070" /><path
         d="m 1221.6,244.031 -53.6,0 0,30.438 -0.85,0 c -17.3,-21.75 -41.77,-35.668 -71.31,-35.668 -51.48,0 -73.84,37.41 -73.84,87.879 l 0,141.39 56.54,0 0,-119.629 c 0,-27.41 0.42,-64.39 36.71,-64.39 40.94,0 49.8,45.679 49.8,74.39 l 0,109.629 56.55,0 0,-224.039"
         style="fill:#000000;fill-opacity:1;fill-rule:nonzero;stroke:none"
         id="path3072" /><path
         d="m 1253.01,468.07 60.77,0 54.02,-163.14 0.84,0 52.33,163.14 56.55,0 -80.18,-224.039 -63.71,0 -80.62,224.039"
         style="fill:#000000;fill-opacity:1;fill-rule:nonzero;stroke:none"
         id="path3074" /><path
         d="m 1607.62,301.449 c -8.86,-12.179 -22.37,-20.019 -39.67,-20.019 -20.25,0 -35.87,8.269 -35.87,27.41 0,34.371 37.56,38.73 62.87,38.73 l 24.49,0 c 0,-17.41 -2.54,-33.5 -11.82,-46.121 z m 64.15,-7.398 c -0.43,16.527 -0.85,33.508 -0.85,56.121 l 0,28.707 c 0,66.133 -27.43,94.41 -93.69,94.41 -24.04,0 -53.58,-6.527 -75.54,-16.961 l 1.69,-50.027 c 19.01,14.789 43.06,24.359 67.11,24.359 33.33,0 48.95,-12.18 48.95,-48.301 l -31.23,0 c -23.63,0 -51.48,-2.168 -73,-13.039 -21.52,-10.879 -37.14,-30.449 -37.14,-63.949 0,-42.641 37.56,-66.57 75.96,-66.57 25.74,0 54.01,13.918 67.09,38.719 l 0.85,0 c 0.42,-6.961 0.42,-21.75 2.53,-33.489 l 49.79,0 c -1.27,17.399 -2.1,33.047 -2.52,50.02"
         style="fill:#000000;fill-opacity:1;fill-rule:nonzero;stroke:none"
         id="path3076" /><path
         d="m 1724.04,244.031 56.5508,0 0,224.039 -56.5508,0 0,-224.039 z"
         style="fill:#000000;fill-opacity:1;fill-rule:nonzero;stroke:none"
         id="path3078" /><path
         d="m 1724.04,508.969 56.5508,0 0,55.6797 -56.5508,0 0,-55.6797 z"
         style="fill:#000000;fill-opacity:1;fill-rule:nonzero;stroke:none"
         id="path3080" /><path
         d="m 1848.19,468.07 53.59,0 0,-30.461 0.84,0 c 17.73,25.68 41.78,35.68 71.33,35.68 51.47,0 73.84,-37.418 73.84,-87.879 l 0,-141.379 -56.54,0 0,119.629 c 0,27.41 -0.43,64.391 -36.72,64.391 -40.93,0 -49.8,-45.692 -49.8,-74.403 l 0,-109.617 -56.54,0 0,224.039"
         style="fill:#000000;fill-opacity:1;fill-rule:nonzero;stroke:none"
         id="path3082" /><path
         d="m 673.406,2127.78 c 0,-203.57 -132.16,-295.23 -326.14,-295.23 -193.965,0 -326.1293,91.66 -326.1293,295.23 l 0,461.49 198.2423,0 0,-428.45 c 0,-98.06 26.637,-181.19 127.887,-181.19 101.257,0 127.906,83.13 127.906,181.19 l 0,428.45 198.234,0 0,-461.49"
         style="fill:#000000;fill-opacity:1;fill-rule:nonzero;stroke:none"
         id="path3084" /><path
         d="m 1420.46,1859.48 c -56.49,-13.85 -119.37,-29.83 -220.62,-29.83 -198.24,0 -427.395,100.19 -427.395,381.55 0,258.99 181.2,387.95 426.325,387.95 75.67,0 149.21,-17.05 220.61,-38.37 l -15.97,-160.94 c -63.95,35.18 -125.77,52.23 -193.98,52.23 -140.68,0 -232.34,-102.31 -232.34,-240.87 0,-146.02 103.37,-234.47 248.32,-234.47 65.02,0 131.1,17.05 185.45,38.37 l 9.6,-155.62"
         style="fill:#000000;fill-opacity:1;fill-rule:nonzero;stroke:none"
         id="path3086" /><path
         d="m 1542.86,2588.08 198.24,0 0,-596.85 306.95,0 0,-147.09 -505.19,0 0,743.94"
         style="fill:#000000;fill-opacity:1;fill-rule:nonzero;stroke:none"
         id="path3088" /><path
         d="m 11.8594,2816.53 2030.74,0 0,18.1172 -2030.74,0 0,-18.1172 z"
         style="fill:#000000;fill-opacity:1;fill-rule:nonzero;stroke:none"
         id="path3090" /><path
         d="m 11.8594,0 2030.74,0 0,18.1289 -2030.74,0 0,-18.1289 z"
         style="fill:#000000;fill-opacity:1;fill-rule:nonzero;stroke:none"
         id="path3092" /><path
         d="m 11.8594,1597.12 2030.74,0 0,18.1406 -2030.74,0 0,-18.1406 z"
         style="fill:#000000;fill-opacity:1;fill-rule:nonzero;stroke:#000000"
         id="path3094" /></g></g></svg>