<?xml version="1.0" encoding="UTF-8"?><svg xmlns="http://www.w3.org/2000/svg" xmlns:xlink="http://www.w3.org/1999/xlink" fill-opacity="1" color-rendering="auto" color-interpolation="auto" stroke="black" text-rendering="auto" stroke-linecap="square" width="1141" stroke-miterlimit="10" stroke-opacity="1" shape-rendering="auto" fill="black" stroke-dasharray="none" font-weight="normal" stroke-width="1" height="480" font-family="'Dialog'" font-style="normal" stroke-linejoin="miter" font-size="12" stroke-dashoffset="0" image-rendering="auto">
  <!--Generated by ySVG-->
  <defs id="genericDefs"/>
  <g>
    <defs id="defs1">
      <clipPath clipPathUnits="userSpaceOnUse" id="clipPath1">
        <path d="M0 0 L1141 0 L1141 480 L0 480 L0 0 Z"/>
      </clipPath>
      <clipPath clipPathUnits="userSpaceOnUse" id="clipPath2">
        <path d="M-1 810 L1140 810 L1140 1290 L-1 1290 L-1 810 Z"/>
      </clipPath>
    </defs>
    <g fill="white" transform="translate(1,-810)" stroke="white">
      <rect x="-1" width="1141" height="480" y="810" clip-path="url(#clipPath2)" stroke="none"/>
    </g>
    <g fill="rgb(51,102,255)" transform="matrix(1,0,0,1,1,-810)" stroke="rgb(51,102,255)">
      <circle r="15" clip-path="url(#clipPath2)" cx="270" cy="1260" stroke="none"/>
    </g>
    <g stroke-miterlimit="1.45" font-family="sans-serif" transform="matrix(1,0,0,1,1,-810)" stroke-linecap="butt">
      <text x="265.4883" xml:space="preserve" y="1264.1543" clip-path="url(#clipPath2)" stroke="none">H</text>
      <circle fill="none" r="15" clip-path="url(#clipPath2)" cx="270" cy="1260"/>
    </g>
    <g fill="rgb(51,102,255)" transform="matrix(1,0,0,1,1,-810)" stroke="rgb(51,102,255)">
      <circle r="15" clip-path="url(#clipPath2)" cx="180" cy="1260" stroke="none"/>
    </g>
    <g stroke-miterlimit="1.45" font-family="sans-serif" transform="matrix(1,0,0,1,1,-810)" stroke-linecap="butt">
      <text x="176.5488" xml:space="preserve" y="1264.1543" clip-path="url(#clipPath2)" stroke="none">F</text>
      <circle fill="none" r="15" clip-path="url(#clipPath2)" cx="180" cy="1260"/>
      <text x="85.3799" xml:space="preserve" y="1234.1543" clip-path="url(#clipPath2)" stroke="none">D</text>
      <circle fill="none" r="15" clip-path="url(#clipPath2)" cx="90" cy="1230"/>
    </g>
    <g fill="rgb(51,102,255)" transform="matrix(1,0,0,1,1,-810)" stroke="rgb(51,102,255)">
      <circle r="15" clip-path="url(#clipPath2)" cx="30" cy="1260" stroke="none"/>
    </g>
    <g stroke-miterlimit="1.45" font-family="sans-serif" transform="matrix(1,0,0,1,1,-810)" stroke-linecap="butt">
      <text x="25.8105" xml:space="preserve" y="1264.1543" clip-path="url(#clipPath2)" stroke="none">C</text>
      <circle fill="none" r="15" clip-path="url(#clipPath2)" cx="30" cy="1260"/>
      <text x="146.209" xml:space="preserve" y="1174.1543" clip-path="url(#clipPath2)" stroke="none">E</text>
      <circle fill="none" r="15" clip-path="url(#clipPath2)" cx="150" cy="1170"/>
      <text x="235.3506" xml:space="preserve" y="1174.1543" clip-path="url(#clipPath2)" stroke="none">G</text>
      <circle fill="none" r="15" clip-path="url(#clipPath2)" cx="240" cy="1170"/>
      <text x="55.8838" xml:space="preserve" y="1144.1543" clip-path="url(#clipPath2)" stroke="none">B</text>
      <circle fill="none" r="15" clip-path="url(#clipPath2)" cx="60" cy="1140"/>
    </g>
    <g fill="rgb(51,153,102)" transform="matrix(1,0,0,1,1,-810)" stroke="rgb(51,153,102)">
      <circle r="15" clip-path="url(#clipPath2)" cx="150" cy="1080" stroke="none"/>
    </g>
    <g stroke-miterlimit="1.45" font-family="sans-serif" transform="matrix(1,0,0,1,1,-810)" stroke-linecap="butt">
      <text x="145.8955" xml:space="preserve" y="1084.1543" clip-path="url(#clipPath2)" stroke="none">A</text>
      <circle fill="none" r="15" clip-path="url(#clipPath2)" cx="150" cy="1080"/>
    </g>
    <g fill="rgb(51,102,255)" transform="matrix(1,0,0,1,1,-810)" stroke="rgb(51,102,255)">
      <circle r="15" clip-path="url(#clipPath2)" cx="1110" cy="1260" stroke="none"/>
    </g>
    <g stroke-miterlimit="1.45" font-family="sans-serif" transform="matrix(1,0,0,1,1,-810)" stroke-linecap="butt">
      <text x="1105.4883" xml:space="preserve" y="1264.1543" clip-path="url(#clipPath2)" stroke="none">H</text>
      <circle fill="none" r="15" clip-path="url(#clipPath2)" cx="1110" cy="1260"/>
    </g>
    <g fill="rgb(51,102,255)" transform="matrix(1,0,0,1,1,-810)" stroke="rgb(51,102,255)">
      <circle r="15" clip-path="url(#clipPath2)" cx="1020" cy="1260" stroke="none"/>
    </g>
    <g stroke-miterlimit="1.45" font-family="sans-serif" transform="matrix(1,0,0,1,1,-810)" stroke-linecap="butt">
      <text x="1016.5488" xml:space="preserve" y="1264.1543" clip-path="url(#clipPath2)" stroke="none">F</text>
      <circle fill="none" r="15" clip-path="url(#clipPath2)" cx="1020" cy="1260"/>
    </g>
    <g fill="rgb(51,102,255)" transform="matrix(1,0,0,1,1,-810)" stroke="rgb(51,102,255)">
      <circle r="15" clip-path="url(#clipPath2)" cx="930" cy="1230" stroke="none"/>
    </g>
    <g stroke-miterlimit="1.45" font-family="sans-serif" transform="matrix(1,0,0,1,1,-810)" stroke-linecap="butt">
      <text x="925.3799" xml:space="preserve" y="1234.1543" clip-path="url(#clipPath2)" stroke="none">D</text>
      <circle fill="none" r="15" clip-path="url(#clipPath2)" cx="930" cy="1230"/>
    </g>
    <g fill="rgb(51,102,255)" transform="matrix(1,0,0,1,1,-810)" stroke="rgb(51,102,255)">
      <circle r="15" clip-path="url(#clipPath2)" cx="870" cy="1260" stroke="none"/>
    </g>
    <g stroke-miterlimit="1.45" font-family="sans-serif" transform="matrix(1,0,0,1,1,-810)" stroke-linecap="butt">
      <text x="865.8105" xml:space="preserve" y="1264.1543" clip-path="url(#clipPath2)" stroke="none">C</text>
      <circle fill="none" r="15" clip-path="url(#clipPath2)" cx="870" cy="1260"/>
      <text x="986.209" xml:space="preserve" y="1174.1543" clip-path="url(#clipPath2)" stroke="none">E</text>
      <circle fill="none" r="15" clip-path="url(#clipPath2)" cx="990" cy="1170"/>
    </g>
    <g fill="rgb(51,102,255)" transform="matrix(1,0,0,1,1,-810)" stroke="rgb(51,102,255)">
      <circle r="15" clip-path="url(#clipPath2)" cx="1080" cy="1170" stroke="none"/>
    </g>
    <g stroke-miterlimit="1.45" font-family="sans-serif" transform="matrix(1,0,0,1,1,-810)" stroke-linecap="butt">
      <text x="1075.3506" xml:space="preserve" y="1174.1543" clip-path="url(#clipPath2)" stroke="none">G</text>
      <circle fill="none" r="15" clip-path="url(#clipPath2)" cx="1080" cy="1170"/>
      <text x="895.8838" xml:space="preserve" y="1144.1543" clip-path="url(#clipPath2)" stroke="none">B</text>
      <circle fill="none" r="15" clip-path="url(#clipPath2)" cx="900" cy="1140"/>
    </g>
    <g fill="rgb(51,153,102)" transform="matrix(1,0,0,1,1,-810)" stroke="rgb(51,153,102)">
      <circle r="15" clip-path="url(#clipPath2)" cx="990" cy="1080" stroke="none"/>
    </g>
    <g stroke-miterlimit="1.45" font-family="sans-serif" transform="matrix(1,0,0,1,1,-810)" stroke-linecap="butt">
      <text x="985.8955" xml:space="preserve" y="1084.1543" clip-path="url(#clipPath2)" stroke="none">A</text>
      <circle fill="none" r="15" clip-path="url(#clipPath2)" cx="990" cy="1080"/>
    </g>
    <g fill="rgb(51,102,255)" transform="matrix(1,0,0,1,1,-810)" stroke="rgb(51,102,255)">
      <circle r="15" clip-path="url(#clipPath2)" cx="270" cy="1020" stroke="none"/>
    </g>
    <g stroke-miterlimit="1.45" font-family="sans-serif" transform="matrix(1,0,0,1,1,-810)" stroke-linecap="butt">
      <text x="265.4883" xml:space="preserve" y="1024.1543" clip-path="url(#clipPath2)" stroke="none">H</text>
      <circle fill="none" r="15" clip-path="url(#clipPath2)" cx="270" cy="1020"/>
    </g>
    <g fill="rgb(51,102,255)" transform="matrix(1,0,0,1,1,-810)" stroke="rgb(51,102,255)">
      <circle r="15" clip-path="url(#clipPath2)" cx="180" cy="1020" stroke="none"/>
    </g>
    <g stroke-miterlimit="1.45" font-family="sans-serif" transform="matrix(1,0,0,1,1,-810)" stroke-linecap="butt">
      <text x="176.5488" xml:space="preserve" y="1024.1543" clip-path="url(#clipPath2)" stroke="none">F</text>
      <circle fill="none" r="15" clip-path="url(#clipPath2)" cx="180" cy="1020"/>
    </g>
    <g fill="rgb(51,102,255)" transform="matrix(1,0,0,1,1,-810)" stroke="rgb(51,102,255)">
      <circle r="15" clip-path="url(#clipPath2)" cx="90" cy="990" stroke="none"/>
    </g>
    <g stroke-miterlimit="1.45" font-family="sans-serif" transform="matrix(1,0,0,1,1,-810)" stroke-linecap="butt">
      <text x="85.3799" xml:space="preserve" y="994.1543" clip-path="url(#clipPath2)" stroke="none">D</text>
      <circle fill="none" r="15" clip-path="url(#clipPath2)" cx="90" cy="990"/>
      <text x="25.8105" xml:space="preserve" y="1024.1543" clip-path="url(#clipPath2)" stroke="none">C</text>
      <circle fill="none" r="15" clip-path="url(#clipPath2)" cx="30" cy="1020"/>
      <text x="146.209" xml:space="preserve" y="934.1543" clip-path="url(#clipPath2)" stroke="none">E</text>
      <circle fill="none" r="15" clip-path="url(#clipPath2)" cx="150" cy="930"/>
      <text x="235.3506" xml:space="preserve" y="934.1543" clip-path="url(#clipPath2)" stroke="none">G</text>
      <circle fill="none" r="15" clip-path="url(#clipPath2)" cx="240" cy="930"/>
      <text x="55.8838" xml:space="preserve" y="904.1543" clip-path="url(#clipPath2)" stroke="none">B</text>
      <circle fill="none" r="15" clip-path="url(#clipPath2)" cx="60" cy="900"/>
    </g>
    <g fill="rgb(51,153,102)" transform="matrix(1,0,0,1,1,-810)" stroke="rgb(51,153,102)">
      <circle r="15" clip-path="url(#clipPath2)" cx="150" cy="840" stroke="none"/>
    </g>
    <g stroke-miterlimit="1.45" font-family="sans-serif" transform="matrix(1,0,0,1,1,-810)" stroke-linecap="butt">
      <text x="145.8955" xml:space="preserve" y="844.1543" clip-path="url(#clipPath2)" stroke="none">A</text>
      <circle fill="none" r="15" clip-path="url(#clipPath2)" cx="150" cy="840"/>
    </g>
    <g fill="rgb(51,102,255)" transform="matrix(1,0,0,1,1,-810)" stroke="rgb(51,102,255)">
      <circle r="15" clip-path="url(#clipPath2)" cx="1110" cy="1020" stroke="none"/>
    </g>
    <g stroke-miterlimit="1.45" font-family="sans-serif" transform="matrix(1,0,0,1,1,-810)" stroke-linecap="butt">
      <text x="1105.4883" xml:space="preserve" y="1024.1543" clip-path="url(#clipPath2)" stroke="none">H</text>
      <circle fill="none" r="15" clip-path="url(#clipPath2)" cx="1110" cy="1020"/>
    </g>
    <g fill="rgb(51,102,255)" transform="matrix(1,0,0,1,1,-810)" stroke="rgb(51,102,255)">
      <circle r="15" clip-path="url(#clipPath2)" cx="1020" cy="1020" stroke="none"/>
    </g>
    <g stroke-miterlimit="1.45" font-family="sans-serif" transform="matrix(1,0,0,1,1,-810)" stroke-linecap="butt">
      <text x="1016.5488" xml:space="preserve" y="1024.1543" clip-path="url(#clipPath2)" stroke="none">F</text>
      <circle fill="none" r="15" clip-path="url(#clipPath2)" cx="1020" cy="1020"/>
    </g>
    <g fill="rgb(51,102,255)" transform="matrix(1,0,0,1,1,-810)" stroke="rgb(51,102,255)">
      <circle r="15" clip-path="url(#clipPath2)" cx="930" cy="990" stroke="none"/>
    </g>
    <g stroke-miterlimit="1.45" font-family="sans-serif" transform="matrix(1,0,0,1,1,-810)" stroke-linecap="butt">
      <text x="925.3799" xml:space="preserve" y="994.1543" clip-path="url(#clipPath2)" stroke="none">D</text>
      <circle fill="none" r="15" clip-path="url(#clipPath2)" cx="930" cy="990"/>
    </g>
    <g fill="rgb(51,102,255)" transform="matrix(1,0,0,1,1,-810)" stroke="rgb(51,102,255)">
      <circle r="15" clip-path="url(#clipPath2)" cx="870" cy="1020" stroke="none"/>
    </g>
    <g stroke-miterlimit="1.45" font-family="sans-serif" transform="matrix(1,0,0,1,1,-810)" stroke-linecap="butt">
      <text x="865.8105" xml:space="preserve" y="1024.1543" clip-path="url(#clipPath2)" stroke="none">C</text>
      <circle fill="none" r="15" clip-path="url(#clipPath2)" cx="870" cy="1020"/>
      <text x="986.209" xml:space="preserve" y="934.1543" clip-path="url(#clipPath2)" stroke="none">E</text>
      <circle fill="none" r="15" clip-path="url(#clipPath2)" cx="990" cy="930"/>
      <text x="1075.3506" xml:space="preserve" y="934.1543" clip-path="url(#clipPath2)" stroke="none">G</text>
      <circle fill="none" r="15" clip-path="url(#clipPath2)" cx="1080" cy="930"/>
    </g>
    <g fill="rgb(51,102,255)" transform="matrix(1,0,0,1,1,-810)" stroke="rgb(51,102,255)">
      <circle r="15" clip-path="url(#clipPath2)" cx="900" cy="900" stroke="none"/>
    </g>
    <g stroke-miterlimit="1.45" font-family="sans-serif" transform="matrix(1,0,0,1,1,-810)" stroke-linecap="butt">
      <text x="895.8838" xml:space="preserve" y="904.1543" clip-path="url(#clipPath2)" stroke="none">B</text>
      <circle fill="none" r="15" clip-path="url(#clipPath2)" cx="900" cy="900"/>
    </g>
    <g fill="rgb(51,153,102)" transform="matrix(1,0,0,1,1,-810)" stroke="rgb(51,153,102)">
      <circle r="15" clip-path="url(#clipPath2)" cx="990" cy="840" stroke="none"/>
    </g>
    <g stroke-miterlimit="1.45" font-family="sans-serif" transform="matrix(1,0,0,1,1,-810)" stroke-linecap="butt">
      <text x="985.8955" xml:space="preserve" y="844.1543" clip-path="url(#clipPath2)" stroke="none">A</text>
      <circle fill="none" r="15" clip-path="url(#clipPath2)" cx="990" cy="840"/>
    </g>
    <g fill="rgb(51,102,255)" transform="matrix(1,0,0,1,1,-810)" stroke="rgb(51,102,255)">
      <circle r="15" clip-path="url(#clipPath2)" cx="690" cy="1110" stroke="none"/>
    </g>
    <g stroke-miterlimit="1.45" font-family="sans-serif" transform="matrix(1,0,0,1,1,-810)" stroke-linecap="butt">
      <text x="685.4883" xml:space="preserve" y="1114.1543" clip-path="url(#clipPath2)" stroke="none">H</text>
      <circle fill="none" r="15" clip-path="url(#clipPath2)" cx="690" cy="1110"/>
    </g>
    <g fill="rgb(51,102,255)" transform="matrix(1,0,0,1,1,-810)" stroke="rgb(51,102,255)">
      <circle r="15" clip-path="url(#clipPath2)" cx="600" cy="1110" stroke="none"/>
    </g>
    <g stroke-miterlimit="1.45" font-family="sans-serif" transform="matrix(1,0,0,1,1,-810)" stroke-linecap="butt">
      <text x="596.5488" xml:space="preserve" y="1114.1543" clip-path="url(#clipPath2)" stroke="none">F</text>
      <circle fill="none" r="15" clip-path="url(#clipPath2)" cx="600" cy="1110"/>
    </g>
    <g fill="rgb(51,102,255)" transform="matrix(1,0,0,1,1,-810)" stroke="rgb(51,102,255)">
      <circle r="15" clip-path="url(#clipPath2)" cx="510" cy="1080" stroke="none"/>
    </g>
    <g stroke-miterlimit="1.45" font-family="sans-serif" transform="matrix(1,0,0,1,1,-810)" stroke-linecap="butt">
      <text x="505.3799" xml:space="preserve" y="1084.1543" clip-path="url(#clipPath2)" stroke="none">D</text>
      <circle fill="none" r="15" clip-path="url(#clipPath2)" cx="510" cy="1080"/>
    </g>
    <g fill="rgb(51,102,255)" transform="matrix(1,0,0,1,1,-810)" stroke="rgb(51,102,255)">
      <circle r="15" clip-path="url(#clipPath2)" cx="450" cy="1110" stroke="none"/>
    </g>
    <g stroke-miterlimit="1.45" font-family="sans-serif" transform="matrix(1,0,0,1,1,-810)" stroke-linecap="butt">
      <text x="445.8105" xml:space="preserve" y="1114.1543" clip-path="url(#clipPath2)" stroke="none">C</text>
      <circle fill="none" r="15" clip-path="url(#clipPath2)" cx="450" cy="1110"/>
      <text x="566.209" xml:space="preserve" y="1024.1543" clip-path="url(#clipPath2)" stroke="none">E</text>
      <circle fill="none" r="15" clip-path="url(#clipPath2)" cx="570" cy="1020"/>
      <text x="655.3506" xml:space="preserve" y="1024.1543" clip-path="url(#clipPath2)" stroke="none">G</text>
      <circle fill="none" r="15" clip-path="url(#clipPath2)" cx="660" cy="1020"/>
      <text x="475.8838" xml:space="preserve" y="994.1543" clip-path="url(#clipPath2)" stroke="none">B</text>
      <circle fill="none" r="15" clip-path="url(#clipPath2)" cx="480" cy="990"/>
    </g>
    <g fill="rgb(51,153,102)" transform="matrix(1,0,0,1,1,-810)" stroke="rgb(51,153,102)">
      <circle r="15" clip-path="url(#clipPath2)" cx="570" cy="930" stroke="none"/>
    </g>
    <g stroke-miterlimit="1.45" font-family="sans-serif" transform="matrix(1,0,0,1,1,-810)" stroke-linecap="butt">
      <text x="565.8955" xml:space="preserve" y="934.1543" clip-path="url(#clipPath2)" stroke="none">A</text>
      <circle fill="none" r="15" clip-path="url(#clipPath2)" cx="570" cy="930"/>
    </g>
    <g fill="gray" stroke-width="3" stroke-miterlimit="1.45" transform="matrix(1,0,0,1,1,-810)" stroke-linecap="butt" stroke="gray">
      <path fill="none" d="M195 1260 L255 1260" clip-path="url(#clipPath2)"/>
      <path fill="none" d="M104.2302 1234.7434 L165.7697 1255.2566" clip-path="url(#clipPath2)"/>
      <path fill="none" d="M76.6515 1236.8424 L60 1245.3779 L43.4837 1253.428" clip-path="url(#clipPath2)"/>
      <path fill="none" d="M139.3934 1180.6066 L100.6066 1219.3934" clip-path="url(#clipPath2)"/>
      <path fill="none" d="M154.7434 1184.2302 L175.2566 1245.7698" clip-path="url(#clipPath2)"/>
      <path fill="none" d="M188.3205 1247.5193 L231.6795 1182.4807" clip-path="url(#clipPath2)"/>
      <path fill="none" d="M244.7434 1184.2302 L265.2566 1245.7698" clip-path="url(#clipPath2)"/>
      <path fill="none" d="M74.2302 1144.7434 L135.7697 1165.2566" clip-path="url(#clipPath2)"/>
      <path fill="none" d="M56.362 1154.5521 L33.638 1245.4479" clip-path="url(#clipPath2)"/>
      <path fill="none" d="M72.4808 1131.6794 L137.5192 1088.3206" clip-path="url(#clipPath2)"/>
      <path fill="none" d="M160.6066 1090.6066 L229.3934 1159.3934" clip-path="url(#clipPath2)"/>
      <path fill="none" d="M150 1095 L150 1155" clip-path="url(#clipPath2)"/>
      <path fill="none" d="M1035 1260 L1095 1260" clip-path="url(#clipPath2)"/>
      <path fill="none" d="M944.2302 1234.7434 L1005.7698 1255.2566" clip-path="url(#clipPath2)"/>
      <path fill="none" d="M916.6516 1236.8424 L900 1245.3779 L883.4836 1253.428" clip-path="url(#clipPath2)"/>
      <path fill="none" d="M979.3934 1180.6066 L940.6066 1219.3934" clip-path="url(#clipPath2)"/>
      <path fill="none" d="M994.7434 1184.2302 L1015.2566 1245.7698" clip-path="url(#clipPath2)"/>
      <path fill="none" d="M1028.3206 1247.5193 L1071.6794 1182.4807" clip-path="url(#clipPath2)"/>
      <path fill="none" d="M1084.7434 1184.2302 L1105.2566 1245.7698" clip-path="url(#clipPath2)"/>
      <path fill="none" d="M914.2302 1144.7434 L975.7698 1165.2566" clip-path="url(#clipPath2)"/>
      <path fill="none" d="M896.3619 1154.5521 L873.6381 1245.4479" clip-path="url(#clipPath2)"/>
      <path fill="none" d="M912.4808 1131.6794 L977.5192 1088.3206" clip-path="url(#clipPath2)"/>
      <path fill="none" d="M1000.6066 1090.6066 L1069.3934 1159.3934" clip-path="url(#clipPath2)"/>
      <path fill="none" d="M990 1095 L990 1155" clip-path="url(#clipPath2)"/>
      <path fill="none" d="M195 1020 L255 1020" clip-path="url(#clipPath2)"/>
      <path fill="none" d="M104.2302 994.7434 L165.7697 1015.2566" clip-path="url(#clipPath2)"/>
      <path fill="none" d="M76.6515 996.8424 L60 1005.3779 L43.4837 1013.428" clip-path="url(#clipPath2)"/>
      <path fill="none" d="M139.3934 940.6066 L100.6066 979.3934" clip-path="url(#clipPath2)"/>
      <path fill="none" d="M154.7434 944.2302 L175.2566 1005.7698" clip-path="url(#clipPath2)"/>
      <path fill="none" d="M188.3205 1007.5192 L231.6795 942.4808" clip-path="url(#clipPath2)"/>
      <path fill="none" d="M244.7434 944.2302 L265.2566 1005.7698" clip-path="url(#clipPath2)"/>
      <path fill="none" d="M74.2302 904.7434 L135.7697 925.2566" clip-path="url(#clipPath2)"/>
      <path fill="none" d="M56.362 914.5521 L33.638 1005.4479" clip-path="url(#clipPath2)"/>
      <path fill="none" d="M72.4808 891.6795 L137.5192 848.3205" clip-path="url(#clipPath2)"/>
      <path fill="none" d="M160.6066 850.6066 L229.3934 919.3934" clip-path="url(#clipPath2)"/>
      <path fill="none" d="M150 855 L150 915" clip-path="url(#clipPath2)"/>
      <path fill="none" d="M1035 1020 L1095 1020" clip-path="url(#clipPath2)"/>
      <path fill="none" d="M944.2302 994.7434 L1005.7698 1015.2566" clip-path="url(#clipPath2)"/>
      <path fill="none" d="M916.6516 996.8424 L900 1005.3779 L883.4836 1013.428" clip-path="url(#clipPath2)"/>
      <path fill="none" d="M979.3934 940.6066 L940.6066 979.3934" clip-path="url(#clipPath2)"/>
      <path fill="none" d="M994.7434 944.2302 L1015.2566 1005.7698" clip-path="url(#clipPath2)"/>
      <path fill="none" d="M1028.3206 1007.5192 L1071.6794 942.4808" clip-path="url(#clipPath2)"/>
      <path fill="none" d="M1084.7434 944.2302 L1105.2566 1005.7698" clip-path="url(#clipPath2)"/>
      <path fill="none" d="M914.2302 904.7434 L975.7698 925.2566" clip-path="url(#clipPath2)"/>
      <path fill="none" d="M896.3619 914.5521 L873.6381 1005.4479" clip-path="url(#clipPath2)"/>
      <path fill="none" d="M912.4808 891.6795 L977.5192 848.3205" clip-path="url(#clipPath2)"/>
      <path fill="none" d="M1000.6066 850.6066 L1069.3934 919.3934" clip-path="url(#clipPath2)"/>
      <path fill="none" d="M990 855 L990 915" clip-path="url(#clipPath2)"/>
      <path fill="none" d="M615 1110 L675 1110" clip-path="url(#clipPath2)"/>
      <path fill="none" d="M524.2302 1084.7434 L585.7698 1105.2566" clip-path="url(#clipPath2)"/>
      <path fill="none" d="M496.6515 1086.8424 L480 1095.3779 L463.4837 1103.428" clip-path="url(#clipPath2)"/>
      <path fill="none" d="M559.3934 1030.6066 L520.6066 1069.3934" clip-path="url(#clipPath2)"/>
      <path fill="none" d="M574.7434 1034.2302 L595.2566 1095.7698" clip-path="url(#clipPath2)"/>
      <path fill="none" d="M608.3205 1097.5193 L651.6795 1032.4807" clip-path="url(#clipPath2)"/>
      <path fill="none" d="M664.7434 1034.2302 L685.2566 1095.7698" clip-path="url(#clipPath2)"/>
      <path fill="none" d="M494.2303 994.7434 L555.7698 1015.2566" clip-path="url(#clipPath2)"/>
      <path fill="none" d="M476.362 1004.5521 L453.638 1095.4479" clip-path="url(#clipPath2)"/>
      <path fill="none" d="M492.4807 981.6795 L557.5192 938.3205" clip-path="url(#clipPath2)"/>
      <path fill="none" d="M580.6066 940.6066 L649.3934 1009.3934" clip-path="url(#clipPath2)"/>
      <path fill="none" d="M570 945 L570 1005" clip-path="url(#clipPath2)"/>
      <path fill="none" d="M405 1050 L355 1050" clip-path="url(#clipPath2)"/>
      <path d="M345 1050 L360 1056.25 L356.25 1050 L360 1043.75 Z" clip-path="url(#clipPath2)" stroke="none"/>
      <path fill="none" d="M735 1050 L785 1050" clip-path="url(#clipPath2)"/>
      <path d="M795 1050 L780 1043.75 L783.75 1050 L780 1056.25 Z" clip-path="url(#clipPath2)" stroke="none"/>
    </g>
  </g>
</svg>
