<?xml version="1.0" encoding="UTF-8"?><svg xmlns="http://www.w3.org/2000/svg" xmlns:xlink="http://www.w3.org/1999/xlink" fill-opacity="1" color-rendering="auto" color-interpolation="auto" stroke="black" text-rendering="auto" stroke-linecap="square" width="300" stroke-miterlimit="10" stroke-opacity="1" shape-rendering="auto" fill="black" stroke-dasharray="none" font-weight="normal" stroke-width="1" height="248" font-family="'Dialog'" font-style="normal" stroke-linejoin="miter" font-size="12" stroke-dashoffset="0" image-rendering="auto">
  <!--Generated by ySVG-->
  <defs id="genericDefs"/>
  <g>
    <defs id="defs1">
      <clipPath clipPathUnits="userSpaceOnUse" id="clipPath1">
        <path d="M0 0 L300 0 L300 248 L0 248 L0 0 Z"/>
      </clipPath>
      <clipPath clipPathUnits="userSpaceOnUse" id="clipPath2">
        <path d="M1230 510 L1530 510 L1530 758 L1230 758 L1230 510 Z"/>
      </clipPath>
    </defs>
    <g fill="white" transform="translate(-1230,-510)" stroke="white">
      <rect x="1230" width="300" height="248" y="510" clip-path="url(#clipPath2)" stroke="none"/>
    </g>
    <g fill="rgb(51,102,255)" transform="matrix(1,0,0,1,-1230,-510)" stroke="rgb(51,102,255)">
      <circle r="15" clip-path="url(#clipPath2)" cx="1500" cy="720" stroke="none"/>
    </g>
    <g stroke-miterlimit="1.45" font-family="sans-serif" transform="matrix(1,0,0,1,-1230,-510)" stroke-linecap="butt">
      <text x="1495.4883" xml:space="preserve" y="724.1543" clip-path="url(#clipPath2)" stroke="none">H</text>
      <circle fill="none" r="15" clip-path="url(#clipPath2)" cx="1500" cy="720"/>
    </g>
    <g fill="rgb(51,102,255)" transform="matrix(1,0,0,1,-1230,-510)" stroke="rgb(51,102,255)">
      <circle r="15" clip-path="url(#clipPath2)" cx="1410" cy="720" stroke="none"/>
    </g>
    <g stroke-miterlimit="1.45" font-family="sans-serif" transform="matrix(1,0,0,1,-1230,-510)" stroke-linecap="butt">
      <text x="1406.5488" xml:space="preserve" y="724.1543" clip-path="url(#clipPath2)" stroke="none">F</text>
      <circle fill="none" r="15" clip-path="url(#clipPath2)" cx="1410" cy="720"/>
    </g>
    <g fill="rgb(51,102,255)" transform="matrix(1,0,0,1,-1230,-510)" stroke="rgb(51,102,255)">
      <circle r="15" clip-path="url(#clipPath2)" cx="1320" cy="690" stroke="none"/>
    </g>
    <g stroke-miterlimit="1.45" font-family="sans-serif" transform="matrix(1,0,0,1,-1230,-510)" stroke-linecap="butt">
      <text x="1315.3799" xml:space="preserve" y="694.1543" clip-path="url(#clipPath2)" stroke="none">D</text>
      <circle fill="none" r="15" clip-path="url(#clipPath2)" cx="1320" cy="690"/>
    </g>
    <g fill="rgb(51,102,255)" transform="matrix(1,0,0,1,-1230,-510)" stroke="rgb(51,102,255)">
      <circle r="15" clip-path="url(#clipPath2)" cx="1260" cy="720" stroke="none"/>
    </g>
    <g stroke-miterlimit="1.45" font-family="sans-serif" transform="matrix(1,0,0,1,-1230,-510)" stroke-linecap="butt">
      <text x="1255.8105" xml:space="preserve" y="724.1543" clip-path="url(#clipPath2)" stroke="none">C</text>
      <circle fill="none" r="15" clip-path="url(#clipPath2)" cx="1260" cy="720"/>
      <text x="1376.209" xml:space="preserve" y="634.1543" clip-path="url(#clipPath2)" stroke="none">E</text>
      <circle fill="none" r="15" clip-path="url(#clipPath2)" cx="1380" cy="630"/>
      <text x="1465.3506" xml:space="preserve" y="634.1543" clip-path="url(#clipPath2)" stroke="none">G</text>
      <circle fill="none" r="15" clip-path="url(#clipPath2)" cx="1470" cy="630"/>
      <text x="1285.8838" xml:space="preserve" y="604.1543" clip-path="url(#clipPath2)" stroke="none">B</text>
      <circle fill="none" r="15" clip-path="url(#clipPath2)" cx="1290" cy="600"/>
    </g>
    <g fill="rgb(51,153,102)" transform="matrix(1,0,0,1,-1230,-510)" stroke="rgb(51,153,102)">
      <circle r="15" clip-path="url(#clipPath2)" cx="1380" cy="540" stroke="none"/>
    </g>
    <g stroke-miterlimit="1.45" font-family="sans-serif" transform="matrix(1,0,0,1,-1230,-510)" stroke-linecap="butt">
      <text x="1375.8955" xml:space="preserve" y="544.1543" clip-path="url(#clipPath2)" stroke="none">A</text>
      <circle fill="none" r="15" clip-path="url(#clipPath2)" cx="1380" cy="540"/>
    </g>
    <g fill="gray" stroke-width="3" stroke-miterlimit="1.45" transform="matrix(1,0,0,1,-1230,-510)" stroke-linecap="butt" stroke="gray">
      <path fill="none" d="M1425 720 L1485 720" clip-path="url(#clipPath2)"/>
    </g>
    <g stroke-miterlimit="1.45" font-family="sans-serif" transform="matrix(1,0,0,1,-1230,-510)" stroke-linecap="butt">
      <text x="1450.2722" xml:space="preserve" y="737.8871" clip-path="url(#clipPath2)" stroke="none">4</text>
    </g>
    <g fill="gray" stroke-width="3" stroke-miterlimit="1.45" transform="matrix(1,0,0,1,-1230,-510)" stroke-linecap="butt" stroke="gray">
      <path fill="none" d="M1334.2302 694.7434 L1395.7698 715.2566" clip-path="url(#clipPath2)"/>
    </g>
    <g stroke-miterlimit="1.45" font-family="sans-serif" transform="matrix(1,0,0,1,-1230,-510)" stroke-linecap="butt">
      <text x="1354.8354" xml:space="preserve" y="723.9607" clip-path="url(#clipPath2)" stroke="none">1</text>
    </g>
    <g fill="gray" stroke-width="3" stroke-miterlimit="1.45" transform="matrix(1,0,0,1,-1230,-510)" stroke-linecap="butt" stroke="gray">
      <path fill="none" d="M1306.6515 696.8424 L1290 705.3779 L1273.4836 713.428" clip-path="url(#clipPath2)"/>
    </g>
    <g stroke-miterlimit="1.45" font-family="sans-serif" transform="matrix(1,0,0,1,-1230,-510)" stroke-linecap="butt">
      <text x="1279.7928" xml:space="preserve" y="694.7128" clip-path="url(#clipPath2)" stroke="none">3</text>
    </g>
    <g fill="gray" stroke-width="3" stroke-miterlimit="1.45" transform="matrix(1,0,0,1,-1230,-510)" stroke-linecap="butt" stroke="gray">
      <path fill="none" d="M1384.7434 644.2302 L1405.2566 705.7698" clip-path="url(#clipPath2)"/>
    </g>
    <g stroke-miterlimit="1.45" font-family="sans-serif" transform="matrix(1,0,0,1,-1230,-510)" stroke-linecap="butt">
      <text x="1378.1826" xml:space="preserve" y="683.4103" clip-path="url(#clipPath2)" stroke="none">4</text>
    </g>
    <g fill="gray" stroke-width="3" stroke-miterlimit="1.45" transform="matrix(1,0,0,1,-1230,-510)" stroke-linecap="butt" stroke="gray">
      <path fill="none" d="M1369.3934 640.6066 L1330.6066 679.3934" clip-path="url(#clipPath2)"/>
    </g>
    <g stroke-miterlimit="1.45" font-family="sans-serif" transform="matrix(1,0,0,1,-1230,-510)" stroke-linecap="butt">
      <text x="1340.4457" xml:space="preserve" y="651.6401" clip-path="url(#clipPath2)" stroke="none">1</text>
    </g>
    <g fill="gray" stroke-width="3" stroke-miterlimit="1.45" transform="matrix(1,0,0,1,-1230,-510)" stroke-linecap="butt" stroke="gray">
      <path fill="none" d="M1418.3206 707.5192 L1461.6794 642.4808" clip-path="url(#clipPath2)"/>
    </g>
    <g stroke-miterlimit="1.45" font-family="sans-serif" transform="matrix(1,0,0,1,-1230,-510)" stroke-linecap="butt">
      <text x="1425.6962" xml:space="preserve" y="669.4839" clip-path="url(#clipPath2)" stroke="none">2</text>
    </g>
    <g fill="gray" stroke-width="3" stroke-miterlimit="1.45" transform="matrix(1,0,0,1,-1230,-510)" stroke-linecap="butt" stroke="gray">
      <path fill="none" d="M1474.7434 644.2302 L1495.2566 705.7698" clip-path="url(#clipPath2)"/>
    </g>
    <g stroke-miterlimit="1.45" font-family="sans-serif" transform="matrix(1,0,0,1,-1230,-510)" stroke-linecap="butt">
      <text x="1493.2803" xml:space="preserve" y="675.6279" clip-path="url(#clipPath2)" stroke="none">1</text>
    </g>
    <g fill="gray" stroke-width="3" stroke-miterlimit="1.45" transform="matrix(1,0,0,1,-1230,-510)" stroke-linecap="butt" stroke="gray">
      <path fill="none" d="M1286.3619 614.5521 L1263.6381 705.4479" clip-path="url(#clipPath2)"/>
    </g>
    <g stroke-miterlimit="1.45" font-family="sans-serif" transform="matrix(1,0,0,1,-1230,-510)" stroke-linecap="butt">
      <text x="1258.5795" xml:space="preserve" y="658.4247" clip-path="url(#clipPath2)" stroke="none">2</text>
    </g>
    <g fill="gray" stroke-width="3" stroke-miterlimit="1.45" transform="matrix(1,0,0,1,-1230,-510)" stroke-linecap="butt" stroke="gray">
      <path fill="none" d="M1304.2302 604.7434 L1365.7698 625.2566" clip-path="url(#clipPath2)"/>
    </g>
    <g stroke-miterlimit="1.45" font-family="sans-serif" transform="matrix(1,0,0,1,-1230,-510)" stroke-linecap="butt">
      <text x="1335.2705" xml:space="preserve" y="607.8465" clip-path="url(#clipPath2)" stroke="none">3</text>
    </g>
    <g fill="gray" stroke-width="3" stroke-miterlimit="1.45" transform="matrix(1,0,0,1,-1230,-510)" stroke-linecap="butt" stroke="gray">
      <path fill="none" d="M1302.4807 591.6795 L1367.5193 548.3205" clip-path="url(#clipPath2)"/>
    </g>
    <g stroke-miterlimit="1.45" font-family="sans-serif" transform="matrix(1,0,0,1,-1230,-510)" stroke-linecap="butt">
      <text x="1323.2963" xml:space="preserve" y="561.3495" clip-path="url(#clipPath2)" stroke="none">2</text>
    </g>
    <g fill="gray" stroke-width="3" stroke-miterlimit="1.45" transform="matrix(1,0,0,1,-1230,-510)" stroke-linecap="butt" stroke="gray">
      <path fill="none" d="M1380 555 L1380 615" clip-path="url(#clipPath2)"/>
    </g>
    <g stroke-miterlimit="1.45" font-family="sans-serif" transform="matrix(1,0,0,1,-1230,-510)" stroke-linecap="butt">
      <text x="1365.7794" xml:space="preserve" y="587.9479" clip-path="url(#clipPath2)" stroke="none">1</text>
    </g>
    <g fill="gray" stroke-width="3" stroke-miterlimit="1.45" transform="matrix(1,0,0,1,-1230,-510)" stroke-linecap="butt" stroke="gray">
      <path fill="none" d="M1390.6066 550.6066 L1459.3934 619.3934" clip-path="url(#clipPath2)"/>
    </g>
    <g stroke-miterlimit="1.45" font-family="sans-serif" transform="matrix(1,0,0,1,-1230,-510)" stroke-linecap="butt">
      <text x="1434.2979" xml:space="preserve" y="579.3719" clip-path="url(#clipPath2)" stroke="none">3</text>
    </g>
  </g>
</svg>
