<?xml version="1.0" encoding="UTF-8"?><svg xmlns="http://www.w3.org/2000/svg" xmlns:xlink="http://www.w3.org/1999/xlink" fill-opacity="1" color-rendering="auto" color-interpolation="auto" stroke="black" text-rendering="auto" stroke-linecap="square" width="690" stroke-miterlimit="10" stroke-opacity="1" shape-rendering="auto" fill="black" stroke-dasharray="none" font-weight="normal" stroke-width="1" height="248" font-family="'Dialog'" font-style="normal" stroke-linejoin="miter" font-size="12" stroke-dashoffset="0" image-rendering="auto">
  <!--Generated by ySVG-->
  <defs id="genericDefs"/>
  <g>
    <defs id="defs1">
      <clipPath clipPathUnits="userSpaceOnUse" id="clipPath1">
        <path d="M0 0 L690 0 L690 248 L0 248 L0 0 Z"/>
      </clipPath>
      <clipPath clipPathUnits="userSpaceOnUse" id="clipPath2">
        <path d="M540 270 L1230 270 L1230 518 L540 518 L540 270 Z"/>
      </clipPath>
    </defs>
    <g fill="white" transform="translate(-540,-270)" stroke="white">
      <rect x="540" width="690" height="248" y="270" clip-path="url(#clipPath2)" stroke="none"/>
    </g>
    <g fill="aqua" transform="matrix(1,0,0,1,-540,-270)" stroke="aqua">
      <circle r="15" clip-path="url(#clipPath2)" cx="810" cy="480" stroke="none"/>
    </g>
    <g stroke-miterlimit="1.45" font-family="sans-serif" transform="matrix(1,0,0,1,-540,-270)" stroke-linecap="butt">
      <text x="805.4883" xml:space="preserve" y="484.1543" clip-path="url(#clipPath2)" stroke="none">H</text>
      <circle fill="none" r="15" clip-path="url(#clipPath2)" cx="810" cy="480"/>
    </g>
    <g fill="rgb(51,102,255)" transform="matrix(1,0,0,1,-540,-270)" stroke="rgb(51,102,255)">
      <circle r="15" clip-path="url(#clipPath2)" cx="720" cy="480" stroke="none"/>
    </g>
    <g stroke-miterlimit="1.45" font-family="sans-serif" transform="matrix(1,0,0,1,-540,-270)" stroke-linecap="butt">
      <text x="716.5488" xml:space="preserve" y="484.1543" clip-path="url(#clipPath2)" stroke="none">F</text>
      <circle fill="none" r="15" clip-path="url(#clipPath2)" cx="720" cy="480"/>
    </g>
    <g fill="rgb(51,102,255)" transform="matrix(1,0,0,1,-540,-270)" stroke="rgb(51,102,255)">
      <circle r="15" clip-path="url(#clipPath2)" cx="630" cy="450" stroke="none"/>
    </g>
    <g stroke-miterlimit="1.45" font-family="sans-serif" transform="matrix(1,0,0,1,-540,-270)" stroke-linecap="butt">
      <text x="625.3799" xml:space="preserve" y="454.1543" clip-path="url(#clipPath2)" stroke="none">D</text>
      <circle fill="none" r="15" clip-path="url(#clipPath2)" cx="630" cy="450"/>
    </g>
    <g fill="rgb(51,102,255)" transform="matrix(1,0,0,1,-540,-270)" stroke="rgb(51,102,255)">
      <circle r="15" clip-path="url(#clipPath2)" cx="570" cy="480" stroke="none"/>
    </g>
    <g stroke-miterlimit="1.45" font-family="sans-serif" transform="matrix(1,0,0,1,-540,-270)" stroke-linecap="butt">
      <text x="565.8105" xml:space="preserve" y="484.1543" clip-path="url(#clipPath2)" stroke="none">C</text>
      <circle fill="none" r="15" clip-path="url(#clipPath2)" cx="570" cy="480"/>
      <text x="686.209" xml:space="preserve" y="394.1543" clip-path="url(#clipPath2)" stroke="none">E</text>
      <circle fill="none" r="15" clip-path="url(#clipPath2)" cx="690" cy="390"/>
      <text x="775.3506" xml:space="preserve" y="394.1543" clip-path="url(#clipPath2)" stroke="none">G</text>
      <circle fill="none" r="15" clip-path="url(#clipPath2)" cx="780" cy="390"/>
      <text x="595.8838" xml:space="preserve" y="364.1543" clip-path="url(#clipPath2)" stroke="none">B</text>
      <circle fill="none" r="15" clip-path="url(#clipPath2)" cx="600" cy="360"/>
    </g>
    <g fill="rgb(51,153,102)" transform="matrix(1,0,0,1,-540,-270)" stroke="rgb(51,153,102)">
      <circle r="15" clip-path="url(#clipPath2)" cx="690" cy="300" stroke="none"/>
    </g>
    <g stroke-miterlimit="1.45" font-family="sans-serif" transform="matrix(1,0,0,1,-540,-270)" stroke-linecap="butt">
      <text x="685.8955" xml:space="preserve" y="304.1543" clip-path="url(#clipPath2)" stroke="none">A</text>
      <circle fill="none" r="15" clip-path="url(#clipPath2)" cx="690" cy="300"/>
    </g>
    <g fill="rgb(51,102,255)" transform="matrix(1,0,0,1,-540,-270)" stroke="rgb(51,102,255)">
      <circle r="15" clip-path="url(#clipPath2)" cx="1200" cy="480" stroke="none"/>
    </g>
    <g stroke-miterlimit="1.45" font-family="sans-serif" transform="matrix(1,0,0,1,-540,-270)" stroke-linecap="butt">
      <text x="1195.4883" xml:space="preserve" y="484.1543" clip-path="url(#clipPath2)" stroke="none">H</text>
      <circle fill="none" r="15" clip-path="url(#clipPath2)" cx="1200" cy="480"/>
    </g>
    <g fill="rgb(51,102,255)" transform="matrix(1,0,0,1,-540,-270)" stroke="rgb(51,102,255)">
      <circle r="15" clip-path="url(#clipPath2)" cx="1110" cy="480" stroke="none"/>
    </g>
    <g stroke-miterlimit="1.45" font-family="sans-serif" transform="matrix(1,0,0,1,-540,-270)" stroke-linecap="butt">
      <text x="1106.5488" xml:space="preserve" y="484.1543" clip-path="url(#clipPath2)" stroke="none">F</text>
      <circle fill="none" r="15" clip-path="url(#clipPath2)" cx="1110" cy="480"/>
    </g>
    <g fill="rgb(51,102,255)" transform="matrix(1,0,0,1,-540,-270)" stroke="rgb(51,102,255)">
      <circle r="15" clip-path="url(#clipPath2)" cx="1020" cy="450" stroke="none"/>
    </g>
    <g stroke-miterlimit="1.45" font-family="sans-serif" transform="matrix(1,0,0,1,-540,-270)" stroke-linecap="butt">
      <text x="1015.3799" xml:space="preserve" y="454.1543" clip-path="url(#clipPath2)" stroke="none">D</text>
      <circle fill="none" r="15" clip-path="url(#clipPath2)" cx="1020" cy="450"/>
    </g>
    <g fill="rgb(51,102,255)" transform="matrix(1,0,0,1,-540,-270)" stroke="rgb(51,102,255)">
      <circle r="15" clip-path="url(#clipPath2)" cx="960" cy="480" stroke="none"/>
    </g>
    <g stroke-miterlimit="1.45" font-family="sans-serif" transform="matrix(1,0,0,1,-540,-270)" stroke-linecap="butt">
      <text x="955.8105" xml:space="preserve" y="484.1543" clip-path="url(#clipPath2)" stroke="none">C</text>
      <circle fill="none" r="15" clip-path="url(#clipPath2)" cx="960" cy="480"/>
      <text x="1076.209" xml:space="preserve" y="394.1543" clip-path="url(#clipPath2)" stroke="none">E</text>
      <circle fill="none" r="15" clip-path="url(#clipPath2)" cx="1080" cy="390"/>
      <text x="1165.3506" xml:space="preserve" y="394.1543" clip-path="url(#clipPath2)" stroke="none">G</text>
      <circle fill="none" r="15" clip-path="url(#clipPath2)" cx="1170" cy="390"/>
      <text x="985.8838" xml:space="preserve" y="364.1543" clip-path="url(#clipPath2)" stroke="none">B</text>
      <circle fill="none" r="15" clip-path="url(#clipPath2)" cx="990" cy="360"/>
    </g>
    <g fill="rgb(51,153,102)" transform="matrix(1,0,0,1,-540,-270)" stroke="rgb(51,153,102)">
      <circle r="15" clip-path="url(#clipPath2)" cx="1080" cy="300" stroke="none"/>
    </g>
    <g stroke-miterlimit="1.45" font-family="sans-serif" transform="matrix(1,0,0,1,-540,-270)" stroke-linecap="butt">
      <text x="1075.8955" xml:space="preserve" y="304.1543" clip-path="url(#clipPath2)" stroke="none">A</text>
      <circle fill="none" r="15" clip-path="url(#clipPath2)" cx="1080" cy="300"/>
      <text x="838.0928" xml:space="preserve" y="394.1543" clip-path="url(#clipPath2)" stroke="none"> </text>
      <text x="928.0928" xml:space="preserve" y="394.1543" clip-path="url(#clipPath2)" stroke="none"> </text>
    </g>
    <g fill="gray" stroke-width="3" stroke-miterlimit="1.45" transform="matrix(1,0,0,1,-540,-270)" stroke-linecap="butt" stroke="gray">
      <path fill="none" d="M735 480 L795 480" clip-path="url(#clipPath2)"/>
    </g>
    <g stroke-miterlimit="1.45" font-family="sans-serif" transform="matrix(1,0,0,1,-540,-270)" stroke-linecap="butt">
      <text x="760.2722" xml:space="preserve" y="497.8871" clip-path="url(#clipPath2)" stroke="none">4</text>
      <path fill="none" stroke-width="3" d="M644.2302 454.7434 L696.2829 472.0943" clip-path="url(#clipPath2)"/>
      <path stroke-width="3" d="M705.7697 475.2566 L693.5159 464.5839 L695.097 471.699 L689.563 476.4424 Z" clip-path="url(#clipPath2)" stroke="none"/>
      <path fill="none" stroke-width="3" d="M616.6516 456.8424 L600 465.3779 L592.4728 469.0467" clip-path="url(#clipPath2)"/>
      <path stroke-width="3" d="M583.4836 473.428 L599.7056 472.4743 L593.5964 468.4991 L594.229 461.2379 Z" clip-path="url(#clipPath2)" stroke="none"/>
      <path fill="none" stroke-width="3" d="M679.3934 400.6066 L647.6777 432.3223" clip-path="url(#clipPath2)"/>
      <path stroke-width="3" d="M640.6066 439.3934 L655.6326 433.2062 L648.5616 431.4384 L646.7938 424.3674 Z" clip-path="url(#clipPath2)" stroke="none"/>
    </g>
    <g fill="gray" stroke-width="3" stroke-miterlimit="1.45" transform="matrix(1,0,0,1,-540,-270)" stroke-linecap="butt" stroke="gray">
      <path fill="none" d="M694.7434 404.2303 L715.2566 465.7697" clip-path="url(#clipPath2)"/>
      <path fill="none" d="M728.3205 467.5193 L771.6795 402.4807" clip-path="url(#clipPath2)"/>
    </g>
    <g stroke-miterlimit="1.45" font-family="sans-serif" transform="matrix(1,0,0,1,-540,-270)" stroke-linecap="butt">
      <text x="735.6962" xml:space="preserve" y="429.4839" clip-path="url(#clipPath2)" stroke="none">2</text>
    </g>
    <g fill="gray" stroke-width="3" stroke-miterlimit="1.45" transform="matrix(1,0,0,1,-540,-270)" stroke-linecap="butt" stroke="gray">
      <path fill="none" d="M784.7434 404.2303 L805.2566 465.7697" clip-path="url(#clipPath2)"/>
    </g>
    <g stroke-miterlimit="1.45" font-family="sans-serif" transform="matrix(1,0,0,1,-540,-270)" stroke-linecap="butt">
      <text x="803.2802" xml:space="preserve" y="435.6279" clip-path="url(#clipPath2)" stroke="none">1</text>
    </g>
    <g fill="gray" stroke-width="3" stroke-miterlimit="1.45" transform="matrix(1,0,0,1,-540,-270)" stroke-linecap="butt" stroke="gray">
      <path fill="none" d="M614.2302 364.7434 L675.7698 385.2566" clip-path="url(#clipPath2)"/>
      <path fill="none" d="M596.3619 374.5521 L573.6381 465.4479" clip-path="url(#clipPath2)"/>
      <path fill="none" d="M612.4808 351.6795 L677.5192 308.3205" clip-path="url(#clipPath2)"/>
      <path fill="none" d="M700.6066 310.6066 L769.3934 379.3934" clip-path="url(#clipPath2)"/>
    </g>
    <g stroke-miterlimit="1.45" font-family="sans-serif" transform="matrix(1,0,0,1,-540,-270)" stroke-linecap="butt">
      <text x="744.2978" xml:space="preserve" y="339.3719" clip-path="url(#clipPath2)" stroke="none">3</text>
      <path fill="none" stroke-width="3" d="M690 315 L690 365" clip-path="url(#clipPath2)"/>
      <path stroke-width="3" d="M690 375 L696.25 360 L690 363.75 L683.75 360 Z" clip-path="url(#clipPath2)" stroke="none"/>
    </g>
    <g fill="gray" stroke-width="3" stroke-miterlimit="1.45" transform="matrix(1,0,0,1,-540,-270)" stroke-linecap="butt" stroke="gray">
      <path fill="none" d="M1125 480 L1185 480" clip-path="url(#clipPath2)"/>
    </g>
    <g stroke-miterlimit="1.45" font-family="sans-serif" transform="matrix(1,0,0,1,-540,-270)" stroke-linecap="butt">
      <text x="1150.2722" xml:space="preserve" y="497.8871" clip-path="url(#clipPath2)" stroke="none">4</text>
      <path fill="none" stroke-width="3" d="M1034.2302 454.7434 L1086.283 472.0943" clip-path="url(#clipPath2)"/>
      <path stroke-width="3" d="M1095.7698 475.2566 L1083.516 464.5839 L1085.097 471.699 L1079.5631 476.4424 Z" clip-path="url(#clipPath2)" stroke="none"/>
      <path fill="none" stroke-width="3" d="M1006.6516 456.8424 L990 465.3779 L982.4728 469.0467" clip-path="url(#clipPath2)"/>
      <path stroke-width="3" d="M973.4836 473.428 L989.7056 472.4743 L983.5964 468.4991 L984.229 461.2379 Z" clip-path="url(#clipPath2)" stroke="none"/>
      <path fill="none" stroke-width="3" d="M1069.3934 400.6066 L1037.6776 432.3223" clip-path="url(#clipPath2)"/>
      <path stroke-width="3" d="M1030.6066 439.3934 L1045.6326 433.2062 L1038.5615 431.4384 L1036.7937 424.3674 Z" clip-path="url(#clipPath2)" stroke="none"/>
    </g>
    <g fill="gray" stroke-width="3" stroke-miterlimit="1.45" transform="matrix(1,0,0,1,-540,-270)" stroke-linecap="butt" stroke="gray">
      <path fill="none" d="M1084.7434 404.2303 L1105.2566 465.7697" clip-path="url(#clipPath2)"/>
      <path fill="none" d="M1118.3206 467.5193 L1156.1324 410.8013" clip-path="url(#clipPath2)" stroke="black"/>
      <path fill="black" d="M1161.6794 402.4807 L1148.1587 411.4947 L1155.4391 411.8413 L1158.5593 418.4284 Z" clip-path="url(#clipPath2)" stroke="none"/>
    </g>
    <g stroke-miterlimit="1.45" font-family="sans-serif" transform="matrix(1,0,0,1,-540,-270)" stroke-linecap="butt">
      <text x="1125.6962" xml:space="preserve" y="429.4839" clip-path="url(#clipPath2)" stroke="none">2</text>
      <path fill="none" stroke-width="3" d="M1174.7434 404.2303 L1192.0944 456.2829" clip-path="url(#clipPath2)"/>
      <path stroke-width="3" d="M1195.2566 465.7698 L1196.4425 449.5631 L1191.6991 455.0971 L1184.584 453.5159 Z" clip-path="url(#clipPath2)" stroke="none"/>
      <text x="1193.2803" xml:space="preserve" y="435.6279" clip-path="url(#clipPath2)" stroke="none">1</text>
    </g>
    <g fill="gray" stroke-width="3" stroke-miterlimit="1.45" transform="matrix(1,0,0,1,-540,-270)" stroke-linecap="butt" stroke="gray">
      <path fill="none" d="M1004.2302 364.7434 L1065.7698 385.2566" clip-path="url(#clipPath2)"/>
      <path fill="none" d="M986.3619 374.5521 L963.6381 465.4479" clip-path="url(#clipPath2)"/>
      <path fill="none" d="M1002.4808 351.6795 L1067.5193 308.3205" clip-path="url(#clipPath2)"/>
      <path fill="none" d="M1090.6066 310.6066 L1159.3934 379.3934" clip-path="url(#clipPath2)"/>
    </g>
    <g stroke-miterlimit="1.45" font-family="sans-serif" transform="matrix(1,0,0,1,-540,-270)" stroke-linecap="butt">
      <text x="1134.2979" xml:space="preserve" y="339.3719" clip-path="url(#clipPath2)" stroke="none">3</text>
      <path fill="none" stroke-width="3" d="M1080 315 L1080 365" clip-path="url(#clipPath2)"/>
      <path stroke-width="3" d="M1080 375 L1086.25 360 L1080 363.75 L1073.75 360 Z" clip-path="url(#clipPath2)" stroke="none"/>
    </g>
    <g fill="gray" stroke-width="3" stroke-miterlimit="1.45" transform="matrix(1,0,0,1,-540,-270)" stroke-linecap="butt" stroke="gray">
      <path fill="none" d="M855 390 L905 390" clip-path="url(#clipPath2)"/>
      <path d="M915 390 L900 383.75 L903.75 390 L900 396.25 Z" clip-path="url(#clipPath2)" stroke="none"/>
    </g>
  </g>
</svg>
