<?xml version="1.0" encoding="UTF-8"?><svg xmlns="http://www.w3.org/2000/svg" xmlns:xlink="http://www.w3.org/1999/xlink" fill-opacity="1" color-rendering="auto" color-interpolation="auto" stroke="black" text-rendering="auto" stroke-linecap="square" width="660" stroke-miterlimit="10" stroke-opacity="1" shape-rendering="auto" fill="black" stroke-dasharray="none" font-weight="normal" stroke-width="1" height="518" font-family="'Dialog'" font-style="normal" stroke-linejoin="miter" font-size="12" stroke-dashoffset="0" image-rendering="auto">
  <!--Generated by ySVG-->
  <defs id="genericDefs"/>
  <g>
    <defs id="defs1">
      <clipPath clipPathUnits="userSpaceOnUse" id="clipPath1">
        <path d="M0 0 L660 0 L660 518 L0 518 L0 0 Z"/>
      </clipPath>
      <clipPath clipPathUnits="userSpaceOnUse" id="clipPath2">
        <path d="M210 210 L870 210 L870 728 L210 728 L210 210 Z"/>
      </clipPath>
    </defs>
    <g fill="white" transform="translate(-210,-210)" stroke="white">
      <rect x="210" width="660" height="518" y="210" clip-path="url(#clipPath2)" stroke="none"/>
    </g>
    <g fill="rgb(51,153,102)" transform="matrix(1,0,0,1,-210,-210)" stroke="rgb(51,153,102)">
      <circle r="15" clip-path="url(#clipPath2)" cx="540" cy="240" stroke="none"/>
    </g>
    <g stroke-miterlimit="1.45" font-family="sans-serif" transform="matrix(1,0,0,1,-210,-210)" stroke-linecap="butt">
      <text x="535.8955" xml:space="preserve" y="244.1543" clip-path="url(#clipPath2)" stroke="none">A</text>
      <circle fill="none" r="15" clip-path="url(#clipPath2)" cx="540" cy="240"/>
      <text x="445.8838" xml:space="preserve" y="304.1543" clip-path="url(#clipPath2)" stroke="none">B</text>
      <circle fill="none" r="15" clip-path="url(#clipPath2)" cx="450" cy="300"/>
      <text x="625.3506" xml:space="preserve" y="334.1543" clip-path="url(#clipPath2)" stroke="none">G</text>
      <circle fill="none" r="15" clip-path="url(#clipPath2)" cx="630" cy="330"/>
      <text x="536.209" xml:space="preserve" y="334.1543" clip-path="url(#clipPath2)" stroke="none">E</text>
      <circle fill="none" r="15" clip-path="url(#clipPath2)" cx="540" cy="330"/>
    </g>
    <g fill="rgb(51,102,255)" transform="matrix(1,0,0,1,-210,-210)" stroke="rgb(51,102,255)">
      <circle r="15" clip-path="url(#clipPath2)" cx="420" cy="420" stroke="none"/>
    </g>
    <g stroke-miterlimit="1.45" font-family="sans-serif" transform="matrix(1,0,0,1,-210,-210)" stroke-linecap="butt">
      <text x="415.8105" xml:space="preserve" y="424.1543" clip-path="url(#clipPath2)" stroke="none">C</text>
      <circle fill="none" r="15" clip-path="url(#clipPath2)" cx="420" cy="420"/>
    </g>
    <g fill="rgb(51,102,255)" transform="matrix(1,0,0,1,-210,-210)" stroke="rgb(51,102,255)">
      <circle r="15" clip-path="url(#clipPath2)" cx="480" cy="390" stroke="none"/>
    </g>
    <g stroke-miterlimit="1.45" font-family="sans-serif" transform="matrix(1,0,0,1,-210,-210)" stroke-linecap="butt">
      <text x="475.3799" xml:space="preserve" y="394.1543" clip-path="url(#clipPath2)" stroke="none">D</text>
      <circle fill="none" r="15" clip-path="url(#clipPath2)" cx="480" cy="390"/>
    </g>
    <g fill="rgb(51,102,255)" transform="matrix(1,0,0,1,-210,-210)" stroke="rgb(51,102,255)">
      <circle r="15" clip-path="url(#clipPath2)" cx="570" cy="420" stroke="none"/>
    </g>
    <g stroke-miterlimit="1.45" font-family="sans-serif" transform="matrix(1,0,0,1,-210,-210)" stroke-linecap="butt">
      <text x="566.5488" xml:space="preserve" y="424.1543" clip-path="url(#clipPath2)" stroke="none">F</text>
      <circle fill="none" r="15" clip-path="url(#clipPath2)" cx="570" cy="420"/>
    </g>
    <g fill="rgb(51,102,255)" transform="matrix(1,0,0,1,-210,-210)" stroke="rgb(51,102,255)">
      <circle r="15" clip-path="url(#clipPath2)" cx="660" cy="420" stroke="none"/>
    </g>
    <g stroke-miterlimit="1.45" font-family="sans-serif" transform="matrix(1,0,0,1,-210,-210)" stroke-linecap="butt">
      <text x="655.4883" xml:space="preserve" y="424.1543" clip-path="url(#clipPath2)" stroke="none">H</text>
      <circle fill="none" r="15" clip-path="url(#clipPath2)" cx="660" cy="420"/>
    </g>
    <g fill="rgb(51,153,102)" transform="matrix(1,0,0,1,-210,-210)" stroke="rgb(51,153,102)">
      <circle r="15" clip-path="url(#clipPath2)" cx="360" cy="510" stroke="none"/>
    </g>
    <g stroke-miterlimit="1.45" font-family="sans-serif" transform="matrix(1,0,0,1,-210,-210)" stroke-linecap="butt">
      <text x="355.8955" xml:space="preserve" y="514.1543" clip-path="url(#clipPath2)" stroke="none">A</text>
      <circle fill="none" r="15" clip-path="url(#clipPath2)" cx="360" cy="510"/>
      <text x="265.8838" xml:space="preserve" y="574.1543" clip-path="url(#clipPath2)" stroke="none">B</text>
      <circle fill="none" r="15" clip-path="url(#clipPath2)" cx="270" cy="570"/>
      <text x="445.3506" xml:space="preserve" y="604.1543" clip-path="url(#clipPath2)" stroke="none">G</text>
      <circle fill="none" r="15" clip-path="url(#clipPath2)" cx="450" cy="600"/>
      <text x="356.209" xml:space="preserve" y="604.1543" clip-path="url(#clipPath2)" stroke="none">E</text>
      <circle fill="none" r="15" clip-path="url(#clipPath2)" cx="360" cy="600"/>
    </g>
    <g fill="rgb(51,102,255)" transform="matrix(1,0,0,1,-210,-210)" stroke="rgb(51,102,255)">
      <circle r="15" clip-path="url(#clipPath2)" cx="240" cy="690" stroke="none"/>
    </g>
    <g stroke-miterlimit="1.45" font-family="sans-serif" transform="matrix(1,0,0,1,-210,-210)" stroke-linecap="butt">
      <text x="235.8105" xml:space="preserve" y="694.1543" clip-path="url(#clipPath2)" stroke="none">C</text>
      <circle fill="none" r="15" clip-path="url(#clipPath2)" cx="240" cy="690"/>
    </g>
    <g fill="rgb(51,102,255)" transform="matrix(1,0,0,1,-210,-210)" stroke="rgb(51,102,255)">
      <circle r="15" clip-path="url(#clipPath2)" cx="300" cy="660" stroke="none"/>
    </g>
    <g stroke-miterlimit="1.45" font-family="sans-serif" transform="matrix(1,0,0,1,-210,-210)" stroke-linecap="butt">
      <text x="295.3799" xml:space="preserve" y="664.1543" clip-path="url(#clipPath2)" stroke="none">D</text>
      <circle fill="none" r="15" clip-path="url(#clipPath2)" cx="300" cy="660"/>
    </g>
    <g fill="rgb(51,102,255)" transform="matrix(1,0,0,1,-210,-210)" stroke="rgb(51,102,255)">
      <circle r="15" clip-path="url(#clipPath2)" cx="390" cy="690" stroke="none"/>
    </g>
    <g stroke-miterlimit="1.45" font-family="sans-serif" transform="matrix(1,0,0,1,-210,-210)" stroke-linecap="butt">
      <text x="386.5488" xml:space="preserve" y="694.1543" clip-path="url(#clipPath2)" stroke="none">F</text>
      <circle fill="none" r="15" clip-path="url(#clipPath2)" cx="390" cy="690"/>
    </g>
    <g fill="rgb(51,102,255)" transform="matrix(1,0,0,1,-210,-210)" stroke="rgb(51,102,255)">
      <circle r="15" clip-path="url(#clipPath2)" cx="480" cy="690" stroke="none"/>
    </g>
    <g stroke-miterlimit="1.45" font-family="sans-serif" transform="matrix(1,0,0,1,-210,-210)" stroke-linecap="butt">
      <text x="475.4883" xml:space="preserve" y="694.1543" clip-path="url(#clipPath2)" stroke="none">H</text>
      <circle fill="none" r="15" clip-path="url(#clipPath2)" cx="480" cy="690"/>
    </g>
    <g fill="rgb(51,153,102)" transform="matrix(1,0,0,1,-210,-210)" stroke="rgb(51,153,102)">
      <circle r="15" clip-path="url(#clipPath2)" cx="720" cy="510" stroke="none"/>
    </g>
    <g stroke-miterlimit="1.45" font-family="sans-serif" transform="matrix(1,0,0,1,-210,-210)" stroke-linecap="butt">
      <text x="715.8955" xml:space="preserve" y="514.1543" clip-path="url(#clipPath2)" stroke="none">A</text>
      <circle fill="none" r="15" clip-path="url(#clipPath2)" cx="720" cy="510"/>
      <text x="625.8838" xml:space="preserve" y="574.1543" clip-path="url(#clipPath2)" stroke="none">B</text>
      <circle fill="none" r="15" clip-path="url(#clipPath2)" cx="630" cy="570"/>
      <text x="805.3506" xml:space="preserve" y="604.1543" clip-path="url(#clipPath2)" stroke="none">G</text>
      <circle fill="none" r="15" clip-path="url(#clipPath2)" cx="810" cy="600"/>
      <text x="716.209" xml:space="preserve" y="604.1543" clip-path="url(#clipPath2)" stroke="none">E</text>
      <circle fill="none" r="15" clip-path="url(#clipPath2)" cx="720" cy="600"/>
    </g>
    <g fill="rgb(51,102,255)" transform="matrix(1,0,0,1,-210,-210)" stroke="rgb(51,102,255)">
      <circle r="15" clip-path="url(#clipPath2)" cx="600" cy="690" stroke="none"/>
    </g>
    <g stroke-miterlimit="1.45" font-family="sans-serif" transform="matrix(1,0,0,1,-210,-210)" stroke-linecap="butt">
      <text x="595.8105" xml:space="preserve" y="694.1543" clip-path="url(#clipPath2)" stroke="none">C</text>
      <circle fill="none" r="15" clip-path="url(#clipPath2)" cx="600" cy="690"/>
    </g>
    <g fill="rgb(51,102,255)" transform="matrix(1,0,0,1,-210,-210)" stroke="rgb(51,102,255)">
      <circle r="15" clip-path="url(#clipPath2)" cx="660" cy="660" stroke="none"/>
    </g>
    <g stroke-miterlimit="1.45" font-family="sans-serif" transform="matrix(1,0,0,1,-210,-210)" stroke-linecap="butt">
      <text x="655.3799" xml:space="preserve" y="664.1543" clip-path="url(#clipPath2)" stroke="none">D</text>
      <circle fill="none" r="15" clip-path="url(#clipPath2)" cx="660" cy="660"/>
    </g>
    <g fill="rgb(51,102,255)" transform="matrix(1,0,0,1,-210,-210)" stroke="rgb(51,102,255)">
      <circle r="15" clip-path="url(#clipPath2)" cx="750" cy="690" stroke="none"/>
    </g>
    <g stroke-miterlimit="1.45" font-family="sans-serif" transform="matrix(1,0,0,1,-210,-210)" stroke-linecap="butt">
      <text x="746.5488" xml:space="preserve" y="694.1543" clip-path="url(#clipPath2)" stroke="none">F</text>
      <circle fill="none" r="15" clip-path="url(#clipPath2)" cx="750" cy="690"/>
    </g>
    <g fill="rgb(51,102,255)" transform="matrix(1,0,0,1,-210,-210)" stroke="rgb(51,102,255)">
      <circle r="15" clip-path="url(#clipPath2)" cx="840" cy="690" stroke="none"/>
    </g>
    <g stroke-miterlimit="1.45" font-family="sans-serif" transform="matrix(1,0,0,1,-210,-210)" stroke-linecap="butt">
      <text x="835.4883" xml:space="preserve" y="694.1543" clip-path="url(#clipPath2)" stroke="none">H</text>
      <circle fill="none" r="15" clip-path="url(#clipPath2)" cx="840" cy="690"/>
      <path fill="none" stroke-width="3" d="M470.8013 286.1325 L527.5192 248.3205" clip-path="url(#clipPath2)"/>
      <path stroke-width="3" d="M462.4807 291.6795 L478.4284 288.5594 L471.8413 285.4391 L471.4947 278.1587 Z" clip-path="url(#clipPath2)" stroke="none"/>
      <text x="483.2962" xml:space="preserve" y="261.3495" clip-path="url(#clipPath2)" stroke="none">2</text>
      <path fill="none" stroke-width="3" d="M550.6066 250.6066 L612.3223 312.3223" clip-path="url(#clipPath2)"/>
      <path stroke-width="3" d="M619.3934 319.3934 L613.2062 304.3674 L611.4384 311.4384 L604.3674 313.2062 Z" clip-path="url(#clipPath2)" stroke="none"/>
      <text x="594.2978" xml:space="preserve" y="279.3719" clip-path="url(#clipPath2)" stroke="none">3</text>
    </g>
    <g fill="silver" stroke-width="3" stroke-miterlimit="1.45" transform="matrix(1,0,0,1,-210,-210)" stroke-linecap="butt" stroke="silver">
      <path fill="none" d="M464.2303 304.7434 L525.7698 325.2566" clip-path="url(#clipPath2)"/>
    </g>
    <g stroke-miterlimit="1.45" font-family="sans-serif" transform="matrix(1,0,0,1,-210,-210)" stroke-linecap="butt">
      <text x="495.2706" xml:space="preserve" y="307.8465" clip-path="url(#clipPath2)" stroke="none">3</text>
      <path fill="none" stroke-width="3" d="M540 255 L540 305" clip-path="url(#clipPath2)"/>
      <path stroke-width="3" d="M540 315 L546.25 300 L540 303.75 L533.75 300 Z" clip-path="url(#clipPath2)" stroke="none"/>
      <text x="525.7794" xml:space="preserve" y="287.9479" clip-path="url(#clipPath2)" stroke="none">1</text>
      <path fill="none" stroke-width="3" d="M446.362 314.5521 L426.0634 395.7464" clip-path="url(#clipPath2)"/>
      <path stroke-width="3" d="M423.638 405.4478 L433.3394 392.4116 L426.3665 394.5338 L421.2127 389.3799 Z" clip-path="url(#clipPath2)" stroke="none"/>
      <text x="418.5794" xml:space="preserve" y="358.4247" clip-path="url(#clipPath2)" stroke="none">2</text>
      <path fill="none" stroke-width="3" d="M529.3934 340.6066 L497.6777 372.3223" clip-path="url(#clipPath2)"/>
      <path stroke-width="3" d="M490.6066 379.3934 L505.6326 373.2062 L498.5616 371.4384 L496.7938 364.3674 Z" clip-path="url(#clipPath2)" stroke="none"/>
      <text x="500.4456" xml:space="preserve" y="351.64" clip-path="url(#clipPath2)" stroke="none">1</text>
    </g>
    <g fill="silver" stroke-width="3" stroke-miterlimit="1.45" transform="matrix(1,0,0,1,-210,-210)" stroke-linecap="butt" stroke="silver">
      <path fill="none" d="M466.6515 396.8424 L450 405.3779 L433.4837 413.428" clip-path="url(#clipPath2)"/>
    </g>
    <g stroke-miterlimit="1.45" font-family="sans-serif" transform="matrix(1,0,0,1,-210,-210)" stroke-linecap="butt">
      <text x="439.7928" xml:space="preserve" y="394.7128" clip-path="url(#clipPath2)" stroke="none">3</text>
    </g>
    <g fill="silver" stroke-width="3" stroke-miterlimit="1.45" transform="matrix(1,0,0,1,-210,-210)" stroke-linecap="butt" stroke="silver">
      <path fill="none" d="M544.7434 344.2303 L565.2566 405.7697" clip-path="url(#clipPath2)"/>
    </g>
    <g stroke-miterlimit="1.45" font-family="sans-serif" transform="matrix(1,0,0,1,-210,-210)" stroke-linecap="butt">
      <text x="538.1826" xml:space="preserve" y="383.4103" clip-path="url(#clipPath2)" stroke="none">4</text>
      <path fill="none" stroke-width="3" d="M494.2303 394.7434 L546.2829 412.0943" clip-path="url(#clipPath2)"/>
      <path stroke-width="3" d="M555.7697 415.2566 L543.5159 404.5839 L545.097 411.699 L539.563 416.4424 Z" clip-path="url(#clipPath2)" stroke="none"/>
      <text x="514.8354" xml:space="preserve" y="423.9607" clip-path="url(#clipPath2)" stroke="none">1</text>
    </g>
    <g fill="silver" stroke-width="3" stroke-miterlimit="1.45" transform="matrix(1,0,0,1,-210,-210)" stroke-linecap="butt" stroke="silver">
      <path fill="none" d="M578.3205 407.5193 L621.6795 342.4807" clip-path="url(#clipPath2)"/>
    </g>
    <g stroke-miterlimit="1.45" font-family="sans-serif" transform="matrix(1,0,0,1,-210,-210)" stroke-linecap="butt">
      <text x="585.6962" xml:space="preserve" y="369.4839" clip-path="url(#clipPath2)" stroke="none">2</text>
      <path fill="none" stroke-width="3" d="M634.7434 344.2303 L652.0943 396.2829" clip-path="url(#clipPath2)"/>
      <path stroke-width="3" d="M655.2566 405.7697 L656.4424 389.5631 L651.699 395.0971 L644.5839 393.5159 Z" clip-path="url(#clipPath2)" stroke="none"/>
      <text x="653.2802" xml:space="preserve" y="375.6279" clip-path="url(#clipPath2)" stroke="none">1</text>
    </g>
    <g fill="silver" stroke-width="3" stroke-miterlimit="1.45" transform="matrix(1,0,0,1,-210,-210)" stroke-linecap="butt" stroke="silver">
      <path fill="none" d="M585 420 L645 420" clip-path="url(#clipPath2)"/>
    </g>
    <g stroke-miterlimit="1.45" font-family="sans-serif" transform="matrix(1,0,0,1,-210,-210)" stroke-linecap="butt">
      <text x="610.2722" xml:space="preserve" y="437.8871" clip-path="url(#clipPath2)" stroke="none">4</text>
      <path fill="none" stroke-width="3" d="M290.8013 556.1325 L347.5193 518.3205" clip-path="url(#clipPath2)"/>
      <path stroke-width="3" d="M282.4807 561.6795 L298.4284 558.5593 L291.8413 555.4391 L291.4947 548.1587 Z" clip-path="url(#clipPath2)" stroke="none"/>
    </g>
    <g fill="red" stroke-width="3" stroke-miterlimit="1.45" transform="matrix(1,0,0,1,-210,-210)" stroke-linecap="butt" stroke="red">
      <path fill="none" d="M370.6066 520.6066 L432.3223 582.3223" clip-path="url(#clipPath2)"/>
      <path d="M439.3934 589.3934 L433.2062 574.3674 L431.4384 581.4384 L424.3674 583.2062 Z" clip-path="url(#clipPath2)" stroke="none"/>
    </g>
    <g stroke-miterlimit="1.45" font-family="sans-serif" transform="matrix(1,0,0,1,-210,-210)" stroke-linecap="butt">
      <text x="414.2978" xml:space="preserve" y="549.3719" clip-path="url(#clipPath2)" stroke="none">3</text>
    </g>
    <g fill="silver" stroke-width="3" stroke-miterlimit="1.45" transform="matrix(1,0,0,1,-210,-210)" stroke-linecap="butt" stroke="silver">
      <path fill="none" d="M284.2303 574.7434 L345.7697 595.2566" clip-path="url(#clipPath2)"/>
      <path fill="none" d="M360 525 L360 575" clip-path="url(#clipPath2)" stroke="black"/>
      <path fill="black" d="M360 585 L366.25 570 L360 573.75 L353.75 570 Z" clip-path="url(#clipPath2)" stroke="none"/>
      <path fill="none" d="M266.362 584.5521 L246.0634 665.7465" clip-path="url(#clipPath2)" stroke="black"/>
      <path fill="black" d="M243.638 675.4479 L253.3395 662.4116 L246.3666 664.5338 L241.2127 659.3799 Z" clip-path="url(#clipPath2)" stroke="none"/>
      <path fill="none" d="M349.3934 610.6066 L317.6777 642.3223" clip-path="url(#clipPath2)" stroke="black"/>
      <path fill="black" d="M310.6066 649.3934 L325.6326 643.2062 L318.5616 641.4384 L316.7938 634.3674 Z" clip-path="url(#clipPath2)" stroke="none"/>
      <path fill="none" d="M286.6515 666.8424 L270 675.3779 L253.4837 683.428" clip-path="url(#clipPath2)"/>
      <path fill="none" d="M364.7434 614.2302 L385.2566 675.7698" clip-path="url(#clipPath2)"/>
      <path fill="none" d="M314.2303 664.7434 L366.2829 682.0943" clip-path="url(#clipPath2)" stroke="black"/>
      <path fill="black" d="M375.7697 685.2566 L363.5159 674.5839 L365.0971 681.699 L359.5631 686.4424 Z" clip-path="url(#clipPath2)" stroke="none"/>
      <path fill="none" d="M398.3205 677.5192 L441.6795 612.4808" clip-path="url(#clipPath2)"/>
    </g>
    <g stroke-miterlimit="1.45" font-family="sans-serif" transform="matrix(1,0,0,1,-210,-210)" stroke-linecap="butt">
      <text x="405.6962" xml:space="preserve" y="639.4839" clip-path="url(#clipPath2)" stroke="none">2</text>
    </g>
    <g fill="red" stroke-width="3" stroke-miterlimit="1.45" transform="matrix(1,0,0,1,-210,-210)" stroke-linecap="butt" stroke="red">
      <path fill="none" d="M454.7434 614.2302 L472.0943 666.2829" clip-path="url(#clipPath2)"/>
      <path d="M475.2566 675.7697 L476.4424 659.563 L471.699 665.097 L464.5839 663.5159 Z" clip-path="url(#clipPath2)" stroke="none"/>
    </g>
    <g stroke-miterlimit="1.45" font-family="sans-serif" transform="matrix(1,0,0,1,-210,-210)" stroke-linecap="butt">
      <text x="473.2802" xml:space="preserve" y="645.6279" clip-path="url(#clipPath2)" stroke="none">1</text>
    </g>
    <g fill="silver" stroke-width="3" stroke-miterlimit="1.45" transform="matrix(1,0,0,1,-210,-210)" stroke-linecap="butt" stroke="silver">
      <path fill="none" d="M405 690 L465 690" clip-path="url(#clipPath2)"/>
    </g>
    <g stroke-miterlimit="1.45" font-family="sans-serif" transform="matrix(1,0,0,1,-210,-210)" stroke-linecap="butt">
      <text x="430.2722" xml:space="preserve" y="707.8871" clip-path="url(#clipPath2)" stroke="none">4</text>
      <path fill="none" stroke-width="3" d="M650.8013 556.1325 L707.5192 518.3205" clip-path="url(#clipPath2)"/>
      <path stroke-width="3" d="M642.4808 561.6795 L658.4284 558.5593 L651.8414 555.4391 L651.4946 548.1587 Z" clip-path="url(#clipPath2)" stroke="none"/>
    </g>
    <g fill="silver" stroke-width="3" stroke-miterlimit="1.45" transform="matrix(1,0,0,1,-210,-210)" stroke-linecap="butt" stroke="silver">
      <path fill="none" d="M730.6066 520.6066 L799.3934 589.3934" clip-path="url(#clipPath2)"/>
    </g>
    <g stroke-miterlimit="1.45" font-family="sans-serif" transform="matrix(1,0,0,1,-210,-210)" stroke-linecap="butt">
      <text x="774.2978" xml:space="preserve" y="549.3719" clip-path="url(#clipPath2)" stroke="none">3</text>
    </g>
    <g fill="silver" stroke-width="3" stroke-miterlimit="1.45" transform="matrix(1,0,0,1,-210,-210)" stroke-linecap="butt" stroke="silver">
      <path fill="none" d="M644.2302 574.7434 L705.7698 595.2566" clip-path="url(#clipPath2)"/>
      <path fill="none" d="M720 525 L720 575" clip-path="url(#clipPath2)" stroke="black"/>
      <path fill="black" d="M720 585 L726.25 570 L720 573.75 L713.75 570 Z" clip-path="url(#clipPath2)" stroke="none"/>
      <path fill="none" d="M626.3619 584.5521 L606.0634 665.7465" clip-path="url(#clipPath2)" stroke="black"/>
      <path fill="black" d="M603.6381 675.4479 L613.3395 662.4116 L606.3666 664.5338 L601.2127 659.3799 Z" clip-path="url(#clipPath2)" stroke="none"/>
      <path fill="none" d="M709.3934 610.6066 L677.6777 642.3223" clip-path="url(#clipPath2)" stroke="black"/>
      <path fill="black" d="M670.6066 649.3934 L685.6326 643.2062 L678.5616 641.4384 L676.7938 634.3674 Z" clip-path="url(#clipPath2)" stroke="none"/>
      <path fill="none" d="M646.6516 666.8424 L630 675.3779 L613.4836 683.428" clip-path="url(#clipPath2)"/>
      <path fill="none" d="M724.7434 614.2302 L745.2566 675.7698" clip-path="url(#clipPath2)"/>
      <path fill="none" d="M674.2302 664.7434 L726.2829 682.0943" clip-path="url(#clipPath2)" stroke="black"/>
      <path fill="black" d="M735.7697 685.2566 L723.5159 674.5839 L725.097 681.699 L719.563 686.4424 Z" clip-path="url(#clipPath2)" stroke="none"/>
      <path fill="none" d="M758.3205 677.5192 L796.1325 620.8013" clip-path="url(#clipPath2)" stroke="blue"/>
      <path fill="blue" d="M801.6795 612.4808 L788.1587 621.4946 L795.4391 621.8414 L798.5593 628.4284 Z" clip-path="url(#clipPath2)" stroke="none"/>
    </g>
    <g stroke-miterlimit="1.45" font-family="sans-serif" transform="matrix(1,0,0,1,-210,-210)" stroke-linecap="butt">
      <text x="765.6962" xml:space="preserve" y="639.4839" clip-path="url(#clipPath2)" stroke="none">2</text>
    </g>
    <g fill="blue" stroke-width="3" stroke-miterlimit="1.45" transform="matrix(1,0,0,1,-210,-210)" stroke-linecap="butt" stroke="blue">
      <path fill="none" d="M814.7434 614.2302 L832.0943 666.2829" clip-path="url(#clipPath2)"/>
      <path d="M835.2566 675.7697 L836.4424 659.563 L831.699 665.097 L824.5839 663.5159 Z" clip-path="url(#clipPath2)" stroke="none"/>
    </g>
    <g stroke-miterlimit="1.45" font-family="sans-serif" transform="matrix(1,0,0,1,-210,-210)" stroke-linecap="butt">
      <text x="833.2802" xml:space="preserve" y="645.6279" clip-path="url(#clipPath2)" stroke="none">1</text>
    </g>
    <g fill="silver" stroke-width="3" stroke-miterlimit="1.45" transform="matrix(1,0,0,1,-210,-210)" stroke-linecap="butt" stroke="silver">
      <path fill="none" d="M765 690 L825 690" clip-path="url(#clipPath2)"/>
    </g>
    <g stroke-miterlimit="1.45" font-family="sans-serif" transform="matrix(1,0,0,1,-210,-210)" stroke-linecap="butt">
      <text x="790.2722" xml:space="preserve" y="707.8871" clip-path="url(#clipPath2)" stroke="none">4</text>
    </g>
    <g fill="gray" stroke-width="3" stroke-miterlimit="1.45" transform="matrix(1,0,0,1,-210,-210)" stroke-linecap="butt" stroke="gray">
      <path fill="none" d="M470.3972 449.5233 L436.0046 490.7945" clip-path="url(#clipPath2)"/>
      <path d="M429.6028 498.4767 L444.0069 490.9545 L436.8048 489.8342 L434.4041 482.9522 Z" clip-path="url(#clipPath2)" stroke="none"/>
      <path fill="none" d="M505 600 L563.4 600" clip-path="url(#clipPath2)"/>
      <path d="M573.4 600 L558.4 593.75 L562.15 600 L558.4 606.25 Z" clip-path="url(#clipPath2)" stroke="none"/>
    </g>
  </g>
</svg>
