<?xml version="1.0" encoding="UTF-8"?><svg xmlns="http://www.w3.org/2000/svg" xmlns:xlink="http://www.w3.org/1999/xlink" fill-opacity="1" color-rendering="auto" color-interpolation="auto" stroke="black" text-rendering="auto" stroke-linecap="square" width="690" stroke-miterlimit="10" stroke-opacity="1" shape-rendering="auto" fill="black" stroke-dasharray="none" font-weight="normal" stroke-width="1" height="240" font-family="'Dialog'" font-style="normal" stroke-linejoin="miter" font-size="12" stroke-dashoffset="0" image-rendering="auto">
  <!--Generated by ySVG-->
  <defs id="genericDefs"/>
  <g>
    <defs id="defs1">
      <clipPath clipPathUnits="userSpaceOnUse" id="clipPath1">
        <path d="M0 0 L690 0 L690 240 L0 240 L0 0 Z"/>
      </clipPath>
      <clipPath clipPathUnits="userSpaceOnUse" id="clipPath2">
        <path d="M540 570 L1230 570 L1230 810 L540 810 L540 570 Z"/>
      </clipPath>
    </defs>
    <g fill="white" transform="translate(-540,-570)" stroke="white">
      <rect x="540" width="690" height="240" y="570" clip-path="url(#clipPath2)" stroke="none"/>
    </g>
    <g fill="red" transform="matrix(1,0,0,1,-540,-570)" stroke="red">
      <circle r="15" clip-path="url(#clipPath2)" cx="810" cy="780" stroke="none"/>
    </g>
    <g stroke-miterlimit="1.45" font-family="sans-serif" transform="matrix(1,0,0,1,-540,-570)" stroke-linecap="butt">
      <text x="805.4883" xml:space="preserve" y="784.1543" clip-path="url(#clipPath2)" stroke="none">H</text>
      <circle fill="none" r="15" clip-path="url(#clipPath2)" cx="810" cy="780"/>
    </g>
    <g fill="rgb(51,102,255)" transform="matrix(1,0,0,1,-540,-570)" stroke="rgb(51,102,255)">
      <circle r="15" clip-path="url(#clipPath2)" cx="720" cy="780" stroke="none"/>
    </g>
    <g stroke-miterlimit="1.45" font-family="sans-serif" transform="matrix(1,0,0,1,-540,-570)" stroke-linecap="butt">
      <text x="716.5488" xml:space="preserve" y="784.1543" clip-path="url(#clipPath2)" stroke="none">F</text>
      <circle fill="none" r="15" clip-path="url(#clipPath2)" cx="720" cy="780"/>
    </g>
    <g fill="rgb(51,102,255)" transform="matrix(1,0,0,1,-540,-570)" stroke="rgb(51,102,255)">
      <circle r="15" clip-path="url(#clipPath2)" cx="630" cy="750" stroke="none"/>
    </g>
    <g stroke-miterlimit="1.45" font-family="sans-serif" transform="matrix(1,0,0,1,-540,-570)" stroke-linecap="butt">
      <text x="625.3799" xml:space="preserve" y="754.1543" clip-path="url(#clipPath2)" stroke="none">D</text>
      <circle fill="none" r="15" clip-path="url(#clipPath2)" cx="630" cy="750"/>
    </g>
    <g fill="rgb(51,102,255)" transform="matrix(1,0,0,1,-540,-570)" stroke="rgb(51,102,255)">
      <circle r="15" clip-path="url(#clipPath2)" cx="570" cy="780" stroke="none"/>
    </g>
    <g stroke-miterlimit="1.45" font-family="sans-serif" transform="matrix(1,0,0,1,-540,-570)" stroke-linecap="butt">
      <text x="565.8105" xml:space="preserve" y="784.1543" clip-path="url(#clipPath2)" stroke="none">C</text>
      <circle fill="none" r="15" clip-path="url(#clipPath2)" cx="570" cy="780"/>
      <text x="686.209" xml:space="preserve" y="694.1543" clip-path="url(#clipPath2)" stroke="none">E</text>
      <circle fill="none" r="15" clip-path="url(#clipPath2)" cx="690" cy="690"/>
      <text x="775.3506" xml:space="preserve" y="694.1543" clip-path="url(#clipPath2)" stroke="none">G</text>
      <circle fill="none" r="15" clip-path="url(#clipPath2)" cx="780" cy="690"/>
      <text x="595.8838" xml:space="preserve" y="664.1543" clip-path="url(#clipPath2)" stroke="none">B</text>
      <circle fill="none" r="15" clip-path="url(#clipPath2)" cx="600" cy="660"/>
    </g>
    <g fill="rgb(51,153,102)" transform="matrix(1,0,0,1,-540,-570)" stroke="rgb(51,153,102)">
      <circle r="15" clip-path="url(#clipPath2)" cx="690" cy="600" stroke="none"/>
    </g>
    <g stroke-miterlimit="1.45" font-family="sans-serif" transform="matrix(1,0,0,1,-540,-570)" stroke-linecap="butt">
      <text x="685.8955" xml:space="preserve" y="604.1543" clip-path="url(#clipPath2)" stroke="none">A</text>
      <circle fill="none" r="15" clip-path="url(#clipPath2)" cx="690" cy="600"/>
      <text x="1195.4883" xml:space="preserve" y="784.1543" clip-path="url(#clipPath2)" stroke="none">H</text>
      <circle fill="none" r="15" clip-path="url(#clipPath2)" cx="1200" cy="780"/>
    </g>
    <g fill="rgb(51,102,255)" transform="matrix(1,0,0,1,-540,-570)" stroke="rgb(51,102,255)">
      <circle r="15" clip-path="url(#clipPath2)" cx="1110" cy="780" stroke="none"/>
    </g>
    <g stroke-miterlimit="1.45" font-family="sans-serif" transform="matrix(1,0,0,1,-540,-570)" stroke-linecap="butt">
      <text x="1106.5488" xml:space="preserve" y="784.1543" clip-path="url(#clipPath2)" stroke="none">F</text>
      <circle fill="none" r="15" clip-path="url(#clipPath2)" cx="1110" cy="780"/>
    </g>
    <g fill="rgb(51,102,255)" transform="matrix(1,0,0,1,-540,-570)" stroke="rgb(51,102,255)">
      <circle r="15" clip-path="url(#clipPath2)" cx="1020" cy="750" stroke="none"/>
    </g>
    <g stroke-miterlimit="1.45" font-family="sans-serif" transform="matrix(1,0,0,1,-540,-570)" stroke-linecap="butt">
      <text x="1015.3799" xml:space="preserve" y="754.1543" clip-path="url(#clipPath2)" stroke="none">D</text>
      <circle fill="none" r="15" clip-path="url(#clipPath2)" cx="1020" cy="750"/>
    </g>
    <g fill="rgb(51,102,255)" transform="matrix(1,0,0,1,-540,-570)" stroke="rgb(51,102,255)">
      <circle r="15" clip-path="url(#clipPath2)" cx="960" cy="780" stroke="none"/>
    </g>
    <g stroke-miterlimit="1.45" font-family="sans-serif" transform="matrix(1,0,0,1,-540,-570)" stroke-linecap="butt">
      <text x="955.8105" xml:space="preserve" y="784.1543" clip-path="url(#clipPath2)" stroke="none">C</text>
      <circle fill="none" r="15" clip-path="url(#clipPath2)" cx="960" cy="780"/>
      <text x="1076.209" xml:space="preserve" y="694.1543" clip-path="url(#clipPath2)" stroke="none">E</text>
      <circle fill="none" r="15" clip-path="url(#clipPath2)" cx="1080" cy="690"/>
      <text x="1165.3506" xml:space="preserve" y="694.1543" clip-path="url(#clipPath2)" stroke="none">G</text>
      <circle fill="none" r="15" clip-path="url(#clipPath2)" cx="1170" cy="690"/>
      <text x="985.8838" xml:space="preserve" y="664.1543" clip-path="url(#clipPath2)" stroke="none">B</text>
      <circle fill="none" r="15" clip-path="url(#clipPath2)" cx="990" cy="660"/>
    </g>
    <g fill="rgb(51,153,102)" transform="matrix(1,0,0,1,-540,-570)" stroke="rgb(51,153,102)">
      <circle r="15" clip-path="url(#clipPath2)" cx="1080" cy="600" stroke="none"/>
    </g>
    <g stroke-miterlimit="1.45" font-family="sans-serif" transform="matrix(1,0,0,1,-540,-570)" stroke-linecap="butt">
      <text x="1075.8955" xml:space="preserve" y="604.1543" clip-path="url(#clipPath2)" stroke="none">A</text>
      <circle fill="none" r="15" clip-path="url(#clipPath2)" cx="1080" cy="600"/>
      <text x="838.0928" xml:space="preserve" y="694.1543" clip-path="url(#clipPath2)" stroke="none"> </text>
      <text x="928.0928" xml:space="preserve" y="694.1543" clip-path="url(#clipPath2)" stroke="none"> </text>
    </g>
    <g fill="gray" stroke-width="3" stroke-miterlimit="1.45" transform="matrix(1,0,0,1,-540,-570)" stroke-linecap="butt" stroke="gray">
      <path fill="none" d="M735 780 L795 780" clip-path="url(#clipPath2)"/>
      <path fill="none" d="M644.2302 754.7434 L696.2829 772.0943" clip-path="url(#clipPath2)" stroke="black"/>
      <path fill="black" d="M705.7697 775.2566 L693.5159 764.5839 L695.097 771.699 L689.563 776.4424 Z" clip-path="url(#clipPath2)" stroke="none"/>
      <path fill="none" d="M616.6516 756.8424 L600 765.3779 L592.4728 769.0467" clip-path="url(#clipPath2)" stroke="black"/>
      <path fill="black" d="M583.4837 773.428 L599.7057 772.4742 L593.5964 768.499 L594.229 761.2379 Z" clip-path="url(#clipPath2)" stroke="none"/>
      <path fill="none" d="M679.3934 700.6066 L647.6777 732.3223" clip-path="url(#clipPath2)" stroke="black"/>
      <path fill="black" d="M640.6066 739.3934 L655.6326 733.2062 L648.5616 731.4384 L646.7938 724.3674 Z" clip-path="url(#clipPath2)" stroke="none"/>
      <path fill="none" d="M694.7434 704.2302 L715.2566 765.7698" clip-path="url(#clipPath2)"/>
      <path fill="none" d="M728.3205 767.5192 L766.1325 710.8013" clip-path="url(#clipPath2)" stroke="black"/>
      <path fill="black" d="M771.6795 702.4808 L758.1587 711.4946 L765.4391 711.8414 L768.5593 718.4284 Z" clip-path="url(#clipPath2)" stroke="none"/>
      <path fill="none" d="M784.7434 704.2302 L802.0943 756.2829" clip-path="url(#clipPath2)" stroke="black"/>
      <path fill="black" d="M805.2566 765.7697 L806.4424 749.563 L801.699 755.097 L794.5839 753.5159 Z" clip-path="url(#clipPath2)" stroke="none"/>
      <path fill="none" d="M614.2302 664.7434 L675.7698 685.2566" clip-path="url(#clipPath2)"/>
      <path fill="none" d="M596.3619 674.5521 L573.6381 765.4479" clip-path="url(#clipPath2)"/>
      <path fill="none" d="M612.4808 651.6795 L677.5192 608.3205" clip-path="url(#clipPath2)"/>
      <path fill="none" d="M700.6066 610.6066 L769.3934 679.3934" clip-path="url(#clipPath2)"/>
      <path fill="none" d="M690 615 L690 665" clip-path="url(#clipPath2)" stroke="black"/>
      <path fill="black" d="M690 675 L696.25 660 L690 663.75 L683.75 660 Z" clip-path="url(#clipPath2)" stroke="none"/>
      <path fill="none" d="M1125 780 L1185 780" clip-path="url(#clipPath2)"/>
      <path fill="none" d="M1034.2302 754.7434 L1086.283 772.0943" clip-path="url(#clipPath2)" stroke="black"/>
      <path fill="black" d="M1095.7698 775.2566 L1083.516 764.5839 L1085.097 771.699 L1079.5631 776.4424 Z" clip-path="url(#clipPath2)" stroke="none"/>
      <path fill="none" d="M1006.6516 756.8424 L990 765.3779 L982.4728 769.0467" clip-path="url(#clipPath2)" stroke="black"/>
      <path fill="black" d="M973.4837 773.428 L989.7057 772.4742 L983.5964 768.499 L984.229 761.2379 Z" clip-path="url(#clipPath2)" stroke="none"/>
      <path fill="none" d="M1069.3934 700.6066 L1037.6776 732.3223" clip-path="url(#clipPath2)" stroke="black"/>
      <path fill="black" d="M1030.6066 739.3934 L1045.6326 733.2062 L1038.5615 731.4384 L1036.7937 724.3674 Z" clip-path="url(#clipPath2)" stroke="none"/>
      <path fill="none" d="M1084.7434 704.2302 L1105.2566 765.7698" clip-path="url(#clipPath2)"/>
      <path fill="none" d="M1118.3206 767.5192 L1161.6794 702.4808" clip-path="url(#clipPath2)"/>
      <path fill="none" d="M1174.7434 704.2302 L1195.2566 765.7698" clip-path="url(#clipPath2)"/>
      <path fill="none" d="M1004.2302 664.7434 L1065.7698 685.2566" clip-path="url(#clipPath2)"/>
      <path fill="none" d="M986.3619 674.5521 L963.6381 765.4479" clip-path="url(#clipPath2)"/>
      <path fill="none" d="M1002.4808 651.6795 L1067.5193 608.3205" clip-path="url(#clipPath2)"/>
      <path fill="none" d="M1090.6066 610.6066 L1159.3934 679.3934" clip-path="url(#clipPath2)"/>
      <path fill="none" d="M1080 615 L1080 665" clip-path="url(#clipPath2)" stroke="black"/>
      <path fill="black" d="M1080 675 L1086.25 660 L1080 663.75 L1073.75 660 Z" clip-path="url(#clipPath2)" stroke="none"/>
      <path fill="none" d="M855 690 L905 690" clip-path="url(#clipPath2)"/>
      <path d="M915 690 L900 683.75 L903.75 690 L900 696.25 Z" clip-path="url(#clipPath2)" stroke="none"/>
    </g>
  </g>
</svg>
