<?xml version="1.0" encoding="UTF-8"?><svg xmlns="http://www.w3.org/2000/svg" xmlns:xlink="http://www.w3.org/1999/xlink" fill-opacity="1" color-rendering="auto" color-interpolation="auto" stroke="black" text-rendering="auto" stroke-linecap="square" width="690" stroke-miterlimit="10" stroke-opacity="1" shape-rendering="auto" fill="black" stroke-dasharray="none" font-weight="normal" stroke-width="1" height="240" font-family="'Dialog'" font-style="normal" stroke-linejoin="miter" font-size="12" stroke-dashoffset="0" image-rendering="auto">
  <!--Generated by ySVG-->
  <defs id="genericDefs"/>
  <g>
    <defs id="defs1">
      <clipPath clipPathUnits="userSpaceOnUse" id="clipPath1">
        <path d="M0 0 L690 0 L690 240 L0 240 L0 0 Z"/>
      </clipPath>
      <clipPath clipPathUnits="userSpaceOnUse" id="clipPath2">
        <path d="M540 870 L1230 870 L1230 1110 L540 1110 L540 870 Z"/>
      </clipPath>
    </defs>
    <g fill="white" transform="translate(-540,-870)" stroke="white">
      <rect x="540" width="690" height="240" y="870" clip-path="url(#clipPath2)" stroke="none"/>
    </g>
    <g stroke-miterlimit="1.45" font-family="sans-serif" transform="matrix(1,0,0,1,-540,-870)" stroke-linecap="butt">
      <text x="928.0928" xml:space="preserve" y="994.1543" clip-path="url(#clipPath2)" stroke="none"> </text>
      <text x="838.0928" xml:space="preserve" y="994.1543" clip-path="url(#clipPath2)" stroke="none"> </text>
    </g>
    <g fill="rgb(51,153,102)" transform="matrix(1,0,0,1,-540,-870)" stroke="rgb(51,153,102)">
      <circle r="15" clip-path="url(#clipPath2)" cx="1080" cy="900" stroke="none"/>
    </g>
    <g stroke-miterlimit="1.45" font-family="sans-serif" transform="matrix(1,0,0,1,-540,-870)" stroke-linecap="butt">
      <text x="1075.8955" xml:space="preserve" y="904.1543" clip-path="url(#clipPath2)" stroke="none">A</text>
      <circle fill="none" r="15" clip-path="url(#clipPath2)" cx="1080" cy="900"/>
      <text x="985.8838" xml:space="preserve" y="964.1543" clip-path="url(#clipPath2)" stroke="none">B</text>
      <circle fill="none" r="15" clip-path="url(#clipPath2)" cx="990" cy="960"/>
      <text x="1165.3506" xml:space="preserve" y="994.1543" clip-path="url(#clipPath2)" stroke="none">G</text>
      <circle fill="none" r="15" clip-path="url(#clipPath2)" cx="1170" cy="990"/>
      <text x="1076.209" xml:space="preserve" y="994.1543" clip-path="url(#clipPath2)" stroke="none">E</text>
      <circle fill="none" r="15" clip-path="url(#clipPath2)" cx="1080" cy="990"/>
    </g>
    <g fill="rgb(51,102,255)" transform="matrix(1,0,0,1,-540,-870)" stroke="rgb(51,102,255)">
      <circle r="15" clip-path="url(#clipPath2)" cx="960" cy="1080" stroke="none"/>
    </g>
    <g stroke-miterlimit="1.45" font-family="sans-serif" transform="matrix(1,0,0,1,-540,-870)" stroke-linecap="butt">
      <text x="955.8105" xml:space="preserve" y="1084.1543" clip-path="url(#clipPath2)" stroke="none">C</text>
      <circle fill="none" r="15" clip-path="url(#clipPath2)" cx="960" cy="1080"/>
    </g>
    <g fill="rgb(51,102,255)" transform="matrix(1,0,0,1,-540,-870)" stroke="rgb(51,102,255)">
      <circle r="15" clip-path="url(#clipPath2)" cx="1020" cy="1050" stroke="none"/>
    </g>
    <g stroke-miterlimit="1.45" font-family="sans-serif" transform="matrix(1,0,0,1,-540,-870)" stroke-linecap="butt">
      <text x="1015.3799" xml:space="preserve" y="1054.1543" clip-path="url(#clipPath2)" stroke="none">D</text>
      <circle fill="none" r="15" clip-path="url(#clipPath2)" cx="1020" cy="1050"/>
      <text x="1106.5488" xml:space="preserve" y="1084.1543" clip-path="url(#clipPath2)" stroke="none">F</text>
      <circle fill="none" r="15" clip-path="url(#clipPath2)" cx="1110" cy="1080"/>
    </g>
    <g fill="rgb(51,102,255)" transform="matrix(1,0,0,1,-540,-870)" stroke="rgb(51,102,255)">
      <circle r="15" clip-path="url(#clipPath2)" cx="1200" cy="1080" stroke="none"/>
    </g>
    <g stroke-miterlimit="1.45" font-family="sans-serif" transform="matrix(1,0,0,1,-540,-870)" stroke-linecap="butt">
      <text x="1195.4883" xml:space="preserve" y="1084.1543" clip-path="url(#clipPath2)" stroke="none">H</text>
      <circle fill="none" r="15" clip-path="url(#clipPath2)" cx="1200" cy="1080"/>
    </g>
    <g fill="rgb(51,153,102)" transform="matrix(1,0,0,1,-540,-870)" stroke="rgb(51,153,102)">
      <circle r="15" clip-path="url(#clipPath2)" cx="690" cy="900" stroke="none"/>
    </g>
    <g stroke-miterlimit="1.45" font-family="sans-serif" transform="matrix(1,0,0,1,-540,-870)" stroke-linecap="butt">
      <text x="685.8955" xml:space="preserve" y="904.1543" clip-path="url(#clipPath2)" stroke="none">A</text>
      <circle fill="none" r="15" clip-path="url(#clipPath2)" cx="690" cy="900"/>
      <text x="595.8838" xml:space="preserve" y="964.1543" clip-path="url(#clipPath2)" stroke="none">B</text>
      <circle fill="none" r="15" clip-path="url(#clipPath2)" cx="600" cy="960"/>
      <text x="775.3506" xml:space="preserve" y="994.1543" clip-path="url(#clipPath2)" stroke="none">G</text>
      <circle fill="none" r="15" clip-path="url(#clipPath2)" cx="780" cy="990"/>
      <text x="686.209" xml:space="preserve" y="994.1543" clip-path="url(#clipPath2)" stroke="none">E</text>
      <circle fill="none" r="15" clip-path="url(#clipPath2)" cx="690" cy="990"/>
    </g>
    <g fill="rgb(51,102,255)" transform="matrix(1,0,0,1,-540,-870)" stroke="rgb(51,102,255)">
      <circle r="15" clip-path="url(#clipPath2)" cx="570" cy="1080" stroke="none"/>
    </g>
    <g stroke-miterlimit="1.45" font-family="sans-serif" transform="matrix(1,0,0,1,-540,-870)" stroke-linecap="butt">
      <text x="565.8105" xml:space="preserve" y="1084.1543" clip-path="url(#clipPath2)" stroke="none">C</text>
      <circle fill="none" r="15" clip-path="url(#clipPath2)" cx="570" cy="1080"/>
    </g>
    <g fill="rgb(51,102,255)" transform="matrix(1,0,0,1,-540,-870)" stroke="rgb(51,102,255)">
      <circle r="15" clip-path="url(#clipPath2)" cx="630" cy="1050" stroke="none"/>
    </g>
    <g stroke-miterlimit="1.45" font-family="sans-serif" transform="matrix(1,0,0,1,-540,-870)" stroke-linecap="butt">
      <text x="625.3799" xml:space="preserve" y="1054.1543" clip-path="url(#clipPath2)" stroke="none">D</text>
      <circle fill="none" r="15" clip-path="url(#clipPath2)" cx="630" cy="1050"/>
    </g>
    <g fill="red" transform="matrix(1,0,0,1,-540,-870)" stroke="red">
      <circle r="15" clip-path="url(#clipPath2)" cx="720" cy="1080" stroke="none"/>
    </g>
    <g stroke-miterlimit="1.45" font-family="sans-serif" transform="matrix(1,0,0,1,-540,-870)" stroke-linecap="butt">
      <text x="716.5488" xml:space="preserve" y="1084.1543" clip-path="url(#clipPath2)" stroke="none">F</text>
      <circle fill="none" r="15" clip-path="url(#clipPath2)" cx="720" cy="1080"/>
    </g>
    <g fill="rgb(51,102,255)" transform="matrix(1,0,0,1,-540,-870)" stroke="rgb(51,102,255)">
      <circle r="15" clip-path="url(#clipPath2)" cx="810" cy="1080" stroke="none"/>
    </g>
    <g stroke-miterlimit="1.45" font-family="sans-serif" transform="matrix(1,0,0,1,-540,-870)" stroke-linecap="butt">
      <text x="805.4883" xml:space="preserve" y="1084.1543" clip-path="url(#clipPath2)" stroke="none">H</text>
      <circle fill="none" r="15" clip-path="url(#clipPath2)" cx="810" cy="1080"/>
    </g>
    <g fill="gray" stroke-width="3" stroke-miterlimit="1.45" transform="matrix(1,0,0,1,-540,-870)" stroke-linecap="butt" stroke="gray">
      <path fill="none" d="M855 990 L905 990" clip-path="url(#clipPath2)"/>
      <path d="M915 990 L900 983.75 L903.75 990 L900 996.25 Z" clip-path="url(#clipPath2)" stroke="none"/>
      <path fill="none" d="M1002.4808 951.6795 L1067.5193 908.3205" clip-path="url(#clipPath2)"/>
      <path fill="none" d="M1090.6066 910.6066 L1159.3934 979.3934" clip-path="url(#clipPath2)"/>
      <path fill="none" d="M1080 915 L1080 965" clip-path="url(#clipPath2)" stroke="black"/>
      <path fill="black" d="M1080 975 L1086.25 960 L1080 963.75 L1073.75 960 Z" clip-path="url(#clipPath2)" stroke="none"/>
      <path fill="none" d="M1004.2302 964.7434 L1065.7698 985.2566" clip-path="url(#clipPath2)"/>
      <path fill="none" d="M986.3619 974.5521 L963.6381 1065.4479" clip-path="url(#clipPath2)"/>
      <path fill="none" d="M1069.3934 1000.6066 L1037.6776 1032.3224" clip-path="url(#clipPath2)" stroke="black"/>
      <path fill="black" d="M1030.6066 1039.3934 L1045.6326 1033.2063 L1038.5615 1031.4385 L1036.7937 1024.3674 Z" clip-path="url(#clipPath2)" stroke="none"/>
      <path fill="none" d="M1006.6516 1056.8424 L990 1065.3779 L982.4728 1069.0468" clip-path="url(#clipPath2)" stroke="black"/>
      <path fill="black" d="M973.4836 1073.428 L989.7056 1072.4744 L983.5964 1068.4991 L984.2291 1061.2379 Z" clip-path="url(#clipPath2)" stroke="none"/>
      <path fill="none" d="M1034.2302 1054.7434 L1086.283 1072.0944" clip-path="url(#clipPath2)" stroke="black"/>
      <path fill="black" d="M1095.7698 1075.2566 L1083.5159 1064.584 L1085.097 1071.6991 L1079.5631 1076.4425 Z" clip-path="url(#clipPath2)" stroke="none"/>
      <path fill="none" d="M1084.7434 1004.2302 L1105.2566 1065.7698" clip-path="url(#clipPath2)"/>
      <path fill="none" d="M1118.3206 1067.5193 L1156.1324 1010.8013" clip-path="url(#clipPath2)" stroke="black"/>
      <path fill="black" d="M1161.6794 1002.4808 L1148.1586 1011.4946 L1155.4391 1011.8414 L1158.5592 1018.4284 Z" clip-path="url(#clipPath2)" stroke="none"/>
      <path fill="none" d="M1125 1080 L1185 1080" clip-path="url(#clipPath2)"/>
      <path fill="none" d="M1174.7434 1004.2302 L1192.0944 1056.283" clip-path="url(#clipPath2)" stroke="black"/>
      <path fill="black" d="M1195.2566 1065.7698 L1196.4425 1049.5631 L1191.6991 1055.097 L1184.584 1053.5159 Z" clip-path="url(#clipPath2)" stroke="none"/>
      <path fill="none" d="M612.4808 951.6795 L677.5192 908.3205" clip-path="url(#clipPath2)"/>
      <path fill="none" d="M700.6066 910.6066 L769.3934 979.3934" clip-path="url(#clipPath2)"/>
      <path fill="none" d="M690 915 L690 965" clip-path="url(#clipPath2)" stroke="black"/>
      <path fill="black" d="M690 975 L696.25 960 L690 963.75 L683.75 960 Z" clip-path="url(#clipPath2)" stroke="none"/>
      <path fill="none" d="M614.2302 964.7434 L675.7698 985.2566" clip-path="url(#clipPath2)"/>
      <path fill="none" d="M596.3619 974.5521 L573.6381 1065.4479" clip-path="url(#clipPath2)"/>
      <path fill="none" d="M679.3934 1000.6066 L647.6777 1032.3224" clip-path="url(#clipPath2)" stroke="black"/>
      <path fill="black" d="M640.6066 1039.3934 L655.6326 1033.2063 L648.5616 1031.4385 L646.7938 1024.3674 Z" clip-path="url(#clipPath2)" stroke="none"/>
      <path fill="none" d="M616.6516 1056.8424 L600 1065.3779 L592.4728 1069.0468" clip-path="url(#clipPath2)" stroke="black"/>
      <path fill="black" d="M583.4836 1073.428 L599.7056 1072.4744 L593.5964 1068.4991 L594.2291 1061.2379 Z" clip-path="url(#clipPath2)" stroke="none"/>
      <path fill="none" d="M644.2302 1054.7434 L696.2829 1072.0944" clip-path="url(#clipPath2)" stroke="black"/>
      <path fill="black" d="M705.7698 1075.2566 L693.5159 1064.584 L695.097 1071.6991 L689.5631 1076.4425 Z" clip-path="url(#clipPath2)" stroke="none"/>
      <path fill="none" d="M694.7434 1004.2302 L715.2566 1065.7698" clip-path="url(#clipPath2)"/>
      <path fill="none" d="M728.3205 1067.5193 L766.1325 1010.8013" clip-path="url(#clipPath2)" stroke="black"/>
      <path fill="black" d="M771.6795 1002.4808 L758.1587 1011.4946 L765.4391 1011.8414 L768.5593 1018.4284 Z" clip-path="url(#clipPath2)" stroke="none"/>
      <path fill="none" d="M735 1080 L795 1080" clip-path="url(#clipPath2)"/>
      <path fill="none" d="M784.7434 1004.2302 L802.0943 1056.283" clip-path="url(#clipPath2)" stroke="black"/>
      <path fill="black" d="M805.2566 1065.7698 L806.4424 1049.5631 L801.699 1055.097 L794.5839 1053.516 Z" clip-path="url(#clipPath2)" stroke="none"/>
    </g>
  </g>
</svg>
