<?xml version="1.0" encoding="UTF-8"?><svg xmlns="http://www.w3.org/2000/svg" xmlns:xlink="http://www.w3.org/1999/xlink" fill-opacity="1" color-rendering="auto" color-interpolation="auto" stroke="black" text-rendering="auto" stroke-linecap="square" width="300" stroke-miterlimit="10" stroke-opacity="1" shape-rendering="auto" fill="black" stroke-dasharray="none" font-weight="normal" stroke-width="1" height="248" font-family="'Dialog'" font-style="normal" stroke-linejoin="miter" font-size="12" stroke-dashoffset="0" image-rendering="auto">
  <!--Generated by ySVG 2.5-->
  <defs id="genericDefs"/>
  <g>
    <defs id="defs1">
      <clipPath clipPathUnits="userSpaceOnUse" id="clipPath1">
        <path d="M0 0 L300 0 L300 248 L0 248 L0 0 Z"/>
      </clipPath>
      <clipPath clipPathUnits="userSpaceOnUse" id="clipPath2">
        <path d="M1230 210 L1530 210 L1530 458 L1230 458 L1230 210 Z"/>
      </clipPath>
    </defs>
    <g fill="rgb(51,102,255)" text-rendering="geometricPrecision" shape-rendering="geometricPrecision" transform="matrix(1,0,0,1,-1230,-210)" stroke="rgb(51,102,255)">
      <circle r="15" clip-path="url(#clipPath2)" cx="1500" cy="420" stroke="none"/>
    </g>
    <g text-rendering="geometricPrecision" stroke-miterlimit="1.45" shape-rendering="geometricPrecision" font-family="sans-serif" transform="matrix(1,0,0,1,-1230,-210)" stroke-linecap="butt">
      <text x="1495.4883" xml:space="preserve" y="424.1543" clip-path="url(#clipPath2)" stroke="none">H</text>
      <circle fill="none" r="15" clip-path="url(#clipPath2)" cx="1500" cy="420"/>
    </g>
    <g fill="rgb(51,102,255)" text-rendering="geometricPrecision" shape-rendering="geometricPrecision" transform="matrix(1,0,0,1,-1230,-210)" stroke="rgb(51,102,255)">
      <circle r="15" clip-path="url(#clipPath2)" cx="1410" cy="420" stroke="none"/>
    </g>
    <g text-rendering="geometricPrecision" stroke-miterlimit="1.45" shape-rendering="geometricPrecision" font-family="sans-serif" transform="matrix(1,0,0,1,-1230,-210)" stroke-linecap="butt">
      <text x="1406.5488" xml:space="preserve" y="424.1543" clip-path="url(#clipPath2)" stroke="none">F</text>
      <circle fill="none" r="15" clip-path="url(#clipPath2)" cx="1410" cy="420"/>
    </g>
    <g fill="rgb(51,102,255)" text-rendering="geometricPrecision" shape-rendering="geometricPrecision" transform="matrix(1,0,0,1,-1230,-210)" stroke="rgb(51,102,255)">
      <circle r="15" clip-path="url(#clipPath2)" cx="1320" cy="390" stroke="none"/>
    </g>
    <g text-rendering="geometricPrecision" stroke-miterlimit="1.45" shape-rendering="geometricPrecision" font-family="sans-serif" transform="matrix(1,0,0,1,-1230,-210)" stroke-linecap="butt">
      <text x="1315.3799" xml:space="preserve" y="394.1543" clip-path="url(#clipPath2)" stroke="none">D</text>
      <circle fill="none" r="15" clip-path="url(#clipPath2)" cx="1320" cy="390"/>
    </g>
    <g fill="rgb(51,102,255)" text-rendering="geometricPrecision" shape-rendering="geometricPrecision" transform="matrix(1,0,0,1,-1230,-210)" stroke="rgb(51,102,255)">
      <circle r="15" clip-path="url(#clipPath2)" cx="1260" cy="420" stroke="none"/>
    </g>
    <g text-rendering="geometricPrecision" stroke-miterlimit="1.45" shape-rendering="geometricPrecision" font-family="sans-serif" transform="matrix(1,0,0,1,-1230,-210)" stroke-linecap="butt">
      <text x="1255.8105" xml:space="preserve" y="424.1543" clip-path="url(#clipPath2)" stroke="none">C</text>
      <circle fill="none" r="15" clip-path="url(#clipPath2)" cx="1260" cy="420"/>
      <text x="1376.209" xml:space="preserve" y="334.1543" clip-path="url(#clipPath2)" stroke="none">E</text>
      <circle fill="none" r="15" clip-path="url(#clipPath2)" cx="1380" cy="330"/>
      <text x="1465.3506" xml:space="preserve" y="334.1543" clip-path="url(#clipPath2)" stroke="none">G</text>
      <circle fill="none" r="15" clip-path="url(#clipPath2)" cx="1470" cy="330"/>
      <text x="1285.8838" xml:space="preserve" y="304.1543" clip-path="url(#clipPath2)" stroke="none">B</text>
      <circle fill="none" r="15" clip-path="url(#clipPath2)" cx="1290" cy="300"/>
    </g>
    <g fill="rgb(51,153,102)" text-rendering="geometricPrecision" shape-rendering="geometricPrecision" transform="matrix(1,0,0,1,-1230,-210)" stroke="rgb(51,153,102)">
      <circle r="15" clip-path="url(#clipPath2)" cx="1380" cy="240" stroke="none"/>
    </g>
    <g text-rendering="geometricPrecision" stroke-miterlimit="1.45" shape-rendering="geometricPrecision" font-family="sans-serif" transform="matrix(1,0,0,1,-1230,-210)" stroke-linecap="butt">
      <text x="1375.8955" xml:space="preserve" y="244.1543" clip-path="url(#clipPath2)" stroke="none">A</text>
      <circle fill="none" r="15" clip-path="url(#clipPath2)" cx="1380" cy="240"/>
    </g>
    <g stroke-linecap="butt" transform="matrix(1,0,0,1,-1230,-210)" fill="silver" text-rendering="geometricPrecision" shape-rendering="geometricPrecision" stroke="silver" stroke-width="3" stroke-miterlimit="1.45">
      <path fill="none" d="M1425 420 L1485 420" clip-path="url(#clipPath2)"/>
    </g>
    <g text-rendering="geometricPrecision" stroke-miterlimit="1.45" shape-rendering="geometricPrecision" font-family="sans-serif" transform="matrix(1,0,0,1,-1230,-210)" stroke-linecap="butt">
      <text x="1450.2722" xml:space="preserve" y="437.8871" clip-path="url(#clipPath2)" stroke="none">4</text>
      <path fill="none" stroke-width="3" d="M1334.2302 394.7434 L1386.283 412.0943" clip-path="url(#clipPath2)"/>
      <path stroke-width="3" d="M1395.7698 415.2566 L1383.516 404.5839 L1385.097 411.699 L1379.5631 416.4424 Z" clip-path="url(#clipPath2)" stroke="none"/>
      <text x="1354.8354" xml:space="preserve" y="423.9607" clip-path="url(#clipPath2)" stroke="none">1</text>
    </g>
    <g stroke-linecap="butt" transform="matrix(1,0,0,1,-1230,-210)" fill="silver" text-rendering="geometricPrecision" shape-rendering="geometricPrecision" stroke="silver" stroke-width="3" stroke-miterlimit="1.45">
      <path fill="none" d="M1306.6515 396.8424 L1290 405.3779 L1273.4836 413.428" clip-path="url(#clipPath2)"/>
    </g>
    <g text-rendering="geometricPrecision" stroke-miterlimit="1.45" shape-rendering="geometricPrecision" font-family="sans-serif" transform="matrix(1,0,0,1,-1230,-210)" stroke-linecap="butt">
      <text x="1279.7928" xml:space="preserve" y="394.7128" clip-path="url(#clipPath2)" stroke="none">3</text>
    </g>
    <g stroke-linecap="butt" transform="matrix(1,0,0,1,-1230,-210)" fill="silver" text-rendering="geometricPrecision" shape-rendering="geometricPrecision" stroke="silver" stroke-width="3" stroke-miterlimit="1.45">
      <path fill="none" d="M1384.7434 344.2303 L1405.2566 405.7697" clip-path="url(#clipPath2)"/>
    </g>
    <g text-rendering="geometricPrecision" stroke-miterlimit="1.45" shape-rendering="geometricPrecision" font-family="sans-serif" transform="matrix(1,0,0,1,-1230,-210)" stroke-linecap="butt">
      <text x="1378.1826" xml:space="preserve" y="383.4103" clip-path="url(#clipPath2)" stroke="none">4</text>
      <path fill="none" stroke-width="3" d="M1369.3934 340.6066 L1337.6776 372.3223" clip-path="url(#clipPath2)"/>
      <path stroke-width="3" d="M1330.6066 379.3934 L1345.6326 373.2062 L1338.5615 371.4384 L1336.7937 364.3674 Z" clip-path="url(#clipPath2)" stroke="none"/>
      <text x="1340.4457" xml:space="preserve" y="351.64" clip-path="url(#clipPath2)" stroke="none">1</text>
    </g>
    <g stroke-linecap="butt" transform="matrix(1,0,0,1,-1230,-210)" fill="silver" text-rendering="geometricPrecision" shape-rendering="geometricPrecision" stroke="silver" stroke-width="3" stroke-miterlimit="1.45">
      <path fill="none" d="M1418.3206 407.5193 L1461.6794 342.4807" clip-path="url(#clipPath2)"/>
    </g>
    <g text-rendering="geometricPrecision" stroke-miterlimit="1.45" shape-rendering="geometricPrecision" font-family="sans-serif" transform="matrix(1,0,0,1,-1230,-210)" stroke-linecap="butt">
      <text x="1425.6962" xml:space="preserve" y="369.4839" clip-path="url(#clipPath2)" stroke="none">2</text>
      <path fill="none" stroke-width="3" d="M1474.7434 344.2303 L1492.0944 396.2829" clip-path="url(#clipPath2)"/>
      <path stroke-width="3" d="M1495.2566 405.7698 L1496.4425 389.5631 L1491.6991 395.0971 L1484.584 393.5159 Z" clip-path="url(#clipPath2)" stroke="none"/>
      <text x="1493.2803" xml:space="preserve" y="375.6279" clip-path="url(#clipPath2)" stroke="none">1</text>
      <path fill="none" stroke-width="3" d="M1286.3619 314.5521 L1266.0634 395.7464" clip-path="url(#clipPath2)"/>
      <path stroke-width="3" d="M1263.6381 405.4479 L1273.3394 392.4115 L1266.3665 394.5338 L1261.2126 389.3799 Z" clip-path="url(#clipPath2)" stroke="none"/>
      <text x="1258.5795" xml:space="preserve" y="358.4247" clip-path="url(#clipPath2)" stroke="none">2</text>
    </g>
    <g stroke-linecap="butt" transform="matrix(1,0,0,1,-1230,-210)" fill="silver" text-rendering="geometricPrecision" shape-rendering="geometricPrecision" stroke="silver" stroke-width="3" stroke-miterlimit="1.45">
      <path fill="none" d="M1304.2302 304.7434 L1365.7698 325.2566" clip-path="url(#clipPath2)"/>
    </g>
    <g text-rendering="geometricPrecision" stroke-miterlimit="1.45" shape-rendering="geometricPrecision" font-family="sans-serif" transform="matrix(1,0,0,1,-1230,-210)" stroke-linecap="butt">
      <text x="1335.2705" xml:space="preserve" y="307.8465" clip-path="url(#clipPath2)" stroke="none">3</text>
      <path fill="none" stroke-width="3" d="M1310.8013 286.1325 L1367.5193 248.3205" clip-path="url(#clipPath2)"/>
      <path stroke-width="3" d="M1302.4807 291.6795 L1318.4283 288.5593 L1311.8413 285.4391 L1311.4946 278.1587 Z" clip-path="url(#clipPath2)" stroke="none"/>
      <text x="1323.2963" xml:space="preserve" y="261.3495" clip-path="url(#clipPath2)" stroke="none">2</text>
      <path fill="none" stroke-width="3" d="M1380 255 L1380 305" clip-path="url(#clipPath2)"/>
      <path stroke-width="3" d="M1380 315 L1386.25 300 L1380 303.75 L1373.75 300 Z" clip-path="url(#clipPath2)" stroke="none"/>
      <text x="1365.7794" xml:space="preserve" y="287.9479" clip-path="url(#clipPath2)" stroke="none">1</text>
      <path fill="none" stroke-width="3" d="M1390.6066 250.6066 L1452.3224 312.3223" clip-path="url(#clipPath2)"/>
      <path stroke-width="3" d="M1459.3934 319.3934 L1453.2063 304.3674 L1451.4385 311.4384 L1444.3674 313.2062 Z" clip-path="url(#clipPath2)" stroke="none"/>
      <text x="1434.2979" xml:space="preserve" y="279.3719" clip-path="url(#clipPath2)" stroke="none">3</text>
    </g>
  </g>
</svg>
