<?xml version="1.0" encoding="UTF-8"?><svg xmlns="http://www.w3.org/2000/svg" xmlns:xlink="http://www.w3.org/1999/xlink" fill-opacity="1" color-rendering="auto" color-interpolation="auto" stroke="black" text-rendering="auto" stroke-linecap="square" width="300" stroke-miterlimit="10" stroke-opacity="1" shape-rendering="auto" fill="black" stroke-dasharray="none" font-weight="normal" stroke-width="1" height="248" font-family="'Dialog'" font-style="normal" stroke-linejoin="miter" font-size="12" stroke-dashoffset="0" image-rendering="auto">
  <!--Generated by ySVG 2.5-->
  <defs id="genericDefs"/>
  <g>
    <defs id="defs1">
      <clipPath clipPathUnits="userSpaceOnUse" id="clipPath1">
        <path d="M0 0 L300 0 L300 248 L0 248 L0 0 Z"/>
      </clipPath>
      <clipPath clipPathUnits="userSpaceOnUse" id="clipPath2">
        <path d="M900 210 L1200 210 L1200 458 L900 458 L900 210 Z"/>
      </clipPath>
    </defs>
    <g fill="rgb(51,153,102)" text-rendering="geometricPrecision" shape-rendering="geometricPrecision" transform="matrix(1,0,0,1,-900,-210)" stroke="rgb(51,153,102)">
      <circle r="15" clip-path="url(#clipPath2)" cx="1050" cy="240" stroke="none"/>
    </g>
    <g text-rendering="geometricPrecision" stroke-miterlimit="1.45" shape-rendering="geometricPrecision" font-family="sans-serif" transform="matrix(1,0,0,1,-900,-210)" stroke-linecap="butt">
      <text x="1045.8955" xml:space="preserve" y="244.1543" clip-path="url(#clipPath2)" stroke="none">A</text>
      <circle fill="none" r="15" clip-path="url(#clipPath2)" cx="1050" cy="240"/>
      <text x="955.8838" xml:space="preserve" y="304.1543" clip-path="url(#clipPath2)" stroke="none">B</text>
      <circle fill="none" r="15" clip-path="url(#clipPath2)" cx="960" cy="300"/>
      <text x="1135.3506" xml:space="preserve" y="334.1543" clip-path="url(#clipPath2)" stroke="none">G</text>
      <circle fill="none" r="15" clip-path="url(#clipPath2)" cx="1140" cy="330"/>
      <text x="1046.209" xml:space="preserve" y="334.1543" clip-path="url(#clipPath2)" stroke="none">E</text>
      <circle fill="none" r="15" clip-path="url(#clipPath2)" cx="1050" cy="330"/>
    </g>
    <g fill="rgb(51,102,255)" text-rendering="geometricPrecision" shape-rendering="geometricPrecision" transform="matrix(1,0,0,1,-900,-210)" stroke="rgb(51,102,255)">
      <circle r="15" clip-path="url(#clipPath2)" cx="930" cy="420" stroke="none"/>
    </g>
    <g text-rendering="geometricPrecision" stroke-miterlimit="1.45" shape-rendering="geometricPrecision" font-family="sans-serif" transform="matrix(1,0,0,1,-900,-210)" stroke-linecap="butt">
      <text x="925.8105" xml:space="preserve" y="424.1543" clip-path="url(#clipPath2)" stroke="none">C</text>
      <circle fill="none" r="15" clip-path="url(#clipPath2)" cx="930" cy="420"/>
    </g>
    <g fill="rgb(51,102,255)" text-rendering="geometricPrecision" shape-rendering="geometricPrecision" transform="matrix(1,0,0,1,-900,-210)" stroke="rgb(51,102,255)">
      <circle r="15" clip-path="url(#clipPath2)" cx="990" cy="390" stroke="none"/>
    </g>
    <g text-rendering="geometricPrecision" stroke-miterlimit="1.45" shape-rendering="geometricPrecision" font-family="sans-serif" transform="matrix(1,0,0,1,-900,-210)" stroke-linecap="butt">
      <text x="985.3799" xml:space="preserve" y="394.1543" clip-path="url(#clipPath2)" stroke="none">D</text>
      <circle fill="none" r="15" clip-path="url(#clipPath2)" cx="990" cy="390"/>
    </g>
    <g fill="rgb(51,102,255)" text-rendering="geometricPrecision" shape-rendering="geometricPrecision" transform="matrix(1,0,0,1,-900,-210)" stroke="rgb(51,102,255)">
      <circle r="15" clip-path="url(#clipPath2)" cx="1080" cy="420" stroke="none"/>
    </g>
    <g text-rendering="geometricPrecision" stroke-miterlimit="1.45" shape-rendering="geometricPrecision" font-family="sans-serif" transform="matrix(1,0,0,1,-900,-210)" stroke-linecap="butt">
      <text x="1076.5488" xml:space="preserve" y="424.1543" clip-path="url(#clipPath2)" stroke="none">F</text>
      <circle fill="none" r="15" clip-path="url(#clipPath2)" cx="1080" cy="420"/>
    </g>
    <g fill="rgb(51,102,255)" text-rendering="geometricPrecision" shape-rendering="geometricPrecision" transform="matrix(1,0,0,1,-900,-210)" stroke="rgb(51,102,255)">
      <circle r="15" clip-path="url(#clipPath2)" cx="1170" cy="420" stroke="none"/>
    </g>
    <g text-rendering="geometricPrecision" stroke-miterlimit="1.45" shape-rendering="geometricPrecision" font-family="sans-serif" transform="matrix(1,0,0,1,-900,-210)" stroke-linecap="butt">
      <text x="1165.4883" xml:space="preserve" y="424.1543" clip-path="url(#clipPath2)" stroke="none">H</text>
      <circle fill="none" r="15" clip-path="url(#clipPath2)" cx="1170" cy="420"/>
    </g>
    <g stroke-linecap="butt" transform="matrix(1,0,0,1,-900,-210)" fill="silver" text-rendering="geometricPrecision" shape-rendering="geometricPrecision" stroke="silver" stroke-width="3" stroke-miterlimit="1.45">
      <path fill="none" d="M972.4808 291.6795 L1037.5193 248.3205" clip-path="url(#clipPath2)"/>
    </g>
    <g text-rendering="geometricPrecision" stroke-miterlimit="1.45" shape-rendering="geometricPrecision" font-family="sans-serif" transform="matrix(1,0,0,1,-900,-210)" stroke-linecap="butt">
      <text x="993.2962" xml:space="preserve" y="261.3495" clip-path="url(#clipPath2)" stroke="none">2</text>
    </g>
    <g stroke-linecap="butt" transform="matrix(1,0,0,1,-900,-210)" fill="silver" text-rendering="geometricPrecision" shape-rendering="geometricPrecision" stroke="silver" stroke-width="3" stroke-miterlimit="1.45">
      <path fill="none" d="M1060.6066 250.6066 L1129.3934 319.3934" clip-path="url(#clipPath2)"/>
    </g>
    <g text-rendering="geometricPrecision" stroke-miterlimit="1.45" shape-rendering="geometricPrecision" font-family="sans-serif" transform="matrix(1,0,0,1,-900,-210)" stroke-linecap="butt">
      <text x="1104.2979" xml:space="preserve" y="279.3719" clip-path="url(#clipPath2)" stroke="none">3</text>
    </g>
    <g stroke-linecap="butt" transform="matrix(1,0,0,1,-900,-210)" fill="silver" text-rendering="geometricPrecision" shape-rendering="geometricPrecision" stroke="silver" stroke-width="3" stroke-miterlimit="1.45">
      <path fill="none" d="M974.2302 304.7434 L1035.7698 325.2566" clip-path="url(#clipPath2)"/>
    </g>
    <g text-rendering="geometricPrecision" stroke-miterlimit="1.45" shape-rendering="geometricPrecision" font-family="sans-serif" transform="matrix(1,0,0,1,-900,-210)" stroke-linecap="butt">
      <text x="1005.2706" xml:space="preserve" y="307.8465" clip-path="url(#clipPath2)" stroke="none">3</text>
    </g>
    <g stroke-linecap="butt" transform="matrix(1,0,0,1,-900,-210)" fill="silver" text-rendering="geometricPrecision" shape-rendering="geometricPrecision" stroke="silver" stroke-width="3" stroke-miterlimit="1.45">
      <path fill="none" d="M1050 255 L1050 315" clip-path="url(#clipPath2)"/>
    </g>
    <g text-rendering="geometricPrecision" stroke-miterlimit="1.45" shape-rendering="geometricPrecision" font-family="sans-serif" transform="matrix(1,0,0,1,-900,-210)" stroke-linecap="butt">
      <text x="1035.7794" xml:space="preserve" y="287.9479" clip-path="url(#clipPath2)" stroke="none">1</text>
    </g>
    <g stroke-linecap="butt" transform="matrix(1,0,0,1,-900,-210)" fill="silver" text-rendering="geometricPrecision" shape-rendering="geometricPrecision" stroke="silver" stroke-width="3" stroke-miterlimit="1.45">
      <path fill="none" d="M956.3619 314.5521 L933.6381 405.4479" clip-path="url(#clipPath2)"/>
    </g>
    <g text-rendering="geometricPrecision" stroke-miterlimit="1.45" shape-rendering="geometricPrecision" font-family="sans-serif" transform="matrix(1,0,0,1,-900,-210)" stroke-linecap="butt">
      <text x="928.5794" xml:space="preserve" y="358.4247" clip-path="url(#clipPath2)" stroke="none">2</text>
      <path fill="none" stroke-width="3" d="M1037.7111 248.6013 L1026.9596 256.1265 L1006.725 272.7712 L989.0419 290.5856 L973.656 310.221 L960.3131 332.3288 L948.759 357.5602 L938.7394 386.5669 L936.3225 395.8127" clip-path="url(#clipPath2)"/>
      <path stroke-width="3" d="M933.7935 405.4876 L943.6339 392.5558 L936.6386 394.6033 L931.5402 389.3946 Z" clip-path="url(#clipPath2)" stroke="none"/>
    </g>
    <g stroke-linecap="butt" transform="matrix(1,0,0,1,-900,-210)" fill="silver" text-rendering="geometricPrecision" shape-rendering="geometricPrecision" stroke="silver" stroke-width="3" stroke-miterlimit="1.45">
      <path fill="none" d="M1039.3934 340.6066 L1000.6066 379.3934" clip-path="url(#clipPath2)"/>
    </g>
    <g text-rendering="geometricPrecision" stroke-miterlimit="1.45" shape-rendering="geometricPrecision" font-family="sans-serif" transform="matrix(1,0,0,1,-900,-210)" stroke-linecap="butt">
      <text x="1010.4457" xml:space="preserve" y="351.64" clip-path="url(#clipPath2)" stroke="none">1</text>
      <path fill="none" stroke-width="3" d="M1048.4806 254.9229 L1045.1177 287.9514 L1041.9049 304.9197 L1037.2402 319.5602 L1030.4205 333.6306 L1020.7427 348.8889 L1004.9717 369.9788" clip-path="url(#clipPath2)"/>
      <path stroke-width="3" d="M998.983 377.9873 L1012.9714 369.7175 L1005.7203 368.9778 L1002.9608 362.2316 Z" clip-path="url(#clipPath2)" stroke="none"/>
    </g>
    <g stroke-linecap="butt" transform="matrix(1,0,0,1,-900,-210)" fill="silver" text-rendering="geometricPrecision" shape-rendering="geometricPrecision" stroke="silver" stroke-width="3" stroke-miterlimit="1.45">
      <path fill="none" d="M976.6516 396.8424 L960 405.3779 L943.4836 413.428" clip-path="url(#clipPath2)"/>
    </g>
    <g text-rendering="geometricPrecision" stroke-miterlimit="1.45" shape-rendering="geometricPrecision" font-family="sans-serif" transform="matrix(1,0,0,1,-900,-210)" stroke-linecap="butt">
      <text x="949.7928" xml:space="preserve" y="394.7128" clip-path="url(#clipPath2)" stroke="none">3</text>
    </g>
    <g stroke-linecap="butt" transform="matrix(1,0,0,1,-900,-210)" fill="silver" text-rendering="geometricPrecision" shape-rendering="geometricPrecision" stroke="silver" stroke-width="3" stroke-miterlimit="1.45">
      <path fill="none" d="M1054.7434 344.2303 L1075.2566 405.7697" clip-path="url(#clipPath2)"/>
    </g>
    <g text-rendering="geometricPrecision" stroke-miterlimit="1.45" shape-rendering="geometricPrecision" font-family="sans-serif" transform="matrix(1,0,0,1,-900,-210)" stroke-linecap="butt">
      <text x="1048.1826" xml:space="preserve" y="383.4103" clip-path="url(#clipPath2)" stroke="none">4</text>
    </g>
    <g stroke-linecap="butt" transform="matrix(1,0,0,1,-900,-210)" fill="silver" text-rendering="geometricPrecision" shape-rendering="geometricPrecision" stroke="silver" stroke-width="3" stroke-miterlimit="1.45">
      <path fill="none" d="M1004.2302 394.7434 L1065.7698 415.2566" clip-path="url(#clipPath2)"/>
    </g>
    <g text-rendering="geometricPrecision" stroke-miterlimit="1.45" shape-rendering="geometricPrecision" font-family="sans-serif" transform="matrix(1,0,0,1,-900,-210)" stroke-linecap="butt">
      <text x="1024.8354" xml:space="preserve" y="423.9607" clip-path="url(#clipPath2)" stroke="none">1</text>
      <path fill="none" stroke-width="3" d="M1048.9984 254.9484 L1049.1759 261.1523 L1052.882 279.8438 L1058.8959 296.4258 L1064.9951 311.25 L1068.9575 324.668 L1069.4429 330.9595 L1068.5607 337.0312 L1066.0331 342.9272 L1061.5823 348.6914 L1054.9305 354.3677 L1045.8 360 L1027.5575 369.9609 L1014.9469 377.8125 L1008.3691 384.2578 L1007.4678 387.1729 L1008.225 390 L1014.9152 395.7422 L1028.8406 402.1875 L1056.3901 411.7796" clip-path="url(#clipPath2)"/>
      <path stroke-width="3" d="M1065.8341 415.0678 L1053.7233 404.2331 L1055.2097 411.3686 L1049.6132 416.038 Z" clip-path="url(#clipPath2)" stroke="none"/>
    </g>
    <g stroke-linecap="butt" transform="matrix(1,0,0,1,-900,-210)" fill="silver" text-rendering="geometricPrecision" shape-rendering="geometricPrecision" stroke="silver" stroke-width="3" stroke-miterlimit="1.45">
      <path fill="none" d="M1088.3206 407.5193 L1131.6794 342.4807" clip-path="url(#clipPath2)"/>
    </g>
    <g text-rendering="geometricPrecision" stroke-miterlimit="1.45" shape-rendering="geometricPrecision" font-family="sans-serif" transform="matrix(1,0,0,1,-900,-210)" stroke-linecap="butt">
      <text x="1095.6962" xml:space="preserve" y="369.4839" clip-path="url(#clipPath2)" stroke="none">2</text>
    </g>
    <g stroke-linecap="butt" transform="matrix(1,0,0,1,-900,-210)" fill="silver" text-rendering="geometricPrecision" shape-rendering="geometricPrecision" stroke="silver" stroke-width="3" stroke-miterlimit="1.45">
      <path fill="none" d="M1144.7434 344.2303 L1165.2566 405.7697" clip-path="url(#clipPath2)"/>
    </g>
    <g text-rendering="geometricPrecision" stroke-miterlimit="1.45" shape-rendering="geometricPrecision" font-family="sans-serif" transform="matrix(1,0,0,1,-900,-210)" stroke-linecap="butt">
      <text x="1163.2803" xml:space="preserve" y="375.6279" clip-path="url(#clipPath2)" stroke="none">1</text>
    </g>
    <g stroke-linecap="butt" transform="matrix(1,0,0,1,-900,-210)" fill="silver" text-rendering="geometricPrecision" shape-rendering="geometricPrecision" stroke="silver" stroke-width="3" stroke-miterlimit="1.45">
      <path fill="none" d="M1095 420 L1155 420" clip-path="url(#clipPath2)"/>
    </g>
    <g text-rendering="geometricPrecision" stroke-miterlimit="1.45" shape-rendering="geometricPrecision" font-family="sans-serif" transform="matrix(1,0,0,1,-900,-210)" stroke-linecap="butt">
      <text x="1120.2722" xml:space="preserve" y="437.8871" clip-path="url(#clipPath2)" stroke="none">4</text>
      <path fill="none" stroke-width="3" d="M1060.2483 250.9532 L1072.8303 264.4005 L1091.835 288.4673 L1107.8081 312.0956 L1121.5439 335.181 L1145.481 379.3043 L1156.5778 398.9089 L1156.6317 398.9931" clip-path="url(#clipPath2)"/>
      <path stroke-width="3" d="M1161.9609 407.4547 L1159.2555 391.4315 L1155.9655 397.9354 L1148.6785 398.0931 Z" clip-path="url(#clipPath2)" stroke="none"/>
    </g>
  </g>
</svg>
