<?xml version="1.0" encoding="UTF-8"?><svg xmlns="http://www.w3.org/2000/svg" xmlns:xlink="http://www.w3.org/1999/xlink" fill-opacity="1" color-rendering="auto" color-interpolation="auto" stroke="black" text-rendering="auto" stroke-linecap="square" width="300" stroke-miterlimit="10" stroke-opacity="1" shape-rendering="auto" fill="black" stroke-dasharray="none" font-weight="normal" stroke-width="1" height="248" font-family="'Dialog'" font-style="normal" stroke-linejoin="miter" font-size="12" stroke-dashoffset="0" image-rendering="auto">
  <!--Generated by ySVG-->
  <defs id="genericDefs"/>
  <g>
    <defs id="defs1">
      <clipPath clipPathUnits="userSpaceOnUse" id="clipPath1">
        <path d="M0 0 L300 0 L300 248 L0 248 L0 0 Z"/>
      </clipPath>
      <clipPath clipPathUnits="userSpaceOnUse" id="clipPath2">
        <path d="M1230 300 L1530 300 L1530 548 L1230 548 L1230 300 Z"/>
      </clipPath>
    </defs>
    <g fill="white" transform="translate(-1230,-300)" stroke="white">
      <rect x="1230" width="300" height="248" y="300" clip-path="url(#clipPath2)" stroke="none"/>
    </g>
    <g fill="rgb(51,153,102)" transform="matrix(1,0,0,1,-1230,-300)" stroke="rgb(51,153,102)">
      <circle r="15" clip-path="url(#clipPath2)" cx="1380" cy="330" stroke="none"/>
    </g>
    <g stroke-miterlimit="1.45" font-family="sans-serif" transform="matrix(1,0,0,1,-1230,-300)" stroke-linecap="butt">
      <text x="1375.8955" xml:space="preserve" y="334.1543" clip-path="url(#clipPath2)" stroke="none">A</text>
      <circle fill="none" r="15" clip-path="url(#clipPath2)" cx="1380" cy="330"/>
      <text x="1285.8838" xml:space="preserve" y="394.1543" clip-path="url(#clipPath2)" stroke="none">B</text>
      <circle fill="none" r="15" clip-path="url(#clipPath2)" cx="1290" cy="390"/>
      <text x="1465.3506" xml:space="preserve" y="424.1543" clip-path="url(#clipPath2)" stroke="none">G</text>
      <circle fill="none" r="15" clip-path="url(#clipPath2)" cx="1470" cy="420"/>
      <text x="1376.209" xml:space="preserve" y="424.1543" clip-path="url(#clipPath2)" stroke="none">E</text>
      <circle fill="none" r="15" clip-path="url(#clipPath2)" cx="1380" cy="420"/>
    </g>
    <g fill="rgb(51,102,255)" transform="matrix(1,0,0,1,-1230,-300)" stroke="rgb(51,102,255)">
      <circle r="15" clip-path="url(#clipPath2)" cx="1260" cy="510" stroke="none"/>
    </g>
    <g stroke-miterlimit="1.45" font-family="sans-serif" transform="matrix(1,0,0,1,-1230,-300)" stroke-linecap="butt">
      <text x="1255.8105" xml:space="preserve" y="514.1543" clip-path="url(#clipPath2)" stroke="none">C</text>
      <circle fill="none" r="15" clip-path="url(#clipPath2)" cx="1260" cy="510"/>
    </g>
    <g fill="rgb(51,102,255)" transform="matrix(1,0,0,1,-1230,-300)" stroke="rgb(51,102,255)">
      <circle r="15" clip-path="url(#clipPath2)" cx="1320" cy="480" stroke="none"/>
    </g>
    <g stroke-miterlimit="1.45" font-family="sans-serif" transform="matrix(1,0,0,1,-1230,-300)" stroke-linecap="butt">
      <text x="1315.3799" xml:space="preserve" y="484.1543" clip-path="url(#clipPath2)" stroke="none">D</text>
      <circle fill="none" r="15" clip-path="url(#clipPath2)" cx="1320" cy="480"/>
    </g>
    <g fill="rgb(51,102,255)" transform="matrix(1,0,0,1,-1230,-300)" stroke="rgb(51,102,255)">
      <circle r="15" clip-path="url(#clipPath2)" cx="1410" cy="510" stroke="none"/>
    </g>
    <g stroke-miterlimit="1.45" font-family="sans-serif" transform="matrix(1,0,0,1,-1230,-300)" stroke-linecap="butt">
      <text x="1406.5488" xml:space="preserve" y="514.1543" clip-path="url(#clipPath2)" stroke="none">F</text>
      <circle fill="none" r="15" clip-path="url(#clipPath2)" cx="1410" cy="510"/>
    </g>
    <g fill="rgb(51,102,255)" transform="matrix(1,0,0,1,-1230,-300)" stroke="rgb(51,102,255)">
      <circle r="15" clip-path="url(#clipPath2)" cx="1500" cy="510" stroke="none"/>
    </g>
    <g stroke-miterlimit="1.45" font-family="sans-serif" transform="matrix(1,0,0,1,-1230,-300)" stroke-linecap="butt">
      <text x="1495.4883" xml:space="preserve" y="514.1543" clip-path="url(#clipPath2)" stroke="none">H</text>
      <circle fill="none" r="15" clip-path="url(#clipPath2)" cx="1500" cy="510"/>
    </g>
    <g fill="gray" stroke-width="3" stroke-miterlimit="1.45" transform="matrix(1,0,0,1,-1230,-300)" stroke-linecap="butt" stroke="gray">
      <path fill="none" d="M1302.4807 381.6795 L1367.5193 338.3205" clip-path="url(#clipPath2)"/>
    </g>
    <g stroke-miterlimit="1.45" font-family="sans-serif" transform="matrix(1,0,0,1,-1230,-300)" stroke-linecap="butt">
      <text x="1323.2963" xml:space="preserve" y="351.3495" clip-path="url(#clipPath2)" stroke="none">2</text>
      <path fill="none" stroke-width="3" d="M1390.6066 340.6066 L1452.3224 402.3223" clip-path="url(#clipPath2)"/>
      <path stroke-width="3" d="M1459.3934 409.3934 L1453.2063 394.3674 L1451.4385 401.4384 L1444.3674 403.2062 Z" clip-path="url(#clipPath2)" stroke="none"/>
      <text x="1434.2979" xml:space="preserve" y="369.3719" clip-path="url(#clipPath2)" stroke="none">3</text>
      <path fill="none" stroke-width="3" d="M1380 345 L1380 395" clip-path="url(#clipPath2)"/>
      <path stroke-width="3" d="M1380 405 L1386.25 390 L1380 393.75 L1373.75 390 Z" clip-path="url(#clipPath2)" stroke="none"/>
      <text x="1365.7794" xml:space="preserve" y="377.9479" clip-path="url(#clipPath2)" stroke="none">1</text>
    </g>
    <g fill="gray" stroke-width="3" stroke-miterlimit="1.45" transform="matrix(1,0,0,1,-1230,-300)" stroke-linecap="butt" stroke="gray">
      <path fill="none" d="M1304.2302 394.7434 L1365.7698 415.2566" clip-path="url(#clipPath2)"/>
    </g>
    <g stroke-miterlimit="1.45" font-family="sans-serif" transform="matrix(1,0,0,1,-1230,-300)" stroke-linecap="butt">
      <text x="1335.2705" xml:space="preserve" y="397.8465" clip-path="url(#clipPath2)" stroke="none">3</text>
    </g>
    <g fill="gray" stroke-width="3" stroke-miterlimit="1.45" transform="matrix(1,0,0,1,-1230,-300)" stroke-linecap="butt" stroke="gray">
      <path fill="none" d="M1286.3619 404.5521 L1263.6381 495.4479" clip-path="url(#clipPath2)"/>
    </g>
    <g stroke-miterlimit="1.45" font-family="sans-serif" transform="matrix(1,0,0,1,-1230,-300)" stroke-linecap="butt">
      <text x="1258.5795" xml:space="preserve" y="448.4247" clip-path="url(#clipPath2)" stroke="none">2</text>
      <path fill="none" stroke-width="3" d="M1369.3934 430.6066 L1337.6776 462.3223" clip-path="url(#clipPath2)"/>
      <path stroke-width="3" d="M1330.6066 469.3934 L1345.6326 463.2062 L1338.5615 461.4384 L1336.7937 454.3674 Z" clip-path="url(#clipPath2)" stroke="none"/>
      <text x="1340.4457" xml:space="preserve" y="441.64" clip-path="url(#clipPath2)" stroke="none">1</text>
      <path fill="none" stroke-width="3" d="M1306.6515 486.8424 L1290 495.3779 L1282.4728 499.0467" clip-path="url(#clipPath2)"/>
      <path stroke-width="3" d="M1273.4836 503.428 L1289.7057 502.4743 L1283.5964 498.4991 L1284.229 491.2379 Z" clip-path="url(#clipPath2)" stroke="none"/>
      <text x="1279.7928" xml:space="preserve" y="484.7128" clip-path="url(#clipPath2)" stroke="none">3</text>
    </g>
    <g fill="gray" stroke-width="3" stroke-miterlimit="1.45" transform="matrix(1,0,0,1,-1230,-300)" stroke-linecap="butt" stroke="gray">
      <path fill="none" d="M1384.7434 434.2303 L1405.2566 495.7697" clip-path="url(#clipPath2)"/>
    </g>
    <g stroke-miterlimit="1.45" font-family="sans-serif" transform="matrix(1,0,0,1,-1230,-300)" stroke-linecap="butt">
      <text x="1378.1826" xml:space="preserve" y="473.4103" clip-path="url(#clipPath2)" stroke="none">4</text>
      <path fill="none" stroke-width="3" d="M1334.2302 484.7434 L1386.283 502.0943" clip-path="url(#clipPath2)"/>
      <path stroke-width="3" d="M1395.7698 505.2566 L1383.516 494.5839 L1385.097 501.699 L1379.5631 506.4424 Z" clip-path="url(#clipPath2)" stroke="none"/>
      <text x="1354.8354" xml:space="preserve" y="513.9607" clip-path="url(#clipPath2)" stroke="none">1</text>
    </g>
    <g fill="gray" stroke-width="3" stroke-miterlimit="1.45" transform="matrix(1,0,0,1,-1230,-300)" stroke-linecap="butt" stroke="gray">
      <path fill="none" d="M1418.3206 497.5193 L1461.6794 432.4807" clip-path="url(#clipPath2)"/>
    </g>
    <g stroke-miterlimit="1.45" font-family="sans-serif" transform="matrix(1,0,0,1,-1230,-300)" stroke-linecap="butt">
      <text x="1425.6962" xml:space="preserve" y="459.4839" clip-path="url(#clipPath2)" stroke="none">2</text>
      <path fill="none" stroke-width="3" d="M1474.7434 434.2303 L1492.0944 486.2829" clip-path="url(#clipPath2)"/>
      <path stroke-width="3" d="M1495.2566 495.7698 L1496.4425 479.5631 L1491.6991 485.0971 L1484.584 483.5159 Z" clip-path="url(#clipPath2)" stroke="none"/>
      <text x="1493.2803" xml:space="preserve" y="465.6279" clip-path="url(#clipPath2)" stroke="none">1</text>
    </g>
    <g fill="gray" stroke-width="3" stroke-miterlimit="1.45" transform="matrix(1,0,0,1,-1230,-300)" stroke-linecap="butt" stroke="gray">
      <path fill="none" d="M1425 510 L1485 510" clip-path="url(#clipPath2)"/>
    </g>
    <g stroke-miterlimit="1.45" font-family="sans-serif" transform="matrix(1,0,0,1,-1230,-300)" stroke-linecap="butt">
      <text x="1450.2722" xml:space="preserve" y="527.8871" clip-path="url(#clipPath2)" stroke="none">4</text>
    </g>
  </g>
</svg>
