<?xml version="1.0" encoding="UTF-8"?><svg xmlns="http://www.w3.org/2000/svg" xmlns:xlink="http://www.w3.org/1999/xlink" fill-opacity="1" color-rendering="auto" color-interpolation="auto" stroke="black" text-rendering="auto" stroke-linecap="square" width="300" stroke-miterlimit="10" stroke-opacity="1" shape-rendering="auto" fill="black" stroke-dasharray="none" font-weight="normal" stroke-width="1" height="248" font-family="'Dialog'" font-style="normal" stroke-linejoin="miter" font-size="12" stroke-dashoffset="0" image-rendering="auto">
  <!--Generated by ySVG-->
  <defs id="genericDefs"/>
  <g>
    <defs id="defs1">
      <clipPath clipPathUnits="userSpaceOnUse" id="clipPath1">
        <path d="M0 0 L300 0 L300 248 L0 248 L0 0 Z"/>
      </clipPath>
      <clipPath clipPathUnits="userSpaceOnUse" id="clipPath2">
        <path d="M840 300 L1140 300 L1140 548 L840 548 L840 300 Z"/>
      </clipPath>
    </defs>
    <g fill="white" transform="translate(-840,-300)" stroke="white">
      <rect x="840" width="300" height="248" y="300" clip-path="url(#clipPath2)" stroke="none"/>
    </g>
    <g fill="rgb(51,153,102)" transform="matrix(1,0,0,1,-840,-300)" stroke="rgb(51,153,102)">
      <circle r="15" clip-path="url(#clipPath2)" cx="990" cy="330" stroke="none"/>
    </g>
    <g stroke-miterlimit="1.45" font-family="sans-serif" transform="matrix(1,0,0,1,-840,-300)" stroke-linecap="butt">
      <text x="985.8955" xml:space="preserve" y="334.1543" clip-path="url(#clipPath2)" stroke="none">A</text>
      <circle fill="none" r="15" clip-path="url(#clipPath2)" cx="990" cy="330"/>
      <text x="895.8838" xml:space="preserve" y="394.1543" clip-path="url(#clipPath2)" stroke="none">B</text>
      <circle fill="none" r="15" clip-path="url(#clipPath2)" cx="900" cy="390"/>
      <text x="1075.3506" xml:space="preserve" y="424.1543" clip-path="url(#clipPath2)" stroke="none">G</text>
      <circle fill="none" r="15" clip-path="url(#clipPath2)" cx="1080" cy="420"/>
      <text x="986.209" xml:space="preserve" y="424.1543" clip-path="url(#clipPath2)" stroke="none">E</text>
      <circle fill="none" r="15" clip-path="url(#clipPath2)" cx="990" cy="420"/>
    </g>
    <g fill="aqua" transform="matrix(1,0,0,1,-840,-300)" stroke="aqua">
      <circle r="15" clip-path="url(#clipPath2)" cx="870" cy="510" stroke="none"/>
    </g>
    <g stroke-miterlimit="1.45" font-family="sans-serif" transform="matrix(1,0,0,1,-840,-300)" stroke-linecap="butt">
      <text x="865.8105" xml:space="preserve" y="514.1543" clip-path="url(#clipPath2)" stroke="none">C</text>
      <circle fill="none" r="15" clip-path="url(#clipPath2)" cx="870" cy="510"/>
    </g>
    <g fill="rgb(51,102,255)" transform="matrix(1,0,0,1,-840,-300)" stroke="rgb(51,102,255)">
      <circle r="15" clip-path="url(#clipPath2)" cx="930" cy="480" stroke="none"/>
    </g>
    <g stroke-miterlimit="1.45" font-family="sans-serif" transform="matrix(1,0,0,1,-840,-300)" stroke-linecap="butt">
      <text x="925.3799" xml:space="preserve" y="484.1543" clip-path="url(#clipPath2)" stroke="none">D</text>
      <circle fill="none" r="15" clip-path="url(#clipPath2)" cx="930" cy="480"/>
    </g>
    <g fill="rgb(51,102,255)" transform="matrix(1,0,0,1,-840,-300)" stroke="rgb(51,102,255)">
      <circle r="15" clip-path="url(#clipPath2)" cx="1020" cy="510" stroke="none"/>
    </g>
    <g stroke-miterlimit="1.45" font-family="sans-serif" transform="matrix(1,0,0,1,-840,-300)" stroke-linecap="butt">
      <text x="1016.5488" xml:space="preserve" y="514.1543" clip-path="url(#clipPath2)" stroke="none">F</text>
      <circle fill="none" r="15" clip-path="url(#clipPath2)" cx="1020" cy="510"/>
    </g>
    <g fill="rgb(51,102,255)" transform="matrix(1,0,0,1,-840,-300)" stroke="rgb(51,102,255)">
      <circle r="15" clip-path="url(#clipPath2)" cx="1110" cy="510" stroke="none"/>
    </g>
    <g stroke-miterlimit="1.45" font-family="sans-serif" transform="matrix(1,0,0,1,-840,-300)" stroke-linecap="butt">
      <text x="1105.4883" xml:space="preserve" y="514.1543" clip-path="url(#clipPath2)" stroke="none">H</text>
      <circle fill="none" r="15" clip-path="url(#clipPath2)" cx="1110" cy="510"/>
    </g>
    <g fill="gray" stroke-width="3" stroke-miterlimit="1.45" transform="matrix(1,0,0,1,-840,-300)" stroke-linecap="butt" stroke="gray">
      <path fill="none" d="M912.4808 381.6795 L977.5192 338.3205" clip-path="url(#clipPath2)"/>
    </g>
    <g stroke-miterlimit="1.45" font-family="sans-serif" transform="matrix(1,0,0,1,-840,-300)" stroke-linecap="butt">
      <text x="933.2962" xml:space="preserve" y="351.3495" clip-path="url(#clipPath2)" stroke="none">2</text>
      <path fill="none" stroke-width="3" d="M1000.6066 340.6066 L1062.3224 402.3223" clip-path="url(#clipPath2)"/>
      <path stroke-width="3" d="M1069.3934 409.3934 L1063.2063 394.3674 L1061.4385 401.4384 L1054.3674 403.2062 Z" clip-path="url(#clipPath2)" stroke="none"/>
      <text x="1044.2979" xml:space="preserve" y="369.3719" clip-path="url(#clipPath2)" stroke="none">3</text>
      <path fill="none" stroke-width="3" d="M990 345 L990 395" clip-path="url(#clipPath2)"/>
      <path stroke-width="3" d="M990 405 L996.25 390 L990 393.75 L983.75 390 Z" clip-path="url(#clipPath2)" stroke="none"/>
      <text x="975.7794" xml:space="preserve" y="377.9479" clip-path="url(#clipPath2)" stroke="none">1</text>
    </g>
    <g fill="gray" stroke-width="3" stroke-miterlimit="1.45" transform="matrix(1,0,0,1,-840,-300)" stroke-linecap="butt" stroke="gray">
      <path fill="none" d="M914.2302 394.7434 L975.7698 415.2566" clip-path="url(#clipPath2)"/>
    </g>
    <g stroke-miterlimit="1.45" font-family="sans-serif" transform="matrix(1,0,0,1,-840,-300)" stroke-linecap="butt">
      <text x="945.2706" xml:space="preserve" y="397.8465" clip-path="url(#clipPath2)" stroke="none">3</text>
    </g>
    <g fill="gray" stroke-width="3" stroke-miterlimit="1.45" transform="matrix(1,0,0,1,-840,-300)" stroke-linecap="butt" stroke="gray">
      <path fill="none" d="M896.3619 404.5521 L873.6381 495.4479" clip-path="url(#clipPath2)"/>
    </g>
    <g stroke-miterlimit="1.45" font-family="sans-serif" transform="matrix(1,0,0,1,-840,-300)" stroke-linecap="butt">
      <text x="868.5794" xml:space="preserve" y="448.4247" clip-path="url(#clipPath2)" stroke="none">2</text>
      <path fill="none" stroke-width="3" d="M979.3934 430.6066 L947.6777 462.3223" clip-path="url(#clipPath2)"/>
      <path stroke-width="3" d="M940.6066 469.3934 L955.6326 463.2062 L948.5616 461.4384 L946.7938 454.3674 Z" clip-path="url(#clipPath2)" stroke="none"/>
      <text x="950.4457" xml:space="preserve" y="441.64" clip-path="url(#clipPath2)" stroke="none">1</text>
    </g>
    <g fill="gray" stroke-width="3" stroke-miterlimit="1.45" transform="matrix(1,0,0,1,-840,-300)" stroke-linecap="butt" stroke="gray">
      <path fill="none" d="M916.6516 486.8424 L900 495.3779 L883.4836 503.428" clip-path="url(#clipPath2)"/>
    </g>
    <g stroke-miterlimit="1.45" font-family="sans-serif" transform="matrix(1,0,0,1,-840,-300)" stroke-linecap="butt">
      <text x="889.7928" xml:space="preserve" y="484.7128" clip-path="url(#clipPath2)" stroke="none">3</text>
      <path fill="none" stroke-width="3" d="M944.2302 484.7434 L996.2829 502.0943" clip-path="url(#clipPath2)"/>
      <path stroke-width="3" d="M1005.7697 505.2566 L993.5159 494.5839 L995.097 501.699 L989.563 506.4424 Z" clip-path="url(#clipPath2)" stroke="none"/>
      <text x="964.8354" xml:space="preserve" y="513.9607" clip-path="url(#clipPath2)" stroke="none">1</text>
    </g>
    <g fill="gray" stroke-width="3" stroke-miterlimit="1.45" transform="matrix(1,0,0,1,-840,-300)" stroke-linecap="butt" stroke="gray">
      <path fill="none" d="M994.7434 434.2303 L1015.2566 495.7697" clip-path="url(#clipPath2)"/>
    </g>
    <g stroke-miterlimit="1.45" font-family="sans-serif" transform="matrix(1,0,0,1,-840,-300)" stroke-linecap="butt">
      <text x="988.1826" xml:space="preserve" y="473.4103" clip-path="url(#clipPath2)" stroke="none">4</text>
    </g>
    <g fill="gray" stroke-width="3" stroke-miterlimit="1.45" transform="matrix(1,0,0,1,-840,-300)" stroke-linecap="butt" stroke="gray">
      <path fill="none" d="M1028.3206 497.5193 L1071.6794 432.4807" clip-path="url(#clipPath2)"/>
    </g>
    <g stroke-miterlimit="1.45" font-family="sans-serif" transform="matrix(1,0,0,1,-840,-300)" stroke-linecap="butt">
      <text x="1035.6962" xml:space="preserve" y="459.4839" clip-path="url(#clipPath2)" stroke="none">2</text>
    </g>
    <g fill="gray" stroke-width="3" stroke-miterlimit="1.45" transform="matrix(1,0,0,1,-840,-300)" stroke-linecap="butt" stroke="gray">
      <path fill="none" d="M1035 510 L1095 510" clip-path="url(#clipPath2)"/>
    </g>
    <g stroke-miterlimit="1.45" font-family="sans-serif" transform="matrix(1,0,0,1,-840,-300)" stroke-linecap="butt">
      <text x="1060.2722" xml:space="preserve" y="527.8871" clip-path="url(#clipPath2)" stroke="none">4</text>
      <path fill="none" stroke-width="3" d="M1084.7434 434.2303 L1102.0944 486.2829" clip-path="url(#clipPath2)"/>
      <path stroke-width="3" d="M1105.2566 495.7698 L1106.4425 479.5631 L1101.6991 485.0971 L1094.584 483.5159 Z" clip-path="url(#clipPath2)" stroke="none"/>
      <text x="1103.2803" xml:space="preserve" y="465.6279" clip-path="url(#clipPath2)" stroke="none">1</text>
    </g>
  </g>
</svg>
