<?xml version="1.0" encoding="UTF-8"?><svg xmlns="http://www.w3.org/2000/svg" xmlns:xlink="http://www.w3.org/1999/xlink" fill-opacity="1" color-rendering="auto" color-interpolation="auto" stroke="black" text-rendering="auto" stroke-linecap="square" width="300" stroke-miterlimit="10" stroke-opacity="1" shape-rendering="auto" fill="black" stroke-dasharray="none" font-weight="normal" stroke-width="1" height="248" font-family="'Dialog'" font-style="normal" stroke-linejoin="miter" font-size="12" stroke-dashoffset="0" image-rendering="auto">
  <!--Generated by ySVG-->
  <defs id="genericDefs"/>
  <g>
    <defs id="defs1">
      <clipPath clipPathUnits="userSpaceOnUse" id="clipPath1">
        <path d="M0 0 L300 0 L300 248 L0 248 L0 0 Z"/>
      </clipPath>
      <clipPath clipPathUnits="userSpaceOnUse" id="clipPath2">
        <path d="M840 600 L1140 600 L1140 848 L840 848 L840 600 Z"/>
      </clipPath>
    </defs>
    <g fill="white" transform="translate(-840,-600)" stroke="white">
      <rect x="840" width="300" height="248" y="600" clip-path="url(#clipPath2)" stroke="none"/>
    </g>
    <g fill="rgb(51,102,255)" transform="matrix(1,0,0,1,-840,-600)" stroke="rgb(51,102,255)">
      <circle r="15" clip-path="url(#clipPath2)" cx="1110" cy="810" stroke="none"/>
    </g>
    <g stroke-miterlimit="1.45" font-family="sans-serif" transform="matrix(1,0,0,1,-840,-600)" stroke-linecap="butt">
      <text x="1105.4883" xml:space="preserve" y="814.1543" clip-path="url(#clipPath2)" stroke="none">H</text>
      <circle fill="none" r="15" clip-path="url(#clipPath2)" cx="1110" cy="810"/>
    </g>
    <g fill="rgb(51,102,255)" transform="matrix(1,0,0,1,-840,-600)" stroke="rgb(51,102,255)">
      <circle r="15" clip-path="url(#clipPath2)" cx="1020" cy="810" stroke="none"/>
    </g>
    <g stroke-miterlimit="1.45" font-family="sans-serif" transform="matrix(1,0,0,1,-840,-600)" stroke-linecap="butt">
      <text x="1016.5488" xml:space="preserve" y="814.1543" clip-path="url(#clipPath2)" stroke="none">F</text>
      <circle fill="none" r="15" clip-path="url(#clipPath2)" cx="1020" cy="810"/>
    </g>
    <g fill="rgb(51,102,255)" transform="matrix(1,0,0,1,-840,-600)" stroke="rgb(51,102,255)">
      <circle r="15" clip-path="url(#clipPath2)" cx="930" cy="780" stroke="none"/>
    </g>
    <g stroke-miterlimit="1.45" font-family="sans-serif" transform="matrix(1,0,0,1,-840,-600)" stroke-linecap="butt">
      <text x="925.3799" xml:space="preserve" y="784.1543" clip-path="url(#clipPath2)" stroke="none">D</text>
      <circle fill="none" r="15" clip-path="url(#clipPath2)" cx="930" cy="780"/>
    </g>
    <g fill="rgb(51,102,255)" transform="matrix(1,0,0,1,-840,-600)" stroke="rgb(51,102,255)">
      <circle r="15" clip-path="url(#clipPath2)" cx="870" cy="810" stroke="none"/>
    </g>
    <g stroke-miterlimit="1.45" font-family="sans-serif" transform="matrix(1,0,0,1,-840,-600)" stroke-linecap="butt">
      <text x="865.8105" xml:space="preserve" y="814.1543" clip-path="url(#clipPath2)" stroke="none">C</text>
      <circle fill="none" r="15" clip-path="url(#clipPath2)" cx="870" cy="810"/>
      <text x="986.209" xml:space="preserve" y="724.1543" clip-path="url(#clipPath2)" stroke="none">E</text>
      <circle fill="none" r="15" clip-path="url(#clipPath2)" cx="990" cy="720"/>
      <text x="1075.3506" xml:space="preserve" y="724.1543" clip-path="url(#clipPath2)" stroke="none">G</text>
      <circle fill="none" r="15" clip-path="url(#clipPath2)" cx="1080" cy="720"/>
      <text x="895.8838" xml:space="preserve" y="694.1543" clip-path="url(#clipPath2)" stroke="none">B</text>
      <circle fill="none" r="15" clip-path="url(#clipPath2)" cx="900" cy="690"/>
    </g>
    <g fill="rgb(51,153,102)" transform="matrix(1,0,0,1,-840,-600)" stroke="rgb(51,153,102)">
      <circle r="15" clip-path="url(#clipPath2)" cx="990" cy="630" stroke="none"/>
    </g>
    <g stroke-miterlimit="1.45" font-family="sans-serif" transform="matrix(1,0,0,1,-840,-600)" stroke-linecap="butt">
      <text x="985.8955" xml:space="preserve" y="634.1543" clip-path="url(#clipPath2)" stroke="none">A</text>
      <circle fill="none" r="15" clip-path="url(#clipPath2)" cx="990" cy="630"/>
    </g>
    <g fill="gray" stroke-width="3" stroke-miterlimit="1.45" transform="matrix(1,0,0,1,-840,-600)" stroke-linecap="butt" stroke="gray">
      <path fill="none" d="M1035 810 L1095 810" clip-path="url(#clipPath2)"/>
    </g>
    <g stroke-miterlimit="1.45" font-family="sans-serif" transform="matrix(1,0,0,1,-840,-600)" stroke-linecap="butt">
      <text x="1060.2722" xml:space="preserve" y="827.8871" clip-path="url(#clipPath2)" stroke="none">4</text>
      <path fill="none" stroke-width="3" d="M944.2302 784.7434 L996.2829 802.0943" clip-path="url(#clipPath2)"/>
      <path stroke-width="3" d="M1005.7697 805.2566 L993.5159 794.5839 L995.097 801.699 L989.563 806.4424 Z" clip-path="url(#clipPath2)" stroke="none"/>
      <text x="964.8354" xml:space="preserve" y="813.9607" clip-path="url(#clipPath2)" stroke="none">1</text>
    </g>
    <g fill="gray" stroke-width="3" stroke-miterlimit="1.45" transform="matrix(1,0,0,1,-840,-600)" stroke-linecap="butt" stroke="gray">
      <path fill="none" d="M916.6516 786.8424 L900 795.3779 L883.4836 803.428" clip-path="url(#clipPath2)"/>
    </g>
    <g stroke-miterlimit="1.45" font-family="sans-serif" transform="matrix(1,0,0,1,-840,-600)" stroke-linecap="butt">
      <text x="889.7928" xml:space="preserve" y="784.7128" clip-path="url(#clipPath2)" stroke="none">3</text>
    </g>
    <g fill="gray" stroke-width="3" stroke-miterlimit="1.45" transform="matrix(1,0,0,1,-840,-600)" stroke-linecap="butt" stroke="gray">
      <path fill="none" d="M994.7434 734.2302 L1015.2566 795.7698" clip-path="url(#clipPath2)"/>
    </g>
    <g stroke-miterlimit="1.45" font-family="sans-serif" transform="matrix(1,0,0,1,-840,-600)" stroke-linecap="butt">
      <text x="988.1826" xml:space="preserve" y="773.4103" clip-path="url(#clipPath2)" stroke="none">4</text>
      <path fill="none" stroke-width="3" d="M979.3934 730.6066 L947.6777 762.3223" clip-path="url(#clipPath2)"/>
      <path stroke-width="3" d="M940.6066 769.3934 L955.6326 763.2062 L948.5616 761.4384 L946.7938 754.3674 Z" clip-path="url(#clipPath2)" stroke="none"/>
      <text x="950.4457" xml:space="preserve" y="741.6401" clip-path="url(#clipPath2)" stroke="none">1</text>
    </g>
    <g fill="gray" stroke-width="3" stroke-miterlimit="1.45" transform="matrix(1,0,0,1,-840,-600)" stroke-linecap="butt" stroke="gray">
      <path fill="none" d="M1028.3206 797.5192 L1071.6794 732.4808" clip-path="url(#clipPath2)"/>
    </g>
    <g stroke-miterlimit="1.45" font-family="sans-serif" transform="matrix(1,0,0,1,-840,-600)" stroke-linecap="butt">
      <text x="1035.6962" xml:space="preserve" y="759.4839" clip-path="url(#clipPath2)" stroke="none">2</text>
      <path fill="none" stroke-width="3" d="M1084.7434 734.2302 L1102.0944 786.2829" clip-path="url(#clipPath2)"/>
      <path stroke-width="3" d="M1105.2566 795.7698 L1106.4425 779.5631 L1101.6991 785.097 L1094.584 783.5159 Z" clip-path="url(#clipPath2)" stroke="none"/>
      <text x="1103.2803" xml:space="preserve" y="765.6279" clip-path="url(#clipPath2)" stroke="none">1</text>
      <path fill="none" stroke-width="3" d="M896.3619 704.5521 L876.0634 785.7465" clip-path="url(#clipPath2)"/>
      <path stroke-width="3" d="M873.6381 795.4479 L883.3395 782.4116 L876.3666 784.5338 L871.2127 779.3799 Z" clip-path="url(#clipPath2)" stroke="none"/>
      <text x="868.5794" xml:space="preserve" y="748.4247" clip-path="url(#clipPath2)" stroke="none">2</text>
    </g>
    <g fill="gray" stroke-width="3" stroke-miterlimit="1.45" transform="matrix(1,0,0,1,-840,-600)" stroke-linecap="butt" stroke="gray">
      <path fill="none" d="M914.2302 694.7434 L975.7698 715.2566" clip-path="url(#clipPath2)"/>
    </g>
    <g stroke-miterlimit="1.45" font-family="sans-serif" transform="matrix(1,0,0,1,-840,-600)" stroke-linecap="butt">
      <text x="945.2706" xml:space="preserve" y="697.8465" clip-path="url(#clipPath2)" stroke="none">3</text>
      <path fill="none" stroke-width="3" d="M920.8013 676.1325 L977.5192 638.3205" clip-path="url(#clipPath2)"/>
      <path stroke-width="3" d="M912.4808 681.6795 L928.4284 678.5593 L921.8414 675.4391 L921.4946 668.1587 Z" clip-path="url(#clipPath2)" stroke="none"/>
      <text x="933.2962" xml:space="preserve" y="651.3495" clip-path="url(#clipPath2)" stroke="none">2</text>
      <path fill="none" stroke-width="3" d="M990 645 L990 695" clip-path="url(#clipPath2)"/>
      <path stroke-width="3" d="M990 705 L996.25 690 L990 693.75 L983.75 690 Z" clip-path="url(#clipPath2)" stroke="none"/>
      <text x="975.7794" xml:space="preserve" y="677.9479" clip-path="url(#clipPath2)" stroke="none">1</text>
      <path fill="none" stroke-width="3" d="M1000.6066 640.6066 L1062.3224 702.3223" clip-path="url(#clipPath2)"/>
      <path stroke-width="3" d="M1069.3934 709.3934 L1063.2063 694.3674 L1061.4385 701.4384 L1054.3674 703.2062 Z" clip-path="url(#clipPath2)" stroke="none"/>
      <text x="1044.2979" xml:space="preserve" y="669.3719" clip-path="url(#clipPath2)" stroke="none">3</text>
    </g>
  </g>
</svg>
