<?xml version="1.0" encoding="UTF-8"?><svg xmlns="http://www.w3.org/2000/svg" xmlns:xlink="http://www.w3.org/1999/xlink" fill-opacity="1" color-rendering="auto" color-interpolation="auto" stroke="black" text-rendering="auto" stroke-linecap="square" width="300" stroke-miterlimit="10" stroke-opacity="1" shape-rendering="auto" fill="black" stroke-dasharray="none" font-weight="normal" stroke-width="1" height="248" font-family="'Dialog'" font-style="normal" stroke-linejoin="miter" font-size="12" stroke-dashoffset="0" image-rendering="auto">
  <!--Generated by ySVG-->
  <defs id="genericDefs"/>
  <g>
    <defs id="defs1">
      <clipPath clipPathUnits="userSpaceOnUse" id="clipPath1">
        <path d="M0 0 L300 0 L300 248 L0 248 L0 0 Z"/>
      </clipPath>
      <clipPath clipPathUnits="userSpaceOnUse" id="clipPath2">
        <path d="M450 300 L750 300 L750 548 L450 548 L450 300 Z"/>
      </clipPath>
    </defs>
    <g fill="white" transform="translate(-450,-300)" stroke="white">
      <rect x="450" width="300" height="248" y="300" clip-path="url(#clipPath2)" stroke="none"/>
    </g>
    <g fill="rgb(51,102,255)" transform="matrix(1,0,0,1,-450,-300)" stroke="rgb(51,102,255)">
      <circle r="15" clip-path="url(#clipPath2)" cx="720" cy="510" stroke="none"/>
    </g>
    <g stroke-miterlimit="1.45" font-family="sans-serif" transform="matrix(1,0,0,1,-450,-300)" stroke-linecap="butt">
      <text x="715.4883" xml:space="preserve" y="514.1543" clip-path="url(#clipPath2)" stroke="none">H</text>
      <circle fill="none" r="15" clip-path="url(#clipPath2)" cx="720" cy="510"/>
    </g>
    <g fill="rgb(51,102,255)" transform="matrix(1,0,0,1,-450,-300)" stroke="rgb(51,102,255)">
      <circle r="15" clip-path="url(#clipPath2)" cx="630" cy="510" stroke="none"/>
    </g>
    <g stroke-miterlimit="1.45" font-family="sans-serif" transform="matrix(1,0,0,1,-450,-300)" stroke-linecap="butt">
      <text x="626.5488" xml:space="preserve" y="514.1543" clip-path="url(#clipPath2)" stroke="none">F</text>
      <circle fill="none" r="15" clip-path="url(#clipPath2)" cx="630" cy="510"/>
    </g>
    <g fill="rgb(51,102,255)" transform="matrix(1,0,0,1,-450,-300)" stroke="rgb(51,102,255)">
      <circle r="15" clip-path="url(#clipPath2)" cx="540" cy="480" stroke="none"/>
    </g>
    <g stroke-miterlimit="1.45" font-family="sans-serif" transform="matrix(1,0,0,1,-450,-300)" stroke-linecap="butt">
      <text x="535.3799" xml:space="preserve" y="484.1543" clip-path="url(#clipPath2)" stroke="none">D</text>
      <circle fill="none" r="15" clip-path="url(#clipPath2)" cx="540" cy="480"/>
      <text x="475.8105" xml:space="preserve" y="514.1543" clip-path="url(#clipPath2)" stroke="none">C</text>
      <circle fill="none" r="15" clip-path="url(#clipPath2)" cx="480" cy="510"/>
      <text x="596.209" xml:space="preserve" y="424.1543" clip-path="url(#clipPath2)" stroke="none">E</text>
      <circle fill="none" r="15" clip-path="url(#clipPath2)" cx="600" cy="420"/>
      <text x="685.3506" xml:space="preserve" y="424.1543" clip-path="url(#clipPath2)" stroke="none">G</text>
      <circle fill="none" r="15" clip-path="url(#clipPath2)" cx="690" cy="420"/>
      <text x="505.8838" xml:space="preserve" y="394.1543" clip-path="url(#clipPath2)" stroke="none">B</text>
      <circle fill="none" r="15" clip-path="url(#clipPath2)" cx="510" cy="390"/>
    </g>
    <g fill="rgb(51,153,102)" transform="matrix(1,0,0,1,-450,-300)" stroke="rgb(51,153,102)">
      <circle r="15" clip-path="url(#clipPath2)" cx="600" cy="330" stroke="none"/>
    </g>
    <g stroke-miterlimit="1.45" font-family="sans-serif" transform="matrix(1,0,0,1,-450,-300)" stroke-linecap="butt">
      <text x="595.8955" xml:space="preserve" y="334.1543" clip-path="url(#clipPath2)" stroke="none">A</text>
      <circle fill="none" r="15" clip-path="url(#clipPath2)" cx="600" cy="330"/>
    </g>
    <g fill="gray" stroke-width="3" stroke-miterlimit="1.45" transform="matrix(1,0,0,1,-450,-300)" stroke-linecap="butt" stroke="gray">
      <path fill="none" d="M645 510 L705 510" clip-path="url(#clipPath2)"/>
    </g>
    <g stroke-miterlimit="1.45" font-family="sans-serif" transform="matrix(1,0,0,1,-450,-300)" stroke-linecap="butt">
      <text x="670.2722" xml:space="preserve" y="527.8871" clip-path="url(#clipPath2)" stroke="none">4</text>
      <path fill="none" stroke-width="3" d="M554.2302 484.7434 L606.2829 502.0943" clip-path="url(#clipPath2)"/>
      <path stroke-width="3" d="M615.7697 505.2566 L603.5159 494.5839 L605.097 501.699 L599.563 506.4424 Z" clip-path="url(#clipPath2)" stroke="none"/>
      <text x="574.8354" xml:space="preserve" y="513.9607" clip-path="url(#clipPath2)" stroke="none">1</text>
    </g>
    <g fill="gray" stroke-width="3" stroke-miterlimit="1.45" transform="matrix(1,0,0,1,-450,-300)" stroke-linecap="butt" stroke="gray">
      <path fill="none" d="M526.6516 486.8424 L510 495.3779 L493.4837 503.428" clip-path="url(#clipPath2)"/>
    </g>
    <g stroke-miterlimit="1.45" font-family="sans-serif" transform="matrix(1,0,0,1,-450,-300)" stroke-linecap="butt">
      <text x="499.7928" xml:space="preserve" y="484.7128" clip-path="url(#clipPath2)" stroke="none">3</text>
      <path fill="none" stroke-width="3" d="M589.3934 430.6066 L557.6777 462.3223" clip-path="url(#clipPath2)"/>
      <path stroke-width="3" d="M550.6066 469.3934 L565.6326 463.2062 L558.5616 461.4384 L556.7938 454.3674 Z" clip-path="url(#clipPath2)" stroke="none"/>
      <text x="560.4457" xml:space="preserve" y="441.64" clip-path="url(#clipPath2)" stroke="none">1</text>
    </g>
    <g fill="gray" stroke-width="3" stroke-miterlimit="1.45" transform="matrix(1,0,0,1,-450,-300)" stroke-linecap="butt" stroke="gray">
      <path fill="none" d="M604.7434 434.2303 L625.2566 495.7697" clip-path="url(#clipPath2)"/>
    </g>
    <g stroke-miterlimit="1.45" font-family="sans-serif" transform="matrix(1,0,0,1,-450,-300)" stroke-linecap="butt">
      <text x="598.1826" xml:space="preserve" y="473.4103" clip-path="url(#clipPath2)" stroke="none">4</text>
    </g>
    <g fill="gray" stroke-width="3" stroke-miterlimit="1.45" transform="matrix(1,0,0,1,-450,-300)" stroke-linecap="butt" stroke="gray">
      <path fill="none" d="M638.3205 497.5193 L681.6795 432.4807" clip-path="url(#clipPath2)"/>
    </g>
    <g stroke-miterlimit="1.45" font-family="sans-serif" transform="matrix(1,0,0,1,-450,-300)" stroke-linecap="butt">
      <text x="645.6962" xml:space="preserve" y="459.4839" clip-path="url(#clipPath2)" stroke="none">2</text>
      <path fill="none" stroke-width="3" d="M694.7434 434.2303 L712.0943 486.2829" clip-path="url(#clipPath2)"/>
      <path stroke-width="3" d="M715.2566 495.7697 L716.4424 479.5631 L711.699 485.0971 L704.5839 483.5159 Z" clip-path="url(#clipPath2)" stroke="none"/>
      <text x="713.2802" xml:space="preserve" y="465.6279" clip-path="url(#clipPath2)" stroke="none">1</text>
    </g>
    <g fill="gray" stroke-width="3" stroke-miterlimit="1.45" transform="matrix(1,0,0,1,-450,-300)" stroke-linecap="butt" stroke="gray">
      <path fill="none" d="M524.2302 394.7434 L585.7698 415.2566" clip-path="url(#clipPath2)"/>
    </g>
    <g stroke-miterlimit="1.45" font-family="sans-serif" transform="matrix(1,0,0,1,-450,-300)" stroke-linecap="butt">
      <text x="555.2706" xml:space="preserve" y="397.8465" clip-path="url(#clipPath2)" stroke="none">3</text>
    </g>
    <g fill="gray" stroke-width="3" stroke-miterlimit="1.45" transform="matrix(1,0,0,1,-450,-300)" stroke-linecap="butt" stroke="gray">
      <path fill="none" d="M506.362 404.5521 L483.638 495.4479" clip-path="url(#clipPath2)"/>
    </g>
    <g stroke-miterlimit="1.45" font-family="sans-serif" transform="matrix(1,0,0,1,-450,-300)" stroke-linecap="butt">
      <text x="478.5794" xml:space="preserve" y="448.4247" clip-path="url(#clipPath2)" stroke="none">2</text>
    </g>
    <g fill="gray" stroke-width="3" stroke-miterlimit="1.45" transform="matrix(1,0,0,1,-450,-300)" stroke-linecap="butt" stroke="gray">
      <path fill="none" d="M522.4808 381.6795 L587.5192 338.3205" clip-path="url(#clipPath2)"/>
    </g>
    <g stroke-miterlimit="1.45" font-family="sans-serif" transform="matrix(1,0,0,1,-450,-300)" stroke-linecap="butt">
      <text x="543.2962" xml:space="preserve" y="351.3495" clip-path="url(#clipPath2)" stroke="none">2</text>
      <path fill="none" stroke-width="3" d="M610.6066 340.6066 L672.3223 402.3223" clip-path="url(#clipPath2)"/>
      <path stroke-width="3" d="M679.3934 409.3934 L673.2062 394.3674 L671.4384 401.4384 L664.3674 403.2062 Z" clip-path="url(#clipPath2)" stroke="none"/>
      <text x="654.2978" xml:space="preserve" y="369.3719" clip-path="url(#clipPath2)" stroke="none">3</text>
      <path fill="none" stroke-width="3" d="M600 345 L600 395" clip-path="url(#clipPath2)"/>
      <path stroke-width="3" d="M600 405 L606.25 390 L600 393.75 L593.75 390 Z" clip-path="url(#clipPath2)" stroke="none"/>
      <text x="585.7794" xml:space="preserve" y="377.9479" clip-path="url(#clipPath2)" stroke="none">1</text>
    </g>
  </g>
</svg>
