<?xml version="1.0" encoding="UTF-8"?><svg xmlns="http://www.w3.org/2000/svg" xmlns:xlink="http://www.w3.org/1999/xlink" fill-opacity="1" color-rendering="auto" color-interpolation="auto" stroke="black" text-rendering="auto" stroke-linecap="square" width="300" stroke-miterlimit="10" stroke-opacity="1" shape-rendering="auto" fill="black" stroke-dasharray="none" font-weight="normal" stroke-width="1" height="283" font-family="'Dialog'" font-style="normal" stroke-linejoin="miter" font-size="12" stroke-dashoffset="0" image-rendering="auto">
  <!--Generated by ySVG-->
  <defs id="genericDefs"/>
  <g>
    <g fill="white" transform="translate(-180,-917)" stroke="white">
      <rect x="180" width="300" height="283" y="917" clip-path="url(#clipPath2)" stroke="none"/>
    </g>
    <g stroke-miterlimit="1.45" font-family="sans-serif" transform="matrix(1,0,0,1,-180,-917)" stroke-linecap="butt">
      <text x="445.4883" xml:space="preserve" y="1174.1543" clip-path="url(#clipPath2)" stroke="none">H</text>
      <circle fill="none" r="15" clip-path="url(#clipPath2)" cx="450" cy="1170"/>
      <text x="356.5488" xml:space="preserve" y="1174.1543" clip-path="url(#clipPath2)" stroke="none">F</text>
      <circle fill="none" r="15" clip-path="url(#clipPath2)" cx="360" cy="1170"/>
      <text x="265.3799" xml:space="preserve" y="1144.1543" clip-path="url(#clipPath2)" stroke="none">D</text>
      <circle fill="none" r="15" clip-path="url(#clipPath2)" cx="270" cy="1140"/>
      <text x="205.8105" xml:space="preserve" y="1174.1543" clip-path="url(#clipPath2)" stroke="none">C</text>
      <circle fill="none" r="15" clip-path="url(#clipPath2)" cx="210" cy="1170"/>
      <text x="326.209" xml:space="preserve" y="1084.1543" clip-path="url(#clipPath2)" stroke="none">E</text>
      <circle fill="none" r="15" clip-path="url(#clipPath2)" cx="330" cy="1080"/>
      <text x="415.3506" xml:space="preserve" y="1084.1543" clip-path="url(#clipPath2)" stroke="none">G</text>
      <circle fill="none" r="15" clip-path="url(#clipPath2)" cx="420" cy="1080"/>
      <text x="235.8838" xml:space="preserve" y="1054.1543" clip-path="url(#clipPath2)" stroke="none">B</text>
      <circle fill="none" r="15" clip-path="url(#clipPath2)" cx="240" cy="1050"/>
    </g>
    <g fill="rgb(51,153,102)" transform="matrix(1,0,0,1,-180,-917)" stroke="rgb(51,153,102)">
      <circle r="15" clip-path="url(#clipPath2)" cx="330" cy="990" stroke="none"/>
    </g>
    <g stroke-miterlimit="1.45" font-family="sans-serif" transform="matrix(1,0,0,1,-180,-917)" stroke-linecap="butt">
      <text x="325.8955" xml:space="preserve" y="994.1543" clip-path="url(#clipPath2)" stroke="none">A</text>
      <circle fill="none" r="15" clip-path="url(#clipPath2)" cx="330" cy="990"/>
    </g>
    <g transform="matrix(1,0,0,1,226.8841,15.1271)">
      <g clip-path="url(#clipPath3)">
        <svg xmlns:svg="http://www.w3.org/2000/svg" xmlns:dc="http://purl.org/dc/elements/1.1/" xmlns:cc="http://creativecommons.org/ns#" xmlns:rdf="http://www.w3.org/1999/02/22-rdf-syntax-ns#" xml:space="preserve" opacity="1" margin-top="0" indent="0" writing-mode="lr-tb" stop-color="rgb(0, 0, 0)" shape-rendering="auto" glyph-orientation-horizontal="0deg" color-profile="auto" lighting-color="rgb(255, 255, 255)" color="rgb(0, 0, 0)" xml:id="svg1.svg2" font-weight="400" alignment-baseline="auto" font-style="normal" version="1.1" color-interpolation-filters="linearrgb" text-anchor="start" stroke-linecap="butt" color-interpolation="srgb" font-variant="normal" margin-left="0" solid-color="rgb(0, 0, 0)" word-spacing="normal" fill-opacity="1" text-rendering="auto" clip-path="none" text-decoration="none" letter-spacing="normal" glyph-orientation-vertical="auto" margin-right="0" display="inline" font-size-adjust="none" margin-bottom="0" overflow="visible" fill="rgb(0, 0, 0)" font-stretch="normal" stroke-dasharray="none" id="svg1.svg2" stroke-miterlimit="4" stop-opacity="1" color-rendering="auto" font-size="12" pointer-events="visiblepainted" mask="none" direction="ltr" baseline-shift="baseline" enable-background="accumulate" fill-rule="nonzero" image-rendering="auto" solid-opacity="1" stroke-dashoffset="0" width="26.237499" marker-end="none" clip="auto" cursor="auto" stroke="none" filter="none" visibility="visible" kerning="auto" stroke-width="1" font-family="&quot;Arial&quot;,&quot;Helvetica&quot;,sans-serif" flood-opacity="1" clip-rule="nonzero" src="none" height="37.637501" text-align="inherit" line-height="normal" unicode-bidi="normal" stroke-linejoin="miter" stroke-opacity="1" flood-color="rgb(0, 0, 0)" dominant-baseline="auto" marker-start="none" marker-mid="none">
          <metadata id="svg1.metadata8" xml:id="svg1.metadata8"/>
          <defs id="svg1.defs6" xml:id="svg1.defs6">
            <clipPath id="svg1.clipPath18" xml:id="svg1.clipPath18">
              <path d="M 0,1 210,1 210,301 0,301 0,1 z" id="svg1.path20" xml:id="svg1.path20"/>
            </clipPath>
            <clipPath clipPathUnits="userSpaceOnUse" id="clipPath1">
              <path d="M0 0 L300 0 L300 283 L0 283 L0 0 Z"/>
            </clipPath>
            <clipPath clipPathUnits="userSpaceOnUse" id="clipPath2">
              <path d="M180 917 L480 917 L480 1200 L180 1200 L180 917 Z"/>
            </clipPath>
            <clipPath clipPathUnits="userSpaceOnUse" id="clipPath3">
              <path d="M-226.8841 -15.1271 L73.1159 -15.1271 L73.1159 267.8729 L-226.8841 267.8729 L-226.8841 -15.1271 Z"/>
            </clipPath>
          </defs>
          <g id="svg1.g10" xml:id="svg1.g10" transform="matrix(1.25,0,0,-1.25,0,37.6375)">
            <g id="svg1.g12" xml:id="svg1.g12" transform="scale(0.1,0.1)">
              <g id="svg1.g14" xml:id="svg1.g14">
                <g id="svg1.g16" xml:id="svg1.g16" clip-path="url(#svg1.clipPath18)">
                  <path d="m 4.82813,4.82422 153.879,0 0,245.121 -153.879,0 0,-245.121 z" id="svg1.path22" style="fill:#087fbf;fill-opacity:1;fill-rule:nonzero;stroke:none" xml:id="svg1.path22"/>
                  <path d="m 158.707,249.945 -153.87887,0 0,-245.12078 153.87887,0" id="svg1.path24" style="fill:none;stroke:#ffffff;stroke-width:4;stroke-linecap:butt;stroke-linejoin:miter;stroke-miterlimit:4;stroke-opacity:1;stroke-dasharray:none" xml:id="svg1.path24"/>
                  <path d="m 158.707,4.82422 49.148,49.14458 0,245.1172 -153.8862,0 -49.14067,-49.141 153.87887,0 0,-245.12078" id="svg1.path26" style="fill:#087fbf;fill-opacity:1;fill-rule:nonzero;stroke:none" xml:id="svg1.path26"/>
                  <path d="m 158.707,4.82422 49.148,49.14458 0,245.1172 -153.8862,0 -49.14067,-49.141 153.87887,0 0,-245.12078 z" id="svg1.path28" style="fill:none;stroke:#ffffff;stroke-width:4;stroke-linecap:butt;stroke-linejoin:miter;stroke-miterlimit:4;stroke-opacity:1;stroke-dasharray:none" xml:id="svg1.path28"/>
                  <path d="m 158.707,249.945 49.148,49.141" id="svg1.path30" style="fill:#087fbf;fill-opacity:1;fill-rule:nonzero;stroke:none" xml:id="svg1.path30"/>
                  <path d="m 158.707,249.945 49.148,49.141" id="svg1.path32" style="fill:none;stroke:#ffffff;stroke-width:4;stroke-linecap:butt;stroke-linejoin:miter;stroke-miterlimit:4;stroke-opacity:1;stroke-dasharray:none" xml:id="svg1.path32"/>
                  <path d="m 7.32031,154.457 149.99969,0" id="svg1.path34" style="fill:none;stroke:#ffffff;stroke-width:4;stroke-linecap:butt;stroke-linejoin:miter;stroke-miterlimit:4;stroke-opacity:1;stroke-dasharray:none" xml:id="svg1.path34"/>
                  <path d="m 7.32031,41.957 149.99969,0" id="svg1.path36" style="fill:none;stroke:#ffffff;stroke-width:4;stroke-linecap:butt;stroke-linejoin:miter;stroke-miterlimit:4;stroke-opacity:1;stroke-dasharray:none" xml:id="svg1.path36"/>
                  <path d="m 42.3203,211.957 43.75,0" id="svg1.path38" style="fill:none;stroke:#ffffff;stroke-width:4;stroke-linecap:butt;stroke-linejoin:miter;stroke-miterlimit:4;stroke-opacity:1;stroke-dasharray:none" xml:id="svg1.path38"/>
                  <path d="m 24.8203,196.957 77.5,0 0,31.25 -77.5,0 0,-31.25 z" id="svg1.path40" style="fill:none;stroke:#ffffff;stroke-width:4;stroke-linecap:butt;stroke-linejoin:miter;stroke-miterlimit:4;stroke-opacity:1;stroke-dasharray:none" xml:id="svg1.path40"/>
                </g>
              </g>
            </g>
          </g>
        </svg>
      </g>
    </g>
    <g fill="gray" stroke-width="3" stroke-miterlimit="1.45" transform="matrix(1,0,0,1,-180,-917)" stroke-linecap="butt" stroke="gray">
      <path fill="none" d="M375 1170 L435 1170" clip-path="url(#clipPath2)"/>
      <path fill="none" d="M284.2303 1144.7434 L345.7697 1165.2566" clip-path="url(#clipPath2)"/>
      <path fill="none" d="M256.6515 1146.8424 L240 1155.3779 L223.4837 1163.428" clip-path="url(#clipPath2)"/>
      <path fill="none" d="M334.7434 1094.2302 L355.2566 1155.7698" clip-path="url(#clipPath2)"/>
      <path fill="none" d="M319.3934 1090.6066 L280.6066 1129.3934" clip-path="url(#clipPath2)"/>
      <path fill="none" d="M368.3205 1157.5193 L411.6795 1092.4807" clip-path="url(#clipPath2)"/>
      <path fill="none" d="M424.7434 1094.2302 L445.2566 1155.7698" clip-path="url(#clipPath2)"/>
      <path fill="none" d="M236.362 1064.5521 L213.638 1155.4479" clip-path="url(#clipPath2)"/>
      <path fill="none" d="M254.2303 1054.7434 L315.7697 1075.2566" clip-path="url(#clipPath2)"/>
      <path fill="none" d="M252.4808 1041.6794 L317.5193 998.3205" clip-path="url(#clipPath2)"/>
      <path fill="none" d="M330 1005 L330 1065" clip-path="url(#clipPath2)"/>
      <path fill="none" d="M340.6066 1000.6066 L409.3934 1069.3934" clip-path="url(#clipPath2)"/>
      <path fill="none" d="M341.1547 1057.6266 L347.7451 1044.4078 L368.6601 1011.0254 L392.7451 979.8526 L400.0252 972.1162" clip-path="url(#clipPath2)" stroke="black"/>
      <path fill="black" d="M336.6928 1066.5759 L348.979 1055.9406 L341.7124 1056.5078 L337.7922 1050.3632 Z" clip-path="url(#clipPath2)" stroke="none"/>
      <path fill="black" d="M406.8782 964.8337 L392.047 971.4743 L399.1685 973.0266 L401.1502 980.0406 Z" clip-path="url(#clipPath2)" stroke="none"/>
      <path fill="none" d="M253.064 1028.6849 L255.4456 1024.7992 L272.9067 1003.259 L282.393 993.8616 L292.3833 985.3794 L302.8775 977.8123 L313.8755 971.1603 L325.3775 965.4235 L337.3833 960.6018 L349.893 956.6953 L362.9067 953.7039 L390.4456 950.4664 L396.8689 950.5584" clip-path="url(#clipPath2)" stroke="black"/>
      <path fill="black" d="M247.8384 1037.2109 L261.0056 1027.6879 L253.7172 1027.6191 L250.348 1021.1559 Z" clip-path="url(#clipPath2)" stroke="none"/>
      <path fill="black" d="M406.8679 950.7015 L391.9589 944.2375 L395.619 950.5405 L391.78 956.7362 Z" clip-path="url(#clipPath2)" stroke="none"/>
      <path fill="none" d="M371.0391 1147.5692 L372.7691 1144.0541 L384.0327 1117.6959 L393.7909 1090.9254 L402.0436 1063.7428 L408.7909 1036.1478 L414.0327 1008.1407 L417.7691 979.7213 L418.5512 969.6133" clip-path="url(#clipPath2)" stroke="black"/>
      <path fill="black" d="M366.6235 1156.5415 L378.8546 1145.8429 L371.5911 1146.4476 L367.6393 1140.3232 Z" clip-path="url(#clipPath2)" stroke="none"/>
      <path fill="none" d="M406.8872 958.5032 L391.9677 967.1658 L366.5874 985.5455 L343.8593 1006.0289 L323.7832 1028.616 L306.3593 1053.3065 L291.5874 1080.1007 L279.4677 1108.9985 L277.3019 1116.0901" clip-path="url(#clipPath2)" stroke="black"/>
      <path fill="black" d="M274.3812 1125.6541 L284.7398 1113.1337 L277.667 1114.8947 L272.7849 1109.4827 Z" clip-path="url(#clipPath2)" stroke="none"/>
    </g>
  </g>
</svg>
