<?xml version="1.0" encoding="UTF-8"?><svg xmlns="http://www.w3.org/2000/svg" xmlns:xlink="http://www.w3.org/1999/xlink" fill-opacity="1" color-rendering="auto" color-interpolation="auto" stroke="black" text-rendering="auto" stroke-linecap="square" width="300" stroke-miterlimit="10" stroke-opacity="1" shape-rendering="auto" fill="black" stroke-dasharray="none" font-weight="normal" stroke-width="1" height="240" font-family="'Dialog'" font-style="normal" stroke-linejoin="miter" font-size="12" stroke-dashoffset="0" image-rendering="auto">
  <!--Generated by ySVG-->
  <defs id="genericDefs"/>
  <g>
    <defs id="defs1">
      <clipPath clipPathUnits="userSpaceOnUse" id="clipPath1">
        <path d="M0 0 L300 0 L300 240 L0 240 L0 0 Z"/>
      </clipPath>
      <clipPath clipPathUnits="userSpaceOnUse" id="clipPath2">
        <path d="M-240 960 L60 960 L60 1200 L-240 1200 L-240 960 Z"/>
      </clipPath>
    </defs>
    <g fill="white" transform="translate(240,-960)" stroke="white">
      <rect x="-240" width="300" height="240" y="960" clip-path="url(#clipPath2)" stroke="none"/>
    </g>
    <g fill="rgb(51,153,102)" transform="matrix(1,0,0,1,240,-960)" stroke="rgb(51,153,102)">
      <circle r="15" clip-path="url(#clipPath2)" cx="-90" cy="990" stroke="none"/>
    </g>
    <g stroke-miterlimit="1.45" font-family="sans-serif" transform="matrix(1,0,0,1,240,-960)" stroke-linecap="butt">
      <text x="-94.1045" xml:space="preserve" y="994.1543" clip-path="url(#clipPath2)" stroke="none">A</text>
      <circle fill="none" r="15" clip-path="url(#clipPath2)" cx="-90" cy="990"/>
      <text x="-184.1162" xml:space="preserve" y="1054.1543" clip-path="url(#clipPath2)" stroke="none">B</text>
      <circle fill="none" r="15" clip-path="url(#clipPath2)" cx="-180" cy="1050"/>
      <text x="-4.6494" xml:space="preserve" y="1084.1543" clip-path="url(#clipPath2)" stroke="none">G</text>
      <circle fill="none" r="15" clip-path="url(#clipPath2)" cx="0" cy="1080"/>
      <text x="-93.791" xml:space="preserve" y="1084.1543" clip-path="url(#clipPath2)" stroke="none">E</text>
      <circle fill="none" r="15" clip-path="url(#clipPath2)" cx="-90" cy="1080"/>
      <text x="-214.1895" xml:space="preserve" y="1174.1543" clip-path="url(#clipPath2)" stroke="none">C</text>
      <circle fill="none" r="15" clip-path="url(#clipPath2)" cx="-210" cy="1170"/>
      <text x="-154.6201" xml:space="preserve" y="1144.1543" clip-path="url(#clipPath2)" stroke="none">D</text>
      <circle fill="none" r="15" clip-path="url(#clipPath2)" cx="-150" cy="1140"/>
      <text x="-63.4512" xml:space="preserve" y="1174.1543" clip-path="url(#clipPath2)" stroke="none">F</text>
      <circle fill="none" r="15" clip-path="url(#clipPath2)" cx="-60" cy="1170"/>
      <text x="25.4883" xml:space="preserve" y="1174.1543" clip-path="url(#clipPath2)" stroke="none">H</text>
      <circle fill="none" r="15" clip-path="url(#clipPath2)" cx="30" cy="1170"/>
    </g>
    <g fill="gray" stroke-width="3" stroke-miterlimit="1.45" transform="matrix(1,0,0,1,240,-960)" stroke-linecap="butt" stroke="gray">
      <path fill="none" d="M-167.5192 1041.6794 L-102.4808 998.3205" clip-path="url(#clipPath2)"/>
      <path fill="none" d="M-79.3934 1000.6066 L-10.6066 1069.3934" clip-path="url(#clipPath2)"/>
      <path fill="none" d="M-90 1015 L-90 1055" clip-path="url(#clipPath2)" stroke="black"/>
      <path fill="black" d="M-90 1005 L-96.25 1020 L-90 1016.25 L-83.75 1020 Z" clip-path="url(#clipPath2)" stroke="none"/>
      <path fill="black" d="M-90 1065 L-83.75 1050 L-90 1053.75 L-96.25 1050 Z" clip-path="url(#clipPath2)" stroke="none"/>
      <path fill="none" d="M-156.2829 1057.9056 L-113.7171 1072.0944" clip-path="url(#clipPath2)" stroke="black"/>
      <path fill="black" d="M-165.7698 1054.7434 L-153.5159 1065.416 L-155.0971 1058.3009 L-149.5631 1053.5575 Z" clip-path="url(#clipPath2)" stroke="none"/>
      <path fill="black" d="M-104.2302 1075.2566 L-116.4841 1064.584 L-114.9029 1071.6991 L-120.4369 1076.4425 Z" clip-path="url(#clipPath2)" stroke="none"/>
      <path fill="none" d="M-186.0634 1074.2535 L-203.9366 1145.7465" clip-path="url(#clipPath2)" stroke="black"/>
      <path fill="black" d="M-183.638 1064.5521 L-193.3395 1077.5884 L-186.3666 1075.4662 L-181.2127 1080.6201 Z" clip-path="url(#clipPath2)" stroke="none"/>
      <path fill="black" d="M-206.362 1155.4479 L-196.6605 1142.4116 L-203.6334 1144.5338 L-208.7873 1139.3799 Z" clip-path="url(#clipPath2)" stroke="none"/>
      <path fill="none" d="M-100.6066 1090.6066 L-139.3934 1129.3934" clip-path="url(#clipPath2)"/>
      <path fill="none" d="M-163.3485 1146.8424 L-180 1155.3779 L-196.5163 1163.428" clip-path="url(#clipPath2)"/>
      <path fill="none" d="M-82.0943 1103.717 L-67.9057 1146.283" clip-path="url(#clipPath2)" stroke="black"/>
      <path fill="black" d="M-85.2566 1094.2302 L-86.4424 1110.4369 L-81.699 1104.903 L-74.5839 1106.484 Z" clip-path="url(#clipPath2)" stroke="none"/>
      <path fill="black" d="M-64.7434 1155.7698 L-63.5576 1139.5631 L-68.301 1145.097 L-75.4161 1143.516 Z" clip-path="url(#clipPath2)" stroke="none"/>
      <path fill="none" d="M-126.2829 1147.9056 L-83.7171 1162.0944" clip-path="url(#clipPath2)" stroke="black"/>
      <path fill="black" d="M-135.7698 1144.7434 L-123.5159 1155.416 L-125.0971 1148.3009 L-119.5631 1143.5575 Z" clip-path="url(#clipPath2)" stroke="none"/>
      <path fill="black" d="M-74.2302 1165.2566 L-86.4841 1154.584 L-84.9029 1161.6991 L-90.4369 1166.4425 Z" clip-path="url(#clipPath2)" stroke="none"/>
      <path fill="none" d="M-51.6795 1157.5193 L-8.3205 1092.4807" clip-path="url(#clipPath2)"/>
      <path fill="none" d="M7.9057 1103.717 L22.0943 1146.283" clip-path="url(#clipPath2)" stroke="black"/>
      <path fill="black" d="M4.7434 1094.2302 L3.5576 1110.4369 L8.301 1104.903 L15.4161 1106.484 Z" clip-path="url(#clipPath2)" stroke="none"/>
      <path fill="black" d="M25.2566 1155.7698 L26.4424 1139.5631 L21.699 1145.097 L14.5839 1143.516 Z" clip-path="url(#clipPath2)" stroke="none"/>
      <path fill="none" d="M-35 1170 L5 1170" clip-path="url(#clipPath2)" stroke="black"/>
      <path fill="black" d="M-45 1170 L-30 1176.25 L-33.75 1170 L-30 1163.75 Z" clip-path="url(#clipPath2)" stroke="none"/>
      <path fill="black" d="M15 1170 L0 1163.75 L3.75 1170 L0 1176.25 Z" clip-path="url(#clipPath2)" stroke="none"/>
    </g>
  </g>
</svg>
